<?xml version="1.0" standalone="no"?>
<!DOCTYPE svg PUBLIC "-//W3C//DTD SVG 20010904//EN"
 "http://www.w3.org/TR/2001/REC-SVG-20010904/DTD/svg10.dtd">
<svg version="1.0" xmlns="http://www.w3.org/2000/svg"
 width="741.000000pt" height="512.000000pt" viewBox="0 0 741.000000 512.000000"
 preserveAspectRatio="xMidYMid meet">

<g transform="translate(0.000000,512.000000) scale(0.100000,-0.100000)"
fill="#000000" stroke="none">
<path d="M3698 5019 c-16 -9 -18 -28 -18 -173 l0 -162 -50 -13 c-27 -7 -52
-16 -55 -21 -3 -4 21 0 53 10 l57 18 3 166 c2 166 2 166 27 172 13 3 33 3 44
-1 19 -6 21 -15 23 -172 l3 -166 45 -13 c24 -7 46 -11 48 -9 3 2 -16 10 -42
17 l-46 12 0 163 c0 150 -1 163 -19 173 -25 13 -51 12 -73 -1z"/>
<path d="M3520 4614 c-17 -15 -40 -44 -50 -65 -18 -33 -25 -38 -62 -42 l-43
-4 46 -1 c45 -2 46 -1 64 39 11 22 35 54 54 70 20 16 33 29 29 29 -4 0 -21
-12 -38 -26z"/>
<path d="M3933 4619 c15 -12 39 -38 52 -57 14 -20 25 -32 25 -27 0 16 -59 84
-83 96 -15 7 -13 3 6 -12z"/>
<path d="M3708 4603 c12 -2 30 -2 40 0 9 3 -1 5 -23 4 -22 0 -30 -2 -17 -4z"/>
<path d="M3658 4593 c7 -3 16 -2 19 1 4 3 -2 6 -13 5 -11 0 -14 -3 -6 -6z"/>
<path d="M3778 4593 c7 -3 16 -2 19 1 4 3 -2 6 -13 5 -11 0 -14 -3 -6 -6z"/>
<path d="M3585 4555 c-19 -20 -35 -40 -35 -45 0 -6 69 -10 176 -10 l176 0 -18
27 c-19 29 -54 62 -67 63 -4 0 8 -14 28 -31 19 -17 35 -35 35 -40 0 -5 -70 -9
-155 -9 -85 0 -155 3 -155 8 0 12 13 26 44 50 16 12 24 22 18 22 -6 0 -27 -16
-47 -35z"/>
<path d="M4010 4508 c0 -4 18 -8 39 -8 22 0 46 -3 55 -6 21 -8 20 -40 -1 -54
-16 -10 -16 -10 2 -8 22 4 33 44 16 61 -13 13 -111 27 -111 15z"/>
<path d="M3347 4493 c-13 -12 -7 -51 9 -57 25 -10 29 -7 9 8 -12 8 -16 20 -12
35 5 22 4 25 -6 14z"/>
<path d="M3452 4282 c-2 -148 -3 -153 -24 -162 -13 -5 -16 -9 -8 -9 38 -1 41
11 37 170 l-3 154 -2 -153z"/>
<path d="M3540 4291 c0 -77 3 -142 8 -144 4 -3 7 60 7 139 0 79 -3 144 -7 144
-5 0 -8 -63 -8 -139z"/>
<path d="M3898 4295 l3 -135 -60 0 -61 0 0 74 c0 66 -3 77 -22 90 -12 9 -29
16 -38 16 -8 -1 0 -7 18 -15 l32 -14 0 -80 0 -79 66 -4 c36 -1 68 -1 70 1 7 8
4 281 -3 281 -5 0 -7 -61 -5 -135z"/>
<path d="M4012 4279 c-2 -163 0 -171 41 -168 7 0 3 4 -8 8 -18 7 -20 20 -25
162 l-6 154 -2 -156z"/>
<path d="M3676 4314 c-3 -9 -6 -47 -6 -84 l0 -69 -45 -4 -45 -4 47 1 48 1 3
75 c2 41 8 80 14 87 7 8 7 13 0 13 -5 0 -13 -7 -16 -16z"/>
<path d="M4145 4076 c44 -18 91 -38 104 -45 13 -7 21 -9 17 -3 -7 11 -172 82
-189 82 -7 -1 24 -16 68 -34z"/>
<path d="M3310 4080 c-8 -5 -10 -10 -5 -10 6 0 17 5 25 10 8 5 11 10 5 10 -5
0 -17 -5 -25 -10z"/>
<path d="M3687 4083 c18 -2 50 -2 70 0 21 2 7 4 -32 4 -38 0 -55 -2 -38 -4z"/>
<path d="M3583 4073 c9 -2 25 -2 35 0 9 3 1 5 -18 5 -19 0 -27 -2 -17 -5z"/>
<path d="M3828 4073 c12 -2 30 -2 40 0 9 3 -1 5 -23 4 -22 0 -30 -2 -17 -4z"/>
<path d="M3224 4041 c-176 -97 -323 -253 -358 -381 -4 -14 9 7 28 45 67 134
183 248 336 330 36 19 61 34 55 35 -5 0 -33 -13 -61 -29z"/>
<path d="M3518 4063 c6 -2 18 -2 25 0 6 3 1 5 -13 5 -14 0 -19 -2 -12 -5z"/>
<path d="M3975 4046 c50 -13 120 -37 158 -54 37 -17 67 -28 67 -26 0 19 -246
105 -295 104 -11 -1 21 -11 70 -24z"/>
<path d="M3478 4053 c7 -3 16 -2 19 1 4 3 -2 6 -13 5 -11 0 -14 -3 -6 -6z"/>
<path d="M3353 4017 c-113 -46 -202 -107 -281 -192 -63 -67 -133 -182 -131
-216 0 -8 9 8 20 35 30 75 85 150 154 214 79 72 153 116 263 158 48 18 80 33
72 34 -8 0 -52 -15 -97 -33z"/>
<path d="M4300 4003 c13 -10 50 -37 81 -60 95 -70 182 -186 225 -303 7 -19 13
-28 13 -19 2 33 -80 176 -135 237 -49 55 -149 135 -194 156 -8 4 -4 -1 10 -11z"/>
<path d="M4210 3957 c0 -2 19 -17 42 -32 102 -68 188 -171 233 -281 14 -32 25
-52 25 -43 0 9 -16 50 -37 90 -27 55 -57 94 -117 154 -69 68 -146 127 -146
112z"/>
<path d="M2842 3589 c-6 -23 -7 -38 -2 -33 9 10 24 74 17 74 -3 0 -9 -19 -15
-41z"/>
<path d="M4620 3581 c0 -11 4 -22 9 -25 4 -3 6 6 3 19 -5 30 -12 33 -12 6z"/>
<path d="M2932 3570 c0 -14 2 -19 5 -12 2 6 2 18 0 25 -3 6 -5 1 -5 -13z"/>
<path d="M4511 3564 c0 -11 3 -14 6 -6 3 7 2 16 -1 19 -3 4 -6 -2 -5 -13z"/>
<path d="M2722 3538 c-35 -35 1 -69 70 -66 l43 1 -49 6 c-59 7 -83 33 -52 57
11 8 15 14 10 14 -6 0 -15 -5 -22 -12z"/>
<path d="M4726 3536 c31 -24 7 -50 -52 -57 l-49 -6 47 -1 c47 -2 78 15 78 42
0 14 -20 36 -34 36 -5 0 -1 -6 10 -14z"/>
<path d="M2977 3473 l62 -4 4 -92 3 -92 2 98 2 97 -67 -2 -68 -2 62 -3z"/>
<path d="M3140 3385 c0 -52 3 -95 8 -95 4 0 6 40 4 90 l-3 90 115 0 115 0 4
-92 3 -93 2 98 2 97 -125 0 -125 0 0 -95z"/>
<path d="M3717 3473 l232 -3 4 -93 3 -92 2 98 2 97 -237 -2 -238 -3 232 -2z"/>
<path d="M4118 3473 c34 -2 90 -2 125 0 34 2 6 3 -63 3 -69 0 -97 -1 -62 -3z"/>
<path d="M4402 3383 l2 -98 3 93 4 92 54 0 54 0 4 -92 3 -93 2 98 2 97 -65 0
-65 0 2 -97z"/>
<path d="M3682 3408 c-20 -20 -14 -48 12 -59 32 -15 73 -4 81 22 7 21 -9 49
-28 49 -6 0 -2 -6 8 -14 36 -26 -1 -64 -50 -52 -29 8 -34 40 -7 55 9 6 12 11
7 11 -6 0 -16 -5 -23 -12z"/>
<path d="M2607 3283 c-4 -3 -7 -57 -7 -119 0 -93 3 -113 16 -118 9 -3 56 -6
105 -6 68 0 89 -3 89 -14 0 -26 -46 -81 -94 -113 -26 -18 -44 -33 -38 -33 18
0 96 65 119 99 43 64 36 70 -79 73 l-103 3 -3 105 c-2 90 0 107 15 117 14 11
14 13 2 13 -9 0 -19 -3 -22 -7z"/>
<path d="M4833 3277 c15 -10 17 -27 15 -117 l-3 -105 -102 -3 c-112 -3 -117
-6 -89 -60 25 -48 120 -122 156 -122 8 0 -3 9 -25 19 -69 31 -135 100 -135
141 0 6 35 10 93 10 59 0 97 4 105 12 8 8 12 49 12 119 0 88 -3 108 -16 113
-25 10 -29 7 -11 -7z"/>
<path d="M2690 3165 l0 -55 1035 0 1035 0 0 55 0 55 -1035 0 -1035 0 0 -55z
m2060 0 l0 -45 -1025 0 -1025 0 0 45 0 45 1025 0 1025 0 0 -45z"/>
<path d="M729 3103 c-11 -15 -11 -16 1 -5 18 15 62 16 78 0 7 -7 12 -42 12
-88 l0 -77 39 -11 c47 -15 87 -45 112 -86 10 -17 19 -25 19 -19 0 25 -72 92
-116 109 l-44 17 0 73 c0 53 -4 77 -16 88 -21 21 -68 20 -85 -1z"/>
<path d="M6646 3104 c-12 -11 -16 -35 -16 -88 l0 -73 -42 -17 c-60 -23 -118
-78 -118 -111 0 -5 9 4 19 21 25 41 65 71 112 86 l39 11 0 77 c0 46 5 81 12
88 16 16 60 15 78 0 12 -11 12 -10 1 5 -17 21 -64 22 -85 1z"/>
<path d="M2901 2996 c-21 -51 -67 -103 -131 -149 l-25 -18 24 12 c46 22 119
99 140 149 l22 50 59 0 60 0 0 -174 0 -175 -37 -4 -38 -4 43 -1 42 -2 0 185 0
185 -68 0 -68 0 -23 -54z"/>
<path d="M3147 3044 c-4 -4 -7 -88 -7 -186 l0 -178 70 0 70 0 -2 183 -3 182
-60 3 c-34 2 -64 0 -68 -4z m123 -179 l0 -175 -60 0 -60 0 0 175 0 175 60 0
60 0 0 -175z"/>
<path d="M3377 3043 c-4 -3 -7 -87 -7 -185 l0 -178 70 0 70 0 0 70 c0 106 34
153 133 187 40 13 40 13 7 8 -46 -7 -106 -48 -130 -88 -15 -23 -20 -50 -20
-99 l0 -68 -60 0 -60 0 0 175 0 175 345 0 345 0 0 -175 0 -175 -60 0 -59 0 -4
68 -3 67 -2 -72 -2 -73 70 0 70 0 -2 183 -3 182 -346 3 c-190 1 -348 -1 -352
-5z"/>
<path d="M4170 2865 l0 -185 68 2 67 2 -62 3 -63 4 0 175 0 176 60 -4 c33 -1
60 0 60 5 0 4 -29 7 -65 7 l-65 0 0 -185z"/>
<path d="M4400 2865 l0 -185 44 0 c53 0 77 -21 58 -51 -7 -11 -8 -19 -2 -19 5
0 13 12 16 27 9 34 -16 53 -68 53 l-38 0 0 175 0 175 61 0 c58 0 60 -1 71 -31
6 -16 12 -28 14 -26 2 2 -1 18 -7 35 -11 32 -11 32 -80 32 l-69 0 0 -185z"/>
<path d="M2382 3018 c-7 -7 -12 -41 -12 -84 0 -61 -3 -73 -17 -77 -14 -4 -12
-5 5 -6 21 -1 22 2 22 79 0 65 3 81 18 89 9 6 12 11 7 11 -6 0 -16 -5 -23 -12z"/>
<path d="M2453 3019 c14 -8 17 -24 17 -89 l0 -80 58 2 57 2 -52 3 -53 4 0 73
c0 69 -10 96 -34 96 -6 0 -3 -5 7 -11z"/>
<path d="M4992 3018 c-7 -7 -12 -41 -12 -84 l0 -73 -52 -4 -53 -3 58 -2 57 -2
0 80 c0 65 3 81 18 89 9 6 12 11 7 11 -6 0 -16 -5 -23 -12z"/>
<path d="M5063 3019 c14 -8 17 -24 17 -89 0 -77 1 -80 23 -79 16 1 18 2 5 6
-15 4 -18 16 -18 77 0 69 -10 96 -34 96 -6 0 -3 -5 7 -11z"/>
<path d="M4576 2941 c11 -18 35 -46 54 -63 40 -33 149 -88 176 -88 15 0 14 -4
-7 -27 l-24 -28 30 25 c17 14 31 26 33 26 2 1 -23 10 -54 20 -53 17 -174 87
-174 102 -1 4 -12 21 -26 37 l-26 30 18 -34z"/>
<path d="M3713 2953 c9 -2 23 -2 30 0 6 3 -1 5 -18 5 -16 0 -22 -2 -12 -5z"/>
<path d="M3768 2943 c6 -2 18 -2 25 0 6 3 1 5 -13 5 -14 0 -19 -2 -12 -5z"/>
<path d="M3855 2911 c28 -16 57 -41 64 -55 8 -14 16 -24 18 -22 16 16 -90 106
-123 106 -5 0 14 -13 41 -29z"/>
<path d="M6784 2920 c57 -22 93 -53 112 -95 8 -18 13 -23 14 -13 1 41 -109
128 -160 127 -8 0 7 -9 34 -19z"/>
<path d="M635 2911 c-39 -23 -85 -78 -84 -99 0 -11 4 -8 10 8 15 37 49 70 94
91 22 10 33 19 25 19 -8 0 -29 -8 -45 -19z"/>
<path d="M3703 2873 c15 -2 37 -2 50 0 12 2 0 4 -28 4 -27 0 -38 -2 -22 -4z"/>
<path d="M767 2861 c71 -9 89 -21 102 -65 7 -24 9 -26 10 -9 1 12 -10 34 -22
49 -21 24 -32 28 -88 30 l-64 3 62 -8z"/>
<path d="M2598 2863 c6 -2 18 -2 25 0 6 3 1 5 -13 5 -14 0 -19 -2 -12 -5z"/>
<path d="M3626 2844 c-23 -24 -26 -35 -26 -95 l0 -69 125 0 125 0 0 64 c0 55
-4 69 -26 95 -14 17 -30 31 -34 31 -5 0 5 -13 21 -29 26 -26 29 -36 29 -90 l0
-61 -115 0 -115 0 0 64 c0 59 2 66 31 90 17 14 26 26 21 26 -5 0 -21 -12 -36
-26z"/>
<path d="M4838 2863 c6 -2 18 -2 25 0 6 3 1 5 -13 5 -14 0 -19 -2 -12 -5z"/>
<path d="M6618 2855 c-27 -15 -54 -52 -45 -62 3 -2 8 5 12 16 9 29 56 51 107
51 58 0 91 -19 105 -60 9 -26 12 -29 12 -13 1 12 -10 34 -22 49 -20 23 -33 28
-83 31 -40 2 -68 -2 -86 -12z"/>
<path d="M661 2836 c-13 -14 -21 -31 -18 -38 4 -9 6 -8 6 4 1 9 13 26 27 37
15 12 22 21 17 21 -5 0 -20 -11 -32 -24z"/>
<path d="M2260 2824 c-53 -30 -78 -51 -93 -79 -6 -11 5 -3 25 17 19 21 59 49
89 63 30 13 47 25 39 25 -8 0 -35 -12 -60 -26z"/>
<path d="M5189 2819 c41 -21 73 -45 92 -72 16 -22 29 -36 29 -32 0 34 -127
135 -169 135 -8 0 14 -14 48 -31z"/>
<path d="M2690 2810 c-8 -5 -10 -10 -5 -10 6 0 17 5 25 10 8 5 11 10 5 10 -5
0 -17 -5 -25 -10z"/>
<path d="M991 2784 c0 -11 3 -14 6 -6 3 7 2 16 -1 19 -3 4 -6 -2 -5 -13z"/>
<path d="M2632 2793 c-8 -3 -5 -10 11 -23 12 -10 32 -34 42 -54 17 -31 24 -36
56 -36 21 0 44 -3 53 -6 19 -7 21 -35 4 -53 -11 -11 -10 -13 2 -9 22 7 25 50
4 65 -10 7 -35 13 -56 13 -31 0 -40 5 -52 28 -8 15 -24 36 -36 47 -20 18 -20
20 -3 26 12 5 13 8 3 8 -8 -1 -21 -3 -28 -6z"/>
<path d="M6461 2784 c0 -11 3 -14 6 -6 3 7 2 16 -1 19 -3 4 -6 -2 -5 -13z"/>
<path d="M2408 2783 c7 -3 16 -2 19 1 4 3 -2 6 -13 5 -11 0 -14 -3 -6 -6z"/>
<path d="M5028 2783 c7 -3 16 -2 19 1 4 3 -2 6 -13 5 -11 0 -14 -3 -6 -6z"/>
<path d="M2358 2773 c7 -3 16 -2 19 1 4 3 -2 6 -13 5 -11 0 -14 -3 -6 -6z"/>
<path d="M2445 2775 c6 -2 22 -6 37 -9 28 -6 88 -52 88 -67 0 -5 -71 -9 -162
-9 l-161 0 19 21 c10 12 33 30 49 40 17 11 25 19 20 19 -22 0 -94 -62 -95 -82
0 -5 77 -8 170 -8 186 0 195 3 143 52 -36 33 -66 48 -95 47 -13 0 -18 -2 -13
-4z"/>
<path d="M4945 2766 c-17 -7 -44 -29 -59 -47 l-29 -34 92 -3 c51 -1 131 -1
179 0 l87 3 -41 43 c-23 23 -48 42 -55 42 -8 0 -6 -5 6 -12 27 -15 65 -50 65
-60 0 -4 -70 -8 -155 -8 -85 0 -155 4 -155 8 0 16 46 52 85 66 22 8 33 15 25
15 -8 0 -29 -6 -45 -13z"/>
<path d="M5068 2773 c6 -2 18 -2 25 0 6 3 1 5 -13 5 -14 0 -19 -2 -12 -5z"/>
<path d="M442 2758 c-33 -33 -1 -68 62 -68 l36 0 0 -130 0 -130 -54 0 c-52 0
-55 1 -59 28 -4 25 -4 25 -6 -5 l-1 -33 65 0 65 0 0 140 0 140 -39 0 c-22 0
-46 3 -55 6 -24 9 -19 43 7 54 13 5 16 9 7 9 -9 1 -21 -4 -28 -11z"/>
<path d="M1078 2760 c25 -11 30 -45 6 -54 -9 -3 -33 -6 -55 -6 l-39 0 0 -140
0 -140 65 0 c64 0 65 0 65 28 0 39 10 50 50 55 l35 4 -37 1 c-40 2 -58 -16
-58 -57 0 -19 -6 -21 -55 -21 l-55 0 0 130 0 130 36 0 c44 0 74 15 74 38 0 22
-19 42 -39 41 -10 0 -7 -4 7 -9z"/>
<path d="M6362 2758 c-33 -33 -1 -68 62 -68 l36 0 0 -130 0 -130 -55 0 c-49 0
-55 2 -55 21 0 41 -18 59 -60 59 -29 0 -42 -5 -50 -19 -5 -11 -10 -85 -10
-170 l0 -150 -37 -4 -38 -4 43 -1 42 -2 0 154 c0 85 3 161 6 170 4 11 19 16
44 16 40 0 50 -11 50 -56 0 -23 3 -24 65 -24 l65 0 0 140 0 140 -39 0 c-22 0
-46 3 -55 6 -24 9 -19 43 7 54 13 5 16 9 7 9 -9 1 -21 -4 -28 -11z"/>
<path d="M6998 2760 c25 -11 30 -45 6 -54 -9 -3 -33 -6 -55 -6 l-39 0 0 -140
0 -140 65 0 c62 0 65 1 65 24 0 43 10 56 44 56 18 0 37 -5 44 -12 8 -8 12 -8
12 -1 0 14 -24 23 -60 23 -31 0 -50 -23 -50 -59 0 -19 -6 -21 -55 -21 l-55 0
0 130 0 130 36 0 c44 0 74 15 74 38 0 22 -19 42 -39 41 -10 0 -7 -4 7 -9z"/>
<path d="M4760 2710 c-8 -15 -21 -20 -48 -20 -48 0 -75 -19 -70 -50 1 -13 9
-25 16 -26 7 -1 8 0 2 3 -16 8 -12 50 6 57 9 3 33 6 53 6 31 0 40 5 49 25 14
30 7 34 -8 5z"/>
<path d="M2147 2705 c-4 -10 -19 -15 -42 -15 -49 0 -75 -16 -75 -45 0 -29 26
-45 74 -45 l36 0 0 -214 0 -215 -37 -4 -38 -4 43 -1 42 -2 0 225 0 225 -39 0
c-54 0 -71 8 -71 35 0 27 17 35 70 35 26 0 40 5 44 16 4 9 5 19 2 21 -2 2 -6
-3 -9 -12z"/>
<path d="M630 2560 l0 -140 125 0 125 0 0 140 0 140 -125 0 -125 0 0 -140z
m240 0 l0 -130 -115 0 -115 0 0 130 0 130 115 0 115 0 0 -130z"/>
<path d="M5310 2688 c0 -4 18 -8 39 -8 22 0 46 -3 55 -6 18 -7 22 -49 6 -57
-6 -3 -5 -4 2 -3 17 3 23 45 9 59 -13 13 -111 27 -111 15z"/>
<path d="M6560 2560 l0 -140 128 2 127 2 -122 3 -123 4 0 130 0 130 120 -3
c66 -2 120 0 120 5 0 4 -56 7 -125 7 l-125 0 0 -140z"/>
<path d="M2944 2666 c-9 -23 -1 -49 16 -54 12 -4 13 -2 3 9 -7 7 -13 21 -13
30 0 10 6 20 13 22 9 4 9 6 -1 6 -7 1 -15 -5 -18 -13z"/>
<path d="M2230 2385 l0 -225 70 0 70 0 0 124 c0 75 4 126 10 129 6 3 5 4 -2 3
-10 -2 -14 -36 -16 -124 l-3 -122 -59 0 -60 0 0 215 0 215 178 3 177 2 -182 3
-183 2 0 -225z"/>
<path d="M2700 2425 l0 -185 65 0 c36 0 65 3 65 8 0 4 -27 5 -60 4 l-60 -4 0
176 0 175 38 4 37 4 -42 1 -43 2 0 -185z"/>
<path d="M3083 2603 c59 -2 155 -2 215 0 59 1 10 3 -108 3 -118 0 -167 -2
-107 -3z"/>
<path d="M3718 2603 l232 -3 0 -46 0 -45 -230 3 c-127 2 -230 0 -230 -4 0 -5
106 -8 235 -8 l235 0 0 55 0 55 -237 -2 -238 -3 233 -2z"/>
<path d="M4163 2603 c59 -2 155 -2 215 0 59 1 10 3 -108 3 -118 0 -167 -2
-107 -3z"/>
<path d="M4713 2603 l37 -4 0 -175 0 -176 -60 4 c-33 1 -60 0 -60 -4 0 -5 29
-8 65 -8 l65 0 0 185 0 185 -42 -2 -43 -1 38 -4z"/>
<path d="M4850 2385 l0 -225 70 0 70 0 0 118 c0 78 4 122 12 130 8 8 8 12 1
12 -18 0 -23 -28 -23 -141 l0 -109 -60 0 -60 0 0 215 0 215 175 0 175 0 0
-215 0 -215 -60 0 -59 0 -3 122 c-2 97 -6 122 -18 126 -12 4 -13 2 -2 -9 8 -9
12 -50 12 -131 l0 -118 70 0 70 0 0 225 0 225 -185 0 -185 0 0 -225z"/>
<path d="M5310 2385 l0 -225 39 0 c54 0 71 -8 71 -35 0 -27 -17 -35 -71 -35
l-39 0 0 -55 0 -55 465 0 465 0 0 55 0 55 -42 -2 -43 -1 38 -4 c37 -4 37 -5
37 -49 l0 -44 -455 0 -455 0 0 45 c0 45 0 45 36 45 48 0 74 16 74 45 0 29 -26
45 -74 45 l-36 0 0 214 0 215 38 4 37 4 -42 1 -43 2 0 -225z"/>
<path d="M3116 2510 c-215 -4 -280 -8 -282 -18 -1 -7 0 -8 3 -2 3 6 103 10
284 10 179 0 279 4 279 10 0 6 -1 9 -2 8 -2 -2 -129 -5 -282 -8z"/>
<path d="M4060 2508 c0 -5 125 -7 278 -6 278 2 246 6 -96 10 -100 2 -182 0
-182 -4z"/>
<path d="M327 2503 c-14 -13 -7 -25 8 -13 8 7 30 10 49 8 19 -2 32 0 30 4 -6
10 -78 11 -87 1z"/>
<path d="M2920 2433 c0 -5 54 -8 120 -8 66 0 120 3 120 8 0 4 -54 7 -120 7
-66 0 -120 -3 -120 -7z"/>
<path d="M3260 2340 l0 -100 465 0 465 0 0 100 0 100 -465 0 -465 0 0 -100z
m920 0 l0 -90 -455 0 -455 0 0 90 0 90 455 0 455 0 0 -90z"/>
<path d="M4284 2427 c-3 -8 -4 -52 -2 -98 l3 -84 123 -3 122 -3 0 101 0 100
-120 0 c-91 0 -122 -3 -126 -13z m236 -87 l0 -91 -112 3 -113 3 -3 88 -3 87
116 0 115 0 0 -90z"/>
<path d="M2428 2415 l32 -14 0 -121 0 -120 68 2 67 2 -62 3 -63 4 0 114 c0
106 -1 115 -22 129 -12 9 -29 16 -38 16 -8 -1 0 -7 18 -15z"/>
<path d="M5028 2423 c7 -3 16 -2 19 1 4 3 -2 6 -13 5 -11 0 -14 -3 -6 -6z"/>
<path d="M768 2343 l322 -3 0 -85 0 -85 -347 -3 -348 -2 353 -3 352 -2 0 95 0
95 -327 -2 -328 -3 323 -2z"/>
<path d="M6698 2343 l322 -3 0 -85 0 -85 -347 -3 -348 -2 353 -3 352 -2 0 95
0 95 -327 -2 -328 -3 323 -2z"/>
<path d="M2920 2248 c0 -5 54 -8 120 -8 66 0 120 3 120 8 0 4 -54 7 -120 7
-66 0 -120 -3 -120 -7z"/>
<path d="M2690 2125 l0 -55 1035 0 1035 0 0 55 0 55 -1035 0 -1035 0 0 -55z
m2060 0 l0 -45 -1025 0 -1025 0 0 45 0 45 1025 0 1025 0 0 -45z"/>
<path d="M258 2163 c12 -2 32 -2 45 0 12 2 2 4 -23 4 -25 0 -35 -2 -22 -4z"/>
<path d="M1262 2161 c60 -9 77 -24 60 -51 -7 -11 -8 -20 -3 -20 5 0 13 10 17
22 10 32 -27 58 -80 57 l-41 -2 47 -6z"/>
<path d="M7182 2161 c61 -9 77 -24 59 -54 -13 -20 -13 -21 2 -8 38 31 -1 72
-68 70 l-40 -2 47 -6z"/>
<path d="M212 2148 c-31 -31 10 -69 73 -67 l40 2 -47 6 c-60 9 -77 24 -60 51
14 23 12 26 -6 8z"/>
<path d="M2037 2153 c-14 -13 -6 -53 12 -63 11 -5 36 -10 55 -10 36 0 36 0 36
-45 l0 -45 -460 2 c-253 2 -460 0 -460 -4 0 -5 209 -8 465 -8 l465 0 0 55 0
55 -39 0 c-22 0 -46 3 -55 6 -19 7 -21 50 -3 57 6 3 7 6 1 6 -6 1 -14 -2 -17
-6z"/>
<path d="M6132 2148 c-17 -17 -15 -33 5 -49 15 -13 15 -12 3 8 -11 18 -12 24
-1 37 16 19 10 21 -7 4z"/>
<path d="M753 2083 l347 -3 0 -130 0 -131 -345 3 c-190 2 -345 0 -345 -4 0 -5
158 -8 350 -8 l350 0 0 140 0 140 -352 -2 -353 -3 348 -2z"/>
<path d="M1238 2083 c12 -2 32 -2 45 0 12 2 2 4 -23 4 -25 0 -35 -2 -22 -4z"/>
<path d="M2230 1950 l0 -140 295 0 295 0 -2 98 -2 97 -3 -92 -4 -93 -284 0
-285 0 0 130 0 130 178 3 177 2 -182 3 -183 2 0 -140z"/>
<path d="M4850 2055 c0 -28 -5 -38 -22 -45 -14 -5 -17 -9 -7 -9 23 -1 39 20
39 51 l0 28 175 0 175 0 0 -130 0 -131 -290 3 c-160 2 -290 0 -290 -4 0 -5
133 -8 295 -8 l295 0 0 140 0 140 -185 0 -185 0 0 -35z"/>
<path d="M6340 1950 l0 -140 350 0 350 0 0 140 0 140 -350 0 -350 0 0 -140z
m690 0 l0 -130 -340 0 -340 0 0 130 0 130 340 0 340 0 0 -130z"/>
<path d="M6646 1974 c-20 -20 -20 -27 2 -47 31 -29 93 -17 92 18 0 5 -5 2 -11
-7 -12 -22 -62 -24 -79 -3 -28 33 46 63 80 33 12 -11 12 -10 1 5 -17 21 -64
22 -85 1z"/>
<path d="M7158 2083 c12 -2 32 -2 45 0 12 2 2 4 -23 4 -25 0 -35 -2 -22 -4z"/>
<path d="M3262 1908 l-2 -98 465 0 465 0 -2 98 -2 97 -3 -92 -4 -93 -454 0
-454 0 -4 93 -3 92 -2 -97z"/>
<path d="M4280 1905 l0 -95 125 0 125 0 -2 98 -2 97 -3 -92 -4 -93 -115 0
-115 0 3 90 c2 50 0 90 -4 90 -5 0 -8 -43 -8 -95z"/>
<path d="M716 1974 c-20 -20 -20 -27 2 -47 31 -29 93 -17 92 18 0 5 -5 2 -11
-7 -12 -22 -62 -24 -79 -3 -28 33 46 63 80 33 12 -11 12 -10 1 5 -17 21 -64
22 -85 1z"/>
<path d="M1207 1913 c-4 -3 -7 -28 -7 -55 l0 -48 48 0 c48 0 72 -12 72 -37 0
-8 -10 -18 -22 -23 -14 -5 -17 -9 -7 -9 8 -1 20 4 27 11 32 32 -2 68 -64 68
l-44 0 0 45 0 45 460 0 460 0 0 -45 0 -45 -44 0 c-30 0 -48 -6 -57 -17 -11
-15 -11 -16 1 -5 8 6 36 12 62 12 l48 0 0 55 0 55 -463 0 c-255 0 -467 -3
-470 -7z"/>
<path d="M5310 1865 l0 -55 48 2 47 1 -42 4 -43 4 0 45 0 44 455 0 455 0 0
-45 0 -45 -37 0 c-21 0 -45 -5 -53 -11 -12 -9 -12 -10 3 -5 10 3 36 6 58 6
l39 0 0 55 0 55 -465 0 -465 0 0 -55z"/>
<path d="M285 1823 c-59 -7 -74 -13 -80 -34 -7 -21 9 -49 28 -49 6 0 2 6 -9
14 -31 24 -7 50 50 54 25 2 46 7 46 13 0 5 -1 8 -2 8 -2 -1 -16 -4 -33 -6z"/>
<path d="M2920 1818 c0 -5 54 -8 120 -8 66 0 120 3 120 8 0 4 -54 7 -120 7
-66 0 -120 -3 -120 -7z"/>
<path d="M7180 1813 c68 -6 96 -43 48 -63 -14 -5 -17 -9 -7 -9 18 -1 39 18 39
35 0 27 -31 44 -78 42 l-47 -1 45 -4z"/>
<path d="M5417 1790 c4 -16 0 -27 -13 -37 -19 -14 -19 -15 1 -11 22 4 33 44
16 61 -7 7 -8 3 -4 -13z"/>
<path d="M6121 1779 c-1 -19 26 -45 36 -35 3 3 1 6 -6 6 -6 0 -16 10 -21 23
-6 15 -9 17 -9 6z"/>
<path d="M2023 1760 c2 -8 12 -16 23 -17 13 -2 15 -1 4 4 -8 3 -19 11 -23 17
-6 7 -7 6 -4 -4z"/>
<path d="M1100 1390 l0 -350 -347 -3 -348 -2 353 -3 352 -2 0 355 c0 195 -2
355 -5 355 -3 0 -5 -157 -5 -350z"/>
<path d="M1200 1690 l0 -50 470 0 470 0 0 50 c0 28 -3 50 -8 50 -4 0 -6 -20
-4 -45 l4 -45 -462 0 -462 0 4 45 c2 25 0 45 -4 45 -5 0 -8 -22 -8 -50z"/>
<path d="M2230 950 l0 -790 125 0 125 0 -2 793 -3 792 -2 -787 -3 -788 -115 0
-115 0 2 785 c2 432 0 785 -4 785 -5 0 -8 -355 -8 -790z"/>
<path d="M2570 1630 c0 -60 2 -110 4 -110 2 0 19 7 37 15 l34 16 -33 -7 -33
-6 3 101 c2 56 0 101 -4 101 -5 0 -8 -49 -8 -110z"/>
<path d="M2810 1639 c0 -101 0 -101 -22 -94 -13 4 -50 8 -83 10 l-60 4 60 -8
c33 -5 72 -13 88 -19 l27 -12 0 110 c0 61 -2 110 -5 110 -3 0 -5 -46 -5 -101z"/>
<path d="M3262 1601 l-2 -143 43 34 c59 47 92 67 156 94 31 13 49 23 41 24
-22 0 -143 -63 -189 -99 l-40 -32 -4 133 -3 133 -2 -144z"/>
<path d="M4180 1609 l0 -130 -64 46 c-61 43 -170 95 -198 95 -7 -1 19 -13 58
-29 71 -28 137 -68 187 -114 l27 -26 0 144 c0 80 -2 145 -5 145 -3 0 -5 -59
-5 -131z"/>
<path d="M4282 953 l3 -788 123 -3 122 -3 -2 793 -3 793 -2 -787 -3 -788 -115
0 -115 0 2 785 c2 432 0 785 -5 785 -4 0 -6 -354 -5 -787z"/>
<path d="M4972 953 l-2 -793 125 0 125 0 0 790 c0 435 -3 790 -7 790 -5 0 -7
-353 -5 -785 l2 -785 -115 0 -115 0 -3 788 -2 787 -3 -792z"/>
<path d="M5310 1690 l0 -50 465 0 465 0 -2 53 -2 52 -3 -47 -4 -48 -456 0
-455 0 4 45 c2 25 0 45 -4 45 -5 0 -8 -22 -8 -50z"/>
<path d="M6342 1388 l-2 -358 350 0 350 0 -2 358 -3 357 -2 -352 -3 -353 -340
0 -340 0 -3 353 -2 352 -3 -357z"/>
<path d="M667 1643 c51 -2 135 -2 185 0 51 1 10 3 -92 3 -102 0 -143 -2 -93
-3z"/>
<path d="M3708 1643 c12 -2 30 -2 40 0 9 3 -1 5 -23 4 -22 0 -30 -2 -17 -4z"/>
<path d="M6695 1640 c105 -3 197 -9 205 -13 8 -5 6 -1 -4 7 -17 13 -49 16
-205 14 l-186 -2 190 -6z"/>
<path d="M542 1628 c-8 -8 -12 -67 -12 -198 0 -184 4 -211 35 -210 5 0 2 5 -7
11 -16 9 -18 30 -18 199 0 169 2 190 18 199 9 6 12 11 7 11 -6 0 -16 -5 -23
-12z"/>
<path d="M964 1624 c24 -23 24 -365 0 -388 -8 -9 -11 -16 -5 -16 24 0 31 46
31 210 0 164 -7 210 -31 210 -6 0 -3 -7 5 -16z"/>
<path d="M3618 1633 c12 -2 30 -2 40 0 9 3 -1 5 -23 4 -22 0 -30 -2 -17 -4z"/>
<path d="M3791 1636 c2 -2 29 -6 59 -9 36 -4 46 -3 30 3 -25 8 -97 13 -89 6z"/>
<path d="M6472 1628 c-8 -8 -12 -67 -12 -198 0 -184 4 -211 35 -210 5 0 2 5
-7 11 -16 9 -18 30 -18 199 0 169 2 190 18 199 9 6 12 11 7 11 -6 0 -16 -5
-23 -12z"/>
<path d="M3535 1620 c-25 -11 1 -11 35 0 20 6 21 8 5 8 -11 0 -29 -3 -40 -8z"/>
<path d="M6912 1433 c-2 -150 -5 -184 -18 -197 -8 -9 -11 -16 -5 -16 25 0 31
45 28 217 l-2 178 -3 -182z"/>
<path d="M632 1518 l3 -53 123 -3 122 -3 0 56 0 55 -126 0 -125 0 3 -52z m238
-3 l0 -46 -112 3 -113 3 -3 43 -3 42 115 0 116 0 0 -45z"/>
<path d="M1200 1301 l0 -270 51 -3 c63 -4 87 -29 54 -55 -11 -8 -14 -13 -6
-11 8 2 19 12 25 21 17 27 -19 57 -71 57 l-43 0 0 260 0 260 460 0 460 0 0
-695 0 -695 -460 0 -460 0 2 395 c2 217 0 395 -5 395 -4 0 -6 -179 -5 -397 l3
-398 468 -3 467 -2 0 705 0 705 -470 0 -470 0 0 -269z"/>
<path d="M3641 1566 c2 -2 54 -5 114 -8 61 -3 97 -1 80 2 -31 8 -202 13 -194
6z"/>
<path d="M5310 865 l0 -705 465 0 465 0 -2 403 -3 402 -2 -397 -3 -398 -455 0
-455 0 0 695 0 695 455 0 455 0 0 -260 0 -260 -39 0 c-39 0 -71 -20 -71 -44 0
-14 20 -36 34 -36 5 0 1 6 -10 14 -31 24 -7 50 50 54 l46 3 0 270 0 269 -465
0 -465 0 0 -705z"/>
<path d="M6562 1518 l3 -53 123 -3 c67 -1 122 1 122 5 0 4 -53 8 -117 8 l-118
0 -3 42 -3 42 123 4 123 3 -128 2 -128 2 3 -52z"/>
<path d="M3598 1553 c6 -2 18 -2 25 0 6 3 1 5 -13 5 -14 0 -19 -2 -12 -5z"/>
<path d="M4723 1553 c15 -2 39 -2 55 0 15 2 2 4 -28 4 -30 0 -43 -2 -27 -4z"/>
<path d="M3515 1532 c-98 -41 -185 -111 -214 -174 -11 -22 -11 -22 6 2 58 79
127 132 223 168 30 12 48 21 40 21 -8 0 -33 -8 -55 -17z"/>
<path d="M3914 1530 c28 -11 51 -18 53 -16 5 5 -74 36 -90 36 -6 -1 10 -10 37
-20z"/>
<path d="M4648 1543 c-10 -2 -18 -9 -18 -14 0 -6 7 -6 18 -1 9 5 24 12 32 15
13 5 13 5 0 5 -8 0 -23 -2 -32 -5z"/>
<path d="M4835 1537 c17 -8 32 -13 34 -11 7 7 -3 12 -34 19 l-30 6 30 -14z"/>
<path d="M3980 1507 c0 -2 22 -18 49 -36 50 -32 95 -81 124 -136 9 -16 16 -25
17 -19 0 21 -59 102 -101 136 -42 34 -89 63 -89 55z"/>
<path d="M2611 1454 c-17 -14 -31 -30 -31 -36 0 -6 9 1 21 16 11 14 35 30 52
35 24 7 26 9 10 10 -12 1 -35 -11 -52 -25z"/>
<path d="M2740 1470 c59 -14 70 -38 70 -156 l0 -104 -115 0 -114 0 -4 95 -3
95 0 -97 1 -98 123 -3 122 -3 0 111 c0 110 0 112 -29 141 -20 19 -39 29 -58
28 -26 -1 -26 -2 7 -9z"/>
<path d="M4661 1454 c-18 -15 -31 -35 -30 -47 1 -21 2 -21 6 -2 8 30 33 54 67
64 24 7 26 9 9 10 -12 1 -35 -11 -52 -25z"/>
<path d="M4787 1470 c39 -9 62 -26 73 -55 7 -15 9 -16 9 -3 1 24 -56 68 -87
67 -25 -1 -25 -2 5 -9z"/>
<path d="M1463 1463 c-7 -2 -13 -9 -13 -15 0 -7 5 -6 14 1 9 8 75 11 217 9
l204 -3 3 -189 c2 -130 -1 -193 -9 -202 -14 -17 -377 -20 -412 -3 -21 10 -21
10 -3 -5 29 -24 397 -23 420 0 13 13 16 46 16 203 0 132 -4 191 -12 199 -9 9
-69 12 -212 11 -111 0 -207 -3 -213 -6z"/>
<path d="M5562 1458 c-9 -9 -12 -68 -12 -205 0 -180 1 -193 19 -203 12 -6 97
-10 206 -10 109 0 194 4 206 10 18 10 19 23 19 203 0 137 -3 196 -12 205 -17
17 -409 17 -426 0z m426 -197 c2 -149 -1 -196 -10 -203 -22 -13 -392 -10 -406
4 -13 13 -18 379 -5 392 4 3 99 5 212 4 l206 -3 3 -194z"/>
<path d="M5657 1393 c-4 -3 -7 -28 -7 -55 l0 -48 125 0 125 0 0 55 0 55 -118
0 c-65 0 -122 -3 -125 -7z m233 -48 l0 -45 -115 0 -115 0 0 45 0 45 115 0 115
0 0 -45z"/>
<path d="M5650 1170 c0 -27 3 -50 8 -50 4 0 7 23 7 50 0 28 -3 50 -7 50 -5 0
-8 -22 -8 -50z"/>
<path d="M5893 1170 c0 -30 2 -43 4 -27 2 15 2 39 0 55 -2 15 -4 2 -4 -28z"/>
<path d="M637 1393 c-4 -3 -7 -28 -7 -55 l0 -48 125 0 125 0 0 55 0 55 -118 0
c-65 0 -122 -3 -125 -7z m233 -48 l0 -45 -115 0 -115 0 0 45 0 45 115 0 115 0
0 -45z"/>
<path d="M1550 1345 l0 -55 126 0 125 0 -3 53 -3 52 -122 3 -123 3 0 -56z
m240 0 l0 -45 -115 0 -115 0 0 45 0 45 115 0 115 0 0 -45z"/>
<path d="M6567 1393 c-4 -3 -7 -28 -7 -55 l0 -48 128 2 127 2 -122 3 -123 4 0
45 0 45 120 -3 c66 -2 120 0 120 5 0 9 -234 10 -243 0z"/>
<path d="M3271 1299 c-8 -22 -11 -204 -11 -585 l0 -554 465 0 465 0 -1 553 c0
303 -3 560 -7 569 -4 10 -6 -237 -4 -547 l3 -565 -456 0 -455 0 0 549 c0 352
4 559 10 577 6 15 9 29 6 31 -2 2 -9 -10 -15 -28z"/>
<path d="M1553 1170 c0 -30 2 -43 4 -27 2 15 2 39 0 55 -2 15 -4 2 -4 -28z"/>
<path d="M1785 1170 c0 -27 3 -50 8 -50 4 0 7 23 7 50 0 28 -3 50 -7 50 -5 0
-8 -22 -8 -50z"/>
<path d="M4630 1208 c0 -5 54 -8 120 -8 66 0 120 3 120 8 0 4 -54 7 -120 7
-66 0 -120 -3 -120 -7z"/>
<path d="M2574 1127 c-2 -7 -3 -58 -2 -113 l3 -101 30 14 c30 14 30 14 3 8
l-28 -5 0 100 0 100 115 0 115 0 0 -101 c0 -93 -1 -100 -17 -94 -10 5 -49 9
-88 11 l-70 2 70 -7 c39 -4 80 -13 93 -19 l22 -13 0 116 0 115 -120 0 c-91 0
-122 -3 -126 -13z"/>
<path d="M4630 1133 c0 -5 54 -8 120 -8 66 0 120 3 120 8 0 4 -54 7 -120 7
-66 0 -120 -3 -120 -7z"/>
<path d="M216 1024 c-9 -8 -16 -21 -16 -28 0 -14 20 -36 34 -36 5 0 1 6 -10
14 -31 24 -7 50 52 57 l49 6 -47 1 c-31 1 -52 -3 -62 -14z"/>
<path d="M7184 1031 c60 -7 83 -33 51 -58 -11 -8 -14 -13 -6 -11 29 8 36 35
17 57 -15 16 -30 21 -65 19 l-46 -1 49 -6z"/>
<path d="M1100 565 l0 -396 -345 3 c-190 2 -345 0 -345 -4 0 -5 158 -8 350 -8
l350 0 0 400 c0 220 -2 400 -5 400 -3 0 -5 -178 -5 -395z"/>
<path d="M6342 563 l-2 -403 350 0 350 0 -2 403 -3 402 -2 -397 -3 -398 -340
0 -340 0 -3 397 -2 398 -3 -402z"/>
<path d="M4718 943 c17 -2 47 -2 65 0 17 2 3 4 -33 4 -36 0 -50 -2 -32 -4z"/>
<path d="M4830 930 c8 -5 22 -9 30 -9 10 0 8 3 -5 9 -27 12 -43 12 -25 0z"/>
<path d="M2683 873 c9 -2 23 -2 30 0 6 3 -1 5 -18 5 -16 0 -22 -2 -12 -5z"/>
<path d="M4738 873 c6 -2 18 -2 25 0 6 3 1 5 -13 5 -14 0 -19 -2 -12 -5z"/>
<path d="M2750 859 c13 -6 32 -15 40 -22 9 -7 5 -2 -8 11 -13 12 -31 22 -40
21 -11 0 -9 -4 8 -10z"/>
<path d="M4661 844 c-18 -15 -31 -35 -30 -47 1 -21 2 -21 6 -2 7 29 24 46 58
61 17 7 23 13 13 14 -9 0 -30 -12 -47 -26z"/>
<path d="M4795 863 c26 -6 55 -32 66 -58 7 -18 8 -18 8 -2 1 24 -47 67 -73 66
-20 -1 -20 -2 -1 -6z"/>
<path d="M542 848 c-8 -8 -12 -67 -12 -199 0 -183 1 -188 22 -203 19 -13 54
-16 208 -14 l185 2 -190 6 c-104 3 -196 9 -202 13 -10 6 -13 57 -13 197 0 169
2 190 18 199 9 6 12 11 7 11 -6 0 -16 -5 -23 -12z"/>
<path d="M964 844 c24 -23 24 -365 0 -388 -8 -9 -11 -16 -5 -16 24 0 31 46 31
210 0 164 -7 210 -31 210 -6 0 -3 -7 5 -16z"/>
<path d="M1455 849 c-11 -16 -1 -19 13 -3 7 8 8 14 3 14 -5 0 -13 -5 -16 -11z"/>
<path d="M1873 849 c15 -9 17 -30 17 -199 0 -169 -2 -190 -17 -199 -10 -6 -13
-11 -8 -11 31 -1 35 26 35 210 0 184 -4 211 -34 210 -6 0 -3 -5 7 -11z"/>
<path d="M2600 840 c-11 -11 -20 -25 -20 -32 0 -6 1 -9 3 -7 1 2 13 16 26 32
28 31 21 37 -9 7z"/>
<path d="M5562 848 c-8 -8 -12 -67 -12 -199 0 -183 1 -188 22 -203 19 -13 54
-16 208 -14 l185 2 -190 6 c-104 3 -196 9 -202 13 -10 6 -13 57 -13 197 0 169
2 190 18 199 9 6 12 11 7 11 -6 0 -16 -5 -23 -12z"/>
<path d="M5973 854 c15 -5 17 -24 17 -204 0 -125 -4 -200 -10 -203 -6 -3 -5
-4 2 -3 10 2 13 49 13 207 0 196 -1 204 -20 206 -16 1 -16 1 -2 -3z"/>
<path d="M6472 848 c-8 -8 -12 -67 -12 -199 0 -183 1 -188 22 -203 19 -13 54
-16 208 -14 l185 2 -190 6 c-104 3 -196 9 -202 13 -10 6 -13 57 -13 197 0 169
2 190 18 199 9 6 12 11 7 11 -6 0 -16 -5 -23 -12z"/>
<path d="M6894 844 c13 -13 16 -45 16 -194 0 -149 -3 -181 -16 -194 -8 -9 -11
-16 -5 -16 24 0 31 46 31 210 0 164 -7 210 -31 210 -6 0 -3 -7 5 -16z"/>
<path d="M2814 705 c0 -60 1 -84 3 -52 2 32 2 81 0 110 -2 29 -3 3 -3 -58z"/>
<path d="M630 650 l0 -140 125 0 125 0 0 140 0 140 -125 0 -125 0 0 -140z
m240 0 l0 -130 -115 0 -115 0 0 130 0 130 115 0 115 0 0 -130z"/>
<path d="M1550 735 l0 -56 123 3 122 3 3 53 3 52 -125 0 -126 0 0 -55z m240 0
l0 -45 -115 0 -115 0 0 45 0 45 115 0 115 0 0 -45z"/>
<path d="M2572 698 c-1 -54 1 -98 6 -98 4 0 6 30 4 67 -5 119 -9 131 -10 31z"/>
<path d="M5652 738 l3 -53 123 -3 122 -3 0 56 0 55 -126 0 -125 0 3 -52z m238
-3 l0 -45 -115 0 -115 0 0 45 0 45 115 0 115 0 0 -45z"/>
<path d="M6560 650 l0 -140 128 2 127 2 -122 3 -123 4 0 129 0 129 123 4 122
3 -127 2 -128 2 0 -140z"/>
<path d="M1550 565 l0 -55 126 0 125 0 -3 53 -3 52 -122 3 -123 3 0 -56z m238
-2 l3 -43 -115 0 -116 0 0 45 0 46 113 -3 112 -3 3 -42z"/>
<path d="M5657 613 c-4 -3 -7 -28 -7 -55 l0 -48 125 0 125 0 0 55 0 55 -118 0
c-65 0 -122 -3 -125 -7z m233 -48 l0 -45 -115 0 -115 0 0 45 0 45 115 0 115 0
0 -45z"/>
<path d="M2570 345 l0 -185 125 0 125 0 0 185 0 185 -125 0 -125 0 0 -185z
m240 0 l0 -175 -115 0 -115 0 0 175 0 175 115 0 115 0 0 -175z"/>
<path d="M4688 523 c34 -2 90 -2 125 0 34 2 6 3 -63 3 -69 0 -97 -1 -62 -3z"/>
<path d="M1450 461 c0 -10 19 -25 25 -20 1 2 -3 10 -11 17 -8 7 -14 8 -14 3z"/>
<path d="M1578 433 c50 -2 134 -2 185 0 50 1 9 3 -93 3 -102 0 -143 -2 -92 -3z"/>
<path d="M211 171 c-84 -5 -106 -9 -115 -23 -8 -13 -8 -23 0 -35 11 -17 196
-18 3634 -21 2670 -1 3626 1 3636 9 20 16 17 47 -5 59 -11 5 -66 9 -123 8
l-103 -2 95 -3 c126 -4 142 -8 138 -36 l-3 -22 -3630 0 -3630 0 0 25 c0 25 0
25 108 28 60 1 107 7 107 12 0 6 -1 9 -2 8 -2 -1 -50 -4 -107 -7z"/>
<path d="M2920 168 c0 -5 54 -8 120 -8 66 0 120 3 120 8 0 4 -54 7 -120 7 -66
0 -120 -3 -120 -7z"/>
<path d="M4630 168 c0 -5 55 -7 123 -6 124 2 109 5 -41 10 -45 2 -82 0 -82 -4z"/>
</g>
</svg>
