<?xml version="1.0" encoding="UTF-8"?>
<svg version="1.1" xmlns="http://www.w3.org/2000/svg" width="512" height="512">
<path d="M0 0 C0.98484375 -0.00128906 1.9696875 -0.00257812 2.984375 -0.00390625 C4.02078125 -0.00003906 5.0571875 0.00382812 6.125 0.0078125 C7.67960937 0.00201172 7.67960937 0.00201172 9.265625 -0.00390625 C10.25046875 -0.00261719 11.2353125 -0.00132813 12.25 0 C13.16007813 0.00112793 14.07015625 0.00225586 15.0078125 0.00341797 C17.125 0.1328125 17.125 0.1328125 18.125 1.1328125 C18.21351529 3.72640572 18.24025945 6.29320941 18.22265625 8.88671875 C18.22053383 10.04988869 18.22053383 10.04988869 18.21836853 11.23655701 C18.21275345 13.72284744 18.20019846 16.2090491 18.1875 18.6953125 C18.18248694 20.37695183 18.1779237 22.05859256 18.17382812 23.74023438 C18.16277913 27.87112816 18.14550445 32.00195526 18.125 36.1328125 C18.90746094 36.12121094 19.68992187 36.10960937 20.49609375 36.09765625 C21.50800781 36.08863281 22.51992188 36.07960937 23.5625 36.0703125 C24.57183594 36.05871094 25.58117187 36.04710937 26.62109375 36.03515625 C29.125 36.1328125 29.125 36.1328125 30.125 37.1328125 C30.21151611 38.54851373 30.23204904 39.9684075 30.22265625 41.38671875 C30.21943359 42.24072266 30.21621094 43.09472656 30.21289062 43.97460938 C30.20451172 44.87244141 30.19613281 45.77027344 30.1875 46.6953125 C30.18298828 47.59701172 30.17847656 48.49871094 30.17382812 49.42773438 C30.16200225 51.66282564 30.1455222 53.89778687 30.125 56.1328125 C31.8265625 56.101875 31.8265625 56.101875 33.5625 56.0703125 C37.125 56.1328125 37.125 56.1328125 38.125 57.1328125 C38.2241657 58.75538794 38.25579777 60.38221081 38.2578125 62.0078125 C38.25910156 62.99265625 38.26039063 63.9775 38.26171875 64.9921875 C38.25785156 66.02859375 38.25398437 67.065 38.25 68.1328125 C38.25386719 69.16921875 38.25773438 70.205625 38.26171875 71.2734375 C38.25978516 72.75070313 38.25978516 72.75070313 38.2578125 74.2578125 C38.25668457 75.16789062 38.25555664 76.07796875 38.25439453 77.015625 C38.125 79.1328125 38.125 79.1328125 37.125 80.1328125 C35.10535801 80.20525303 33.08332876 80.21658438 31.0625 80.1953125 C29.95777344 80.18628906 28.85304688 80.17726563 27.71484375 80.16796875 C26.86019531 80.15636719 26.00554687 80.14476563 25.125 80.1328125 C25.92219572 86.44211413 26.72209652 92.75106901 27.52368164 99.05981445 C27.79477921 101.19580739 28.06530822 103.33187259 28.33520508 105.46801758 C30.13509863 119.70963339 32.04794515 133.92888829 34.125 148.1328125 C35.58732096 148.12312826 37.04964193 148.11344401 38.51196289 148.10375977 C39.80555222 148.09543625 39.80555222 148.09543625 41.12527466 148.08694458 C42.93045841 148.07462567 44.73562314 148.0594458 46.54077148 148.04272461 C47.30977783 148.04022705 48.07878418 148.03772949 48.87109375 148.03515625 C49.66185303 148.02991943 50.4526123 148.02468262 51.26733398 148.01928711 C53.125 148.1328125 53.125 148.1328125 54.125 149.1328125 C54.84002196 155.71101451 52.71095539 161.13007267 50.125 167.1328125 C49.125 168.1328125 49.125 168.1328125 46.62109375 168.23046875 C42.37304688 168.18164062 42.37304688 168.18164062 38.125 168.1328125 C38.36734375 169.03362549 38.6096875 169.93443848 38.859375 170.86254883 C40.63505598 177.48848534 42.38361027 184.11821557 44.0625 190.76953125 C49.79170069 213.31230002 56.34522233 235.71634205 64.78759766 257.41162109 C66.125 261.1328125 66.125 261.1328125 66.125 264.1328125 C67.1622522 264.12495728 67.1622522 264.12495728 68.22045898 264.11694336 C71.33446352 264.0962375 74.44845361 264.08317287 77.5625 264.0703125 C78.65111328 264.06193359 79.73972656 264.05355469 80.86132812 264.04492188 C81.89580078 264.04169922 82.93027344 264.03847656 83.99609375 264.03515625 C84.95443115 264.02991943 85.91276855 264.02468262 86.90014648 264.01928711 C89.125 264.1328125 89.125 264.1328125 90.125 265.1328125 C90.22471786 267.04739532 90.25580589 268.96563567 90.2578125 270.8828125 C90.25910156 272.048125 90.26039063 273.2134375 90.26171875 274.4140625 C90.25785156 275.64125 90.25398437 276.8684375 90.25 278.1328125 C90.25386719 279.36 90.25773438 280.5871875 90.26171875 281.8515625 C90.25978516 283.59953125 90.25978516 283.59953125 90.2578125 285.3828125 C90.25668457 286.46046875 90.25555664 287.538125 90.25439453 288.6484375 C90.125 291.1328125 90.125 291.1328125 89.125 292.1328125 C87.44316052 292.36568258 85.7537584 292.54545416 84.0625 292.6953125 C82.68384766 292.82099609 82.68384766 292.82099609 81.27734375 292.94921875 C80.56707031 293.00980469 79.85679687 293.07039063 79.125 293.1328125 C101.69634381 340.06997689 126.23306008 384.95046197 156.6875 427.3203125 C157.22987305 428.07505859 157.77224609 428.82980469 158.33105469 429.60742188 C160.87250978 433.11741464 163.44895715 436.57752224 166.171875 439.94921875 C166.87461548 440.82574097 166.87461548 440.82574097 167.59155273 441.7199707 C168.84582765 443.26955649 170.11945946 444.80341879 171.39453125 446.3359375 C173.3987938 449.5753325 173.5739477 451.38977869 173.125 455.1328125 C172.125 456.1328125 172.125 456.1328125 169.30931091 456.25306702 C168.05022415 456.25084641 166.79113739 456.24862579 165.49389648 456.24633789 C164.80124695 456.24648392 164.10859741 456.24662994 163.3949585 456.2467804 C161.09530554 456.24608124 158.79573263 456.23828878 156.49609375 456.23046875 C154.90568588 456.22860458 153.31527743 456.22718067 151.72486877 456.22618103 C147.5310407 456.22235579 143.33724705 456.21252545 139.14343262 456.20147705 C134.86711086 456.19126307 130.59078356 456.18668344 126.31445312 456.18164062 C117.91795292 456.17090319 109.52148074 456.15382669 101.125 456.1328125 C94.64740706 444.63630199 88.39076837 433.06604456 82.5 421.2578125 C82.12258667 420.50377136 81.74517334 419.74973022 81.35632324 418.97283936 C73.98580425 404.21372695 67.1838613 389.22386993 60.578125 374.109375 C60.28264771 373.43568878 59.98717041 372.76200256 59.68273926 372.06790161 C58.25021357 368.78493861 56.85923767 365.49314081 55.53955078 362.16308594 C55.28332947 361.52954193 55.02710815 360.89599792 54.76312256 360.24325562 C54.0745312 358.53314106 53.40255292 356.81636294 52.73193359 355.09912109 C47.49269287 345.42777882 34.30734522 339.67655977 24.3125 336.13671875 C6.77774499 330.93108836 -9.8144659 333.66045811 -25.78515625 342.14794922 C-35.29683951 347.52146432 -40.0153494 353.45426542 -43.91552734 363.68798828 C-45.88165789 368.69786902 -48.1234169 373.59237786 -50.3125 378.5078125 C-51.06660156 380.21517578 -51.06660156 380.21517578 -51.8359375 381.95703125 C-58.1882439 396.25362256 -65.07706506 410.29118283 -71.98583984 424.32519531 C-72.81402626 426.008856 -73.6395416 427.69382986 -74.46484375 429.37890625 C-75.80426621 432.11219923 -77.15011843 434.84217268 -78.5 437.5703125 C-78.86496582 438.31337646 -79.22993164 439.05644043 -79.60595703 439.82202148 C-80.28135153 441.17483636 -80.97822182 442.51728113 -81.7023468 443.84465027 C-82.93218068 446.13756269 -82.93218068 446.13756269 -83.83802795 448.69406128 C-85.20292934 451.77082551 -86.4305749 453.79862169 -88.875 456.1328125 C-94.21872216 457.57494266 -99.47855225 457.32362762 -104.95703125 457.14453125 C-106.53786024 457.12840344 -108.11873837 457.11657046 -109.69963074 457.10884094 C-113.84855259 457.07642692 -117.99398022 456.98312517 -122.14160156 456.87774658 C-126.37457131 456.78225309 -130.60801369 456.74960691 -134.84179688 456.70898438 C-141.00818627 456.63764949 -147.17400337 456.5513371 -153.33911133 456.4050293 C-154.58010086 456.37708786 -155.82109039 456.34914642 -157.09968567 456.32035828 C-159.875 456.1328125 -159.875 456.1328125 -160.875 455.1328125 C-161.41194085 452.08392228 -161.36606757 449.96353333 -159.76806641 447.26025391 C-158.13483346 445.09910728 -156.42992866 443.01944828 -154.6875 440.9453125 C-153.38745581 439.3369372 -152.09200079 437.72484339 -150.80078125 436.109375 C-150.14158691 435.28469727 -149.48239258 434.46001953 -148.80322266 433.61035156 C-144.05557872 427.51018814 -139.82227804 421.034801 -135.53125 414.60986328 C-133.83191314 412.06837275 -132.11995182 409.53572855 -130.40625 407.00390625 C-105.96705928 370.78026442 -85.56539287 332.58561012 -66.875 293.1328125 C-67.58527344 293.07222656 -68.29554688 293.01164062 -69.02734375 292.94921875 C-69.94644531 292.86542969 -70.86554688 292.78164063 -71.8125 292.6953125 C-72.72902344 292.61410156 -73.64554687 292.53289062 -74.58984375 292.44921875 C-76.875 292.1328125 -76.875 292.1328125 -77.875 291.1328125 C-77.97471786 289.21822968 -78.00580589 287.29998933 -78.0078125 285.3828125 C-78.00910156 284.2175 -78.01039063 283.0521875 -78.01171875 281.8515625 C-78.00785156 280.624375 -78.00398438 279.3971875 -78 278.1328125 C-78.00386719 276.905625 -78.00773437 275.6784375 -78.01171875 274.4140625 C-78.01042969 273.24875 -78.00914062 272.0834375 -78.0078125 270.8828125 C-78.00668457 269.80515625 -78.00555664 268.7275 -78.00439453 267.6171875 C-77.875 265.1328125 -77.875 265.1328125 -76.875 264.1328125 C-75.16727642 264.04567419 -73.45601351 264.02581243 -71.74609375 264.03515625 C-70.19438477 264.03999023 -70.19438477 264.03999023 -68.61132812 264.04492188 C-66.9784082 264.05749023 -66.9784082 264.05749023 -65.3125 264.0703125 C-63.6737793 264.07708008 -63.6737793 264.07708008 -62.00195312 264.08398438 C-59.29291505 264.09581424 -56.58398401 264.11229707 -53.875 264.1328125 C-53.78347656 263.35550781 -53.69195312 262.57820313 -53.59765625 261.77734375 C-52.63793152 256.93721851 -50.98095457 252.45626073 -49.3125 247.8203125 C-41.81473943 226.49676245 -35.45884532 205.21868333 -30.11181641 183.26196289 C-29.90371841 182.40868408 -29.69562042 181.55540527 -29.48121643 180.67626953 C-29.08772788 179.0580151 -28.69677744 177.43914082 -28.30870056 175.81958008 C-26.98404524 170.35090298 -26.98404524 170.35090298 -25.875 168.1328125 C-29.505 168.1328125 -33.135 168.1328125 -36.875 168.1328125 C-42.14431567 156.40433568 -42.14431567 156.40433568 -41.875 149.1328125 C-40.875 148.1328125 -40.875 148.1328125 -39.01733398 148.01928711 C-38.22657471 148.02452393 -37.43581543 148.02976074 -36.62109375 148.03515625 C-35.34008789 148.03999023 -35.34008789 148.03999023 -34.03320312 148.04492188 C-33.13537109 148.05330078 -32.23753906 148.06167969 -31.3125 148.0703125 C-30.41080078 148.07482422 -29.50910156 148.07933594 -28.58007812 148.08398438 C-26.34498686 148.09581025 -24.11002563 148.1122903 -21.875 148.1328125 C-18.5787778 125.50874191 -15.4072695 102.85659931 -12.875 80.1328125 C-13.72964844 80.14441406 -14.58429688 80.15601562 -15.46484375 80.16796875 C-17.12193359 80.18150391 -17.12193359 80.18150391 -18.8125 80.1953125 C-19.91464844 80.20691406 -21.01679688 80.21851562 -22.15234375 80.23046875 C-24.875 80.1328125 -24.875 80.1328125 -25.875 79.1328125 C-25.9741657 77.51023706 -26.00579777 75.88341419 -26.0078125 74.2578125 C-26.00910156 73.27296875 -26.01039063 72.288125 -26.01171875 71.2734375 C-26.00785156 70.23703125 -26.00398437 69.200625 -26 68.1328125 C-26.00386719 67.09640625 -26.00773438 66.06 -26.01171875 64.9921875 C-26.00978516 63.51492187 -26.00978516 63.51492187 -26.0078125 62.0078125 C-26.00668457 61.09773438 -26.00555664 60.18765625 -26.00439453 59.25 C-25.875 57.1328125 -25.875 57.1328125 -24.875 56.1328125 C-22.54202567 56.09188313 -20.20794775 56.09039527 -17.875 56.1328125 C-17.88023682 55.56248291 -17.88547363 54.99215332 -17.89086914 54.40454102 C-17.91158221 51.83480927 -17.9246419 49.26509503 -17.9375 46.6953125 C-17.94587891 45.79748047 -17.95425781 44.89964844 -17.96289062 43.97460938 C-17.96611328 43.12060547 -17.96933594 42.26660156 -17.97265625 41.38671875 C-17.97789307 40.59595947 -17.98312988 39.8052002 -17.98852539 38.99047852 C-17.875 37.1328125 -17.875 37.1328125 -16.875 36.1328125 C-15.02212498 36.06054748 -13.16666122 36.0490003 -11.3125 36.0703125 C-10.30058594 36.07933594 -9.28867188 36.08835938 -8.24609375 36.09765625 C-7.46363281 36.10925781 -6.68117187 36.12085938 -5.875 36.1328125 C-5.88023682 35.07779541 -5.88547363 34.02277832 -5.89086914 32.93579102 C-5.90891901 29.0352462 -5.92043195 25.1347051 -5.92993164 21.23413086 C-5.9349719 19.54336934 -5.94180405 17.85261221 -5.95043945 16.16186523 C-5.96251857 13.73680543 -5.96823123 11.31180306 -5.97265625 8.88671875 C-5.97781754 8.12629776 -5.98297882 7.36587677 -5.98829651 6.58241272 C-5.98849238 4.7654868 -5.93697277 2.94868123 -5.875 1.1328125 C-4.22105883 -0.52112867 -2.27184587 0.00281567 0 0 Z M2.125 8.1328125 C2.125 17.3728125 2.125 26.6128125 2.125 36.1328125 C4.765 36.1328125 7.405 36.1328125 10.125 36.1328125 C10.125 26.8928125 10.125 17.6528125 10.125 8.1328125 C7.485 8.1328125 4.845 8.1328125 2.125 8.1328125 Z M-9.875 44.1328125 C-9.875 48.0928125 -9.875 52.0528125 -9.875 56.1328125 C0.685 56.1328125 11.245 56.1328125 22.125 56.1328125 C22.125 52.1728125 22.125 48.2128125 22.125 44.1328125 C11.565 44.1328125 1.005 44.1328125 -9.875 44.1328125 Z M-17.875 64.1328125 C-17.875 66.7728125 -17.875 69.4128125 -17.875 72.1328125 C-2.035 72.1328125 13.805 72.1328125 30.125 72.1328125 C30.125 69.4928125 30.125 66.8528125 30.125 64.1328125 C14.285 64.1328125 -1.555 64.1328125 -17.875 64.1328125 Z M-3.875 80.1328125 C-4.04104736 81.51766846 -4.20709473 82.90252441 -4.37817383 84.3293457 C-5.00646539 89.56138474 -5.6394343 94.79284982 -6.27368164 100.02416992 C-6.54542781 102.27076527 -6.81597396 104.51750616 -7.08520508 106.7644043 C-8.74494154 120.60790451 -10.60809996 134.37483961 -12.875 148.1328125 C-0.335 148.1328125 12.205 148.1328125 25.125 148.1328125 C24.72667969 145.48636719 24.32835937 142.83992188 23.91796875 140.11328125 C20.93248705 120.15054652 18.12860968 100.22163585 16.125 80.1328125 C9.525 80.1328125 2.925 80.1328125 -3.875 80.1328125 Z M-31.875 156.1328125 C-31.545 157.4528125 -31.215 158.7728125 -30.875 160.1328125 C-6.455 160.1328125 17.965 160.1328125 43.125 160.1328125 C43.455 158.8128125 43.785 157.4928125 44.125 156.1328125 C19.045 156.1328125 -6.035 156.1328125 -31.875 156.1328125 Z M-16.875 168.1328125 C-17.54144531 170.90300781 -18.20789063 173.67320312 -18.89453125 176.52734375 C-23.3619938 194.93496835 -27.93931724 213.26487212 -33.6875 231.3203125 C-33.90548248 232.0068692 -34.12346497 232.6934259 -34.34805298 233.40078735 C-37.64170658 243.72189878 -41.23984123 253.92783395 -44.875 264.1328125 C-35.965 264.1328125 -27.055 264.1328125 -17.875 264.1328125 C-4.10049055 216.84128987 -4.10049055 216.84128987 1.125 168.1328125 C-4.815 168.1328125 -10.755 168.1328125 -16.875 168.1328125 Z M11.125 168.1328125 C13.23945575 190.2384862 17.24553034 211.93957571 22.1875 233.5703125 C22.35308411 234.29789764 22.51866821 235.02548279 22.68927002 235.77511597 C24.87409272 245.32515861 27.36118353 254.73337431 30.125 264.1328125 C39.035 264.1328125 47.945 264.1328125 57.125 264.1328125 C55.68125 260.0490625 54.2375 255.9653125 52.75 251.7578125 C43.21911393 224.30218334 35.69472665 196.43035018 29.125 168.1328125 C23.185 168.1328125 17.245 168.1328125 11.125 168.1328125 Z M5.125 200.1328125 C4.94960693 201.05167236 4.77421387 201.97053223 4.59350586 202.91723633 C0.90135459 222.13388501 -3.11734233 241.11464123 -8.34350586 259.98266602 C-8.95498903 262.08726242 -8.95498903 262.08726242 -8.875 264.1328125 C1.025 264.1328125 10.925 264.1328125 21.125 264.1328125 C20.55007813 261.70679688 19.97515625 259.28078125 19.3828125 256.78125 C17.36501004 248.22574256 15.421801 239.65462855 13.51513672 231.07373047 C12.99546748 228.7374355 12.47238555 226.40192018 11.94921875 224.06640625 C10.1758017 216.11467366 8.48012093 208.16909694 7.125 200.1328125 C6.465 200.1328125 5.805 200.1328125 5.125 200.1328125 Z M-69.875 272.1328125 C-69.875 276.0928125 -69.875 280.0528125 -69.875 284.1328125 C-19.715 284.1328125 30.445 284.1328125 82.125 284.1328125 C82.125 280.1728125 82.125 276.2128125 82.125 272.1328125 C31.965 272.1328125 -18.195 272.1328125 -69.875 272.1328125 Z M-55.875 292.1328125 C-59.90761174 300.12194897 -63.88655106 308.12252778 -67.71044922 316.21362305 C-78.60489824 339.23203185 -90.61609713 361.3889849 -103.875 383.1328125 C-104.51759766 384.18952148 -105.16019531 385.24623047 -105.82226562 386.33496094 C-117.18184928 404.95237868 -129.49608748 422.73513245 -142.52172852 440.2199707 C-143.35595337 441.34085083 -143.35595337 441.34085083 -144.20703125 442.484375 C-144.94530151 443.47171631 -144.94530151 443.47171631 -145.69848633 444.47900391 C-146.93975603 446.1339329 -146.93975603 446.1339329 -147.875 448.1328125 C-130.385 448.1328125 -112.895 448.1328125 -94.875 448.1328125 C-71.632701 405.41125339 -51.5131698 361.43028645 -34.75 315.7578125 C-34.30076172 314.53489502 -33.85152344 313.31197754 -33.38867188 312.05200195 C-30.99084425 305.44186155 -28.9022346 298.89026117 -26.875 292.1328125 C-36.445 292.1328125 -46.015 292.1328125 -55.875 292.1328125 Z M-17.875 292.1328125 C-19.36 297.5778125 -19.36 297.5778125 -20.875 303.1328125 C-15.47055126 302.48852252 -15.47055126 302.48852252 -10.09912109 301.62353516 C-4.78804168 300.81517005 0.51231374 300.94833203 5.875 300.9453125 C7.00421875 300.93306641 8.1334375 300.92082031 9.296875 300.90820312 C15.41555957 300.89758041 21.05604221 301.26437374 27.01269531 302.7019043 C29.41891175 303.2660674 29.41891175 303.2660674 33.125 303.1328125 C32.135 299.5028125 31.145 295.8728125 30.125 292.1328125 C14.285 292.1328125 -1.555 292.1328125 -17.875 292.1328125 Z M39.125 292.1328125 C55.67104001 344.31246683 76.61734131 402.37132446 107.125 448.1328125 C109.46472518 448.57112537 109.46472518 448.57112537 112.21728516 448.47338867 C113.80870834 448.47304878 113.80870834 448.47304878 115.43228149 448.47270203 C116.58126923 448.45721817 117.73025696 448.44173431 118.9140625 448.42578125 C120.08762299 448.42153641 121.26118347 448.41729156 122.4703064 448.41291809 C126.23043454 448.39608226 129.99003297 448.35842027 133.75 448.3203125 C136.29426311 448.30527204 138.8385346 448.29158253 141.3828125 448.27929688 C147.63039005 448.24616267 153.87765719 448.19591456 160.125 448.1328125 C159.17233432 446.69194715 158.21809034 445.25212524 157.26318359 443.81274414 C156.46634659 442.60987511 156.46634659 442.60987511 155.65341187 441.38270569 C153.81038088 438.66967856 151.80849886 436.12299971 149.75 433.5703125 C117.59519031 392.64715785 91.11708686 343.98510369 70.55078125 296.32421875 C69.44079556 293.32954872 69.44079556 293.32954872 68.125 292.1328125 C65.97941173 292.04505645 63.83095579 292.02586031 61.68359375 292.03515625 C60.37841797 292.03837891 59.07324219 292.04160156 57.72851562 292.04492188 C56.3398431 292.05327849 54.95117123 292.06174345 53.5625 292.0703125 C52.16992344 292.07532584 50.77734519 292.07988903 49.38476562 292.08398438 C45.9648013 292.09581816 42.54492156 292.1123037 39.125 292.1328125 Z M-25.875 316.1328125 C-27.19876412 318.74116508 -28.16814137 321.43458007 -29.125 324.1953125 C-29.393125 324.92814453 -29.66125 325.66097656 -29.9375 326.41601562 C-31.37288411 330.17882458 -31.37288411 330.17882458 -31.875 334.1328125 C-26.81366212 332.51318438 -22.02293383 330.50058888 -17.16796875 328.3515625 C-0.66110427 322.24226034 19.23788038 323.33771285 35.19140625 330.51171875 C36.90213399 331.36586589 38.59844444 332.25037289 40.26953125 333.1796875 C42.07384247 334.28512078 42.07384247 334.28512078 44.125 334.1328125 C41.45513571 322.49557335 41.45513571 322.49557335 34.6875 313.2578125 C32.9240625 312.7009375 32.9240625 312.7009375 31.125 312.1328125 C30.32191406 311.85824219 29.51882813 311.58367187 28.69140625 311.30078125 C14.76422751 307.2502472 -14.74645661 304.4673657 -25.875 316.1328125 Z " fill="#000000" transform="translate(249.875,27.8671875)"/>
</svg>
