<?xml version="1.0" encoding="UTF-8"?>
<svg version="1.1" xmlns="http://www.w3.org/2000/svg" width="399" height="512">
<path d="M0 0 C0.65042267 -0.00335861 1.30084534 -0.00671722 1.97097778 -0.01017761 C4.13114304 -0.01971301 6.291231 -0.02163202 8.45141602 -0.02270508 C9.94735242 -0.0259159 11.44328851 -0.02927984 12.93922424 -0.03279114 C16.07911914 -0.03878892 19.21898649 -0.04063038 22.35888672 -0.04003906 C26.38873909 -0.03993741 30.41841537 -0.05358965 34.44822598 -0.07081127 C37.53909624 -0.08191236 40.62992368 -0.08395886 43.72081184 -0.08342934 C45.20681426 -0.08461231 46.69281769 -0.08905179 48.17880058 -0.0967617 C50.25474362 -0.10652359 52.33030119 -0.10369891 54.40625 -0.09765625 C56.18043556 -0.09979378 56.18043556 -0.09979378 57.99046326 -0.10197449 C60.76782227 0.14526367 60.76782227 0.14526367 62.76782227 2.14526367 C62.96313477 5.40307617 62.96313477 5.40307617 62.89282227 9.27026367 C62.87477539 10.5515918 62.85672852 11.83291992 62.83813477 13.15307617 C62.81493164 14.14049805 62.79172852 15.12791992 62.76782227 16.14526367 C63.32469727 16.2922168 63.88157227 16.43916992 64.45532227 16.59057617 C71.82288754 18.75604299 77.17300032 22.07244821 82.14282227 27.95776367 C83.5713117 30.75980063 84.23684584 32.81654608 84.86938477 35.84448242 C85.04034668 36.65103271 85.21130859 37.45758301 85.38745117 38.28857422 C85.51297363 38.90128174 85.63849609 39.51398926 85.76782227 40.14526367 C86.70634033 40.12955322 86.70634033 40.12955322 87.66381836 40.11352539 C90.49011237 40.07203176 93.31634237 40.04595894 96.14282227 40.02026367 C97.12766602 40.00350586 98.11250977 39.98674805 99.12719727 39.96948242 C100.5387207 39.95981445 100.5387207 39.95981445 101.97875977 39.94995117 C103.28272705 39.93424072 103.28272705 39.93424072 104.61303711 39.91821289 C106.76782227 40.14526367 106.76782227 40.14526367 108.76782227 42.14526367 C108.96313477 45.40307617 108.96313477 45.40307617 108.89282227 49.27026367 C108.87477539 50.5515918 108.85672852 51.83291992 108.83813477 53.15307617 C108.80333008 54.63420898 108.80333008 54.63420898 108.76782227 56.14526367 C109.31461639 56.14304306 109.86141052 56.14082245 110.42477417 56.13853455 C116.10210519 56.11645681 121.77942407 56.10134663 127.45678711 56.09033203 C129.57723485 56.08529495 131.69767911 56.07846509 133.81811523 56.06982422 C136.86125548 56.05773133 139.90434992 56.0520292 142.94750977 56.04760742 C143.89963348 56.04244614 144.8517572 56.03728485 145.83273315 56.03196716 C146.71349518 56.03189163 147.5942572 56.0318161 148.50170898 56.03173828 C149.27892303 56.02951767 150.05613708 56.02729706 150.85690308 56.02500916 C152.76782227 56.14526367 152.76782227 56.14526367 154.76782227 57.14526367 C154.76782227 80.57526367 154.76782227 104.00526367 154.76782227 128.14526367 C162.02782227 128.14526367 169.28782227 128.14526367 176.76782227 128.14526367 C177.76782227 129.14526367 177.76782227 129.14526367 177.88134766 131.37011719 C177.87611084 132.32845459 177.87087402 133.28679199 177.86547852 134.27416992 C177.86225586 135.30864258 177.8590332 136.34311523 177.85571289 137.40893555 C177.84733398 138.49754883 177.83895508 139.58616211 177.83032227 140.70776367 C177.82581055 141.80024414 177.82129883 142.89272461 177.81665039 144.01831055 C177.80482053 146.72734862 177.7883377 149.43627966 177.76782227 152.14526367 C178.75524414 152.12206055 179.74266602 152.09885742 180.76000977 152.07495117 C182.04133789 152.0569043 183.32266602 152.03885742 184.64282227 152.02026367 C185.91899414 151.99706055 187.19516602 151.97385742 188.51000977 151.94995117 C191.76782227 152.14526367 191.76782227 152.14526367 193.76782227 154.14526367 C193.99487305 157.1262207 193.99487305 157.1262207 193.96313477 160.90307617 C193.95888992 161.89765335 193.95888992 161.89765335 193.95455933 162.912323 C193.94335662 165.0318195 193.91825277 167.15089471 193.89282227 169.27026367 C193.88279254 170.70645549 193.87366668 172.14265392 193.86547852 173.57885742 C193.84341727 177.10112995 193.8088872 180.62315571 193.76782227 184.14526367 C194.39350098 184.13479004 195.01917969 184.12431641 195.66381836 184.11352539 C198.49011237 184.07203176 201.31634237 184.04595894 204.14282227 184.02026367 C205.12766602 184.00350586 206.11250977 183.98674805 207.12719727 183.96948242 C208.06821289 183.96303711 209.00922852 183.9565918 209.97875977 183.94995117 C211.28272705 183.93424072 211.28272705 183.93424072 212.61303711 183.91821289 C214.76782227 184.14526367 214.76782227 184.14526367 216.76782227 186.14526367 C216.54770043 191.85797567 213.83968289 196.58691951 211.33032227 201.59448242 C210.67012085 202.93613213 210.67012085 202.93613213 209.99658203 204.30488586 C208.59432783 207.15120275 207.18152803 209.99211971 205.76782227 212.83276367 C204.35618997 215.68509694 202.94675981 218.53849926 201.5390625 221.39277649 C200.66371503 223.16593396 199.78570838 224.93778167 198.90478516 226.70817566 C198.50767334 227.50943375 198.11056152 228.31069183 197.70141602 229.13623047 C197.35135498 229.839832 197.00129395 230.54343353 196.640625 231.26835632 C194.62953786 235.59307264 194.59721291 239.52447478 194.5625 244.19677734 C194.5526004 245.01651535 194.54270081 245.83625336 194.53250122 246.68083191 C194.50090217 249.39160265 194.47613507 252.10239093 194.45141602 254.81323242 C194.43084511 256.69225013 194.4098486 258.57126322 194.38844299 260.45027161 C194.33323641 265.39696517 194.28382087 270.34370041 194.2355957 275.29046631 C194.18537039 280.3378063 194.1296897 285.38508574 194.07446289 290.43237305 C193.96689859 300.33661821 193.86544974 310.24091593 193.76782227 320.14526367 C195.22188477 320.11432617 195.22188477 320.11432617 196.70532227 320.08276367 C199.76782227 320.14526367 199.76782227 320.14526367 200.76782227 321.14526367 C200.89282227 324.14526367 200.89282227 324.14526367 200.76782227 327.14526367 C200.43782227 327.47526367 200.10782227 327.80526367 199.76782227 328.14526367 C197.78782227 328.14526367 195.80782227 328.14526367 193.76782227 328.14526367 C193.76782227 343.98526367 193.76782227 359.82526367 193.76782227 376.14526367 C198.05782227 376.14526367 202.34782227 376.14526367 206.76782227 376.14526367 C208.76782227 378.14526367 208.76782227 378.14526367 208.79785156 380.77514648 C207.79378148 384.06032863 207.04810187 385.22069921 204.87255859 387.72631836 C191.39429302 403.57701905 193.02369756 421.07861687 193.41162109 440.74926758 C193.48515265 445.2014182 193.48330427 449.6535393 193.48852539 454.10620117 C193.5094515 462.78752947 193.61157479 471.46531898 193.76782227 480.14526367 C195.22188477 480.11432617 195.22188477 480.11432617 196.70532227 480.08276367 C199.76782227 480.14526367 199.76782227 480.14526367 200.76782227 481.14526367 C200.89282227 484.14526367 200.89282227 484.14526367 200.76782227 487.14526367 C200.43782227 487.47526367 200.10782227 487.80526367 199.76782227 488.14526367 C197.78782227 488.14526367 195.80782227 488.14526367 193.76782227 488.14526367 C193.76782227 493.42526367 193.76782227 498.70526367 193.76782227 504.14526367 C197.21541992 504.12786133 197.21541992 504.12786133 200.73266602 504.11010742 C202.95003115 504.10231659 205.16739477 504.09623998 207.38476562 504.09033203 C208.93001992 504.08529227 210.47526943 504.07846048 212.02050781 504.06982422 C214.23707255 504.05774291 216.45357445 504.05203194 218.67016602 504.04760742 C219.36496567 504.04244614 220.05976532 504.03728485 220.77561951 504.03196716 C222.44011556 504.0317709 224.10447725 504.08337238 225.76782227 504.14526367 C226.76782227 505.14526367 226.76782227 505.14526367 226.89282227 508.14526367 C226.76782227 511.14526367 226.76782227 511.14526367 225.76782227 512.14526367 C223.6629419 512.24413299 221.5546727 512.27082092 219.44747162 512.27110481 C218.77633302 512.27255825 218.10519442 512.27401169 217.41371828 512.27550918 C215.13667065 512.27919485 212.85968889 512.27567097 210.5826416 512.27224731 C208.94494514 512.27339812 207.30724894 512.27498537 205.66955328 512.27697456 C201.1473115 512.28117344 196.62509065 512.27907469 192.10284877 512.27598834 C187.23436127 512.27373672 182.36587751 512.27721266 177.49739075 512.27996826 C167.95134568 512.28442752 158.40530845 512.2834488 148.85926306 512.28055562 C141.10471699 512.27830219 133.35017313 512.2779888 125.59562683 512.27907944 C124.49423263 512.27923267 123.39283843 512.2793859 122.25806865 512.27954378 C120.02098691 512.27986349 117.78390518 512.2801877 115.54682344 512.28051637 C94.54298846 512.28337162 73.53915783 512.28008344 52.53532356 512.274716 C34.49188996 512.27024793 16.44846278 512.27102385 -1.5949707 512.27563477 C-22.52087367 512.28097974 -43.44677282 512.28309692 -64.37267637 512.2800225 C-66.60177835 512.27970393 -68.83088032 512.27938956 -71.0599823 512.27907944 C-72.15689838 512.27892516 -73.25381445 512.27877089 -74.38397041 512.27861194 C-82.13405839 512.27774655 -89.88414396 512.27921012 -97.63423157 512.28155899 C-107.07202303 512.28435634 -116.50980617 512.28362011 -125.94759667 512.27827825 C-130.76786643 512.27564035 -135.58812228 512.27463765 -140.40839195 512.2779274 C-144.81365426 512.28088856 -149.21888966 512.27930059 -153.6241495 512.27394985 C-155.22506867 512.27282488 -156.82599008 512.27341857 -158.42690784 512.27582563 C-160.58858076 512.27882863 -162.75015926 512.27578619 -164.91182709 512.27110481 C-166.11689706 512.27094246 -167.32196704 512.27078011 -168.56355429 512.27061284 C-171.23217773 512.14526367 -171.23217773 512.14526367 -172.23217773 511.14526367 C-172.35717773 508.14526367 -172.35717773 508.14526367 -172.23217773 505.14526367 C-171.23217773 504.14526367 -171.23217773 504.14526367 -168.08935547 504.03173828 C-166.69815076 504.03189735 -165.30694013 504.03758861 -163.91577148 504.04760742 C-163.18471695 504.04902237 -162.45366241 504.05043732 -161.70045471 504.05189514 C-159.35682141 504.05750959 -157.01328234 504.07006445 -154.66967773 504.08276367 C-153.08439265 504.08777681 -151.49910608 504.09234004 -149.91381836 504.09643555 C-146.01987231 504.10663446 -142.12613097 504.1262068 -138.23217773 504.14526367 C-138.23217773 498.86526367 -138.23217773 493.58526367 -138.23217773 488.14526367 C-140.21217773 488.14526367 -142.19217773 488.14526367 -144.23217773 488.14526367 C-145.35717773 485.83276367 -145.35717773 485.83276367 -146.23217773 483.14526367 C-145.57217773 482.15526367 -144.91217773 481.16526367 -144.23217773 480.14526367 C-141.10717773 479.95776367 -141.10717773 479.95776367 -138.23217773 480.14526367 C-138.08350642 470.56386386 -138.00203742 460.98474501 -138.0015831 451.40218639 C-137.99936209 446.9502119 -137.97575623 442.50068964 -137.8996582 438.04931641 C-136.92241417 410.30486326 -136.92241417 410.30486326 -149.92340088 386.60810852 C-151.23217773 385.14526367 -151.23217773 385.14526367 -153.23217773 382.14526367 C-152.69163719 377.60472313 -152.69163719 377.60472313 -151.23217773 376.14526367 C-146.94217773 376.14526367 -142.65217773 376.14526367 -138.23217773 376.14526367 C-138.23217773 360.30526367 -138.23217773 344.46526367 -138.23217773 328.14526367 C-140.21217773 328.14526367 -142.19217773 328.14526367 -144.23217773 328.14526367 C-145.35717773 325.83276367 -145.35717773 325.83276367 -146.23217773 323.14526367 C-145.57217773 322.15526367 -144.91217773 321.16526367 -144.23217773 320.14526367 C-141.10717773 319.95776367 -141.10717773 319.95776367 -138.23217773 320.14526367 C-137.96439461 309.79762981 -137.79635864 299.45304361 -137.74252224 289.10196972 C-137.71464207 284.2905696 -137.65727197 279.48400263 -137.52246094 274.67431641 C-136.79143712 247.56353078 -140.52074726 228.11098224 -154.24710083 204.60269165 C-161.45405952 192.05026078 -161.45405952 192.05026078 -160.91297913 187.40473938 C-160.23217773 185.14526367 -160.23217773 185.14526367 -159.23217773 184.14526367 C-157.67045029 184.05840764 -156.10488429 184.03824148 -154.54077148 184.04760742 C-153.5965332 184.05083008 -152.65229492 184.05405273 -151.67944336 184.05737305 C-150.6862207 184.06575195 -149.69299805 184.07413086 -148.66967773 184.08276367 C-147.67258789 184.08727539 -146.67549805 184.09178711 -145.64819336 184.09643555 C-143.17612925 184.1082636 -140.70418256 184.12474518 -138.23217773 184.14526367 C-138.24788818 182.79779053 -138.24788818 182.79779053 -138.26391602 181.4230957 C-138.29797244 178.0946192 -138.32306392 174.76632745 -138.34204102 171.43774414 C-138.35210736 169.9963082 -138.36576154 168.55489272 -138.38305664 167.11352539 C-138.40727785 165.04332434 -138.41865415 162.97339291 -138.42749023 160.90307617 C-138.44320068 159.03353271 -138.44320068 159.03353271 -138.45922852 157.1262207 C-138.23217773 154.14526367 -138.23217773 154.14526367 -136.23217773 152.14526367 C-133.19311523 151.94995117 -133.19311523 151.94995117 -129.60717773 152.02026367 C-128.41866211 152.03831055 -127.23014648 152.05635742 -126.00561523 152.07495117 C-125.09038086 152.0981543 -124.17514648 152.12135742 -123.23217773 152.14526367 C-123.24788818 151.21460083 -123.24788818 151.21460083 -123.26391602 150.26513672 C-123.30548659 147.4543869 -123.33150707 144.64370177 -123.35717773 141.83276367 C-123.37393555 140.85629883 -123.39069336 139.87983398 -123.40795898 138.8737793 C-123.41762695 137.46708984 -123.41762695 137.46708984 -123.42749023 136.03198242 C-123.44320068 134.73587036 -123.44320068 134.73587036 -123.45922852 133.41357422 C-123.23217773 131.14526367 -123.23217773 131.14526367 -121.23217773 128.14526367 C-118.9855957 127.8046875 -118.9855957 127.8046875 -116.22436523 127.85229492 C-115.23823242 127.86196289 -114.25209961 127.87163086 -113.23608398 127.8815918 C-112.20354492 127.90672852 -111.17100586 127.93186523 -110.10717773 127.95776367 C-108.54676758 127.97806641 -108.54676758 127.97806641 -106.95483398 127.9987793 C-104.38010146 128.0342114 -101.80639443 128.08361147 -99.23217773 128.14526367 C-99.23439835 127.25799088 -99.23661896 126.37071808 -99.23890686 125.45655823 C-99.25890734 117.1128171 -99.27415062 108.76908398 -99.28398991 100.42532444 C-99.28921834 96.13526452 -99.29631526 91.84522434 -99.30761719 87.55517578 C-99.31844749 83.41846967 -99.32445487 79.28178259 -99.32705498 75.1450634 C-99.32890897 73.56334063 -99.33252909 71.98161896 -99.33790779 70.39990425 C-99.34512013 68.19203529 -99.3461686 65.98424595 -99.34570312 63.77636719 C-99.34792374 62.51728043 -99.35014435 61.25819366 -99.35243225 59.96095276 C-99.23217773 57.14526367 -99.23217773 57.14526367 -98.23217773 56.14526367 C-96.81992728 56.05239107 -95.40308839 56.02779595 -93.98779297 56.03173828 C-92.63650551 56.03185158 -92.63650551 56.03185158 -91.25791931 56.03196716 C-90.27876053 56.03712845 -89.29960175 56.04228973 -88.29077148 56.04760742 C-87.29336441 56.04902237 -86.29595734 56.05043732 -85.26832581 56.05189514 C-82.0687465 56.05751253 -78.86923605 56.07006796 -75.66967773 56.08276367 C-73.50626728 56.08777643 -71.34285574 56.09233973 -69.17944336 56.09643555 C-63.86366448 56.1074876 -58.54792603 56.12424264 -53.23217773 56.14526367 C-53.2437793 55.07405273 -53.25538086 54.0028418 -53.26733398 52.89916992 C-53.27671072 51.50203624 -53.28581104 50.10490068 -53.29467773 48.70776367 C-53.30305664 48.00071289 -53.31143555 47.29366211 -53.32006836 46.56518555 C-53.32871361 44.75832808 -53.28437785 42.95138764 -53.23217773 41.14526367 C-52.23217773 40.14526367 -52.23217773 40.14526367 -50.09912109 40.03173828 C-49.18267822 40.0369751 -48.26623535 40.04221191 -47.32202148 40.04760742 C-46.33266602 40.05083008 -45.34331055 40.05405273 -44.32397461 40.05737305 C-43.28305664 40.06575195 -42.24213867 40.07413086 -41.16967773 40.08276367 C-39.6025 40.08953125 -39.6025 40.08953125 -38.00366211 40.09643555 C-35.41311114 40.10826455 -32.82267215 40.12474678 -30.23217773 40.14526367 C-30.11753174 39.54415771 -30.00288574 38.94305176 -29.88476562 38.32373047 C-27.92952718 28.72784281 -23.71510221 23.68554136 -15.57592773 18.27416992 C-12.81104523 16.94241818 -10.26425336 16.52427313 -7.23217773 16.14526367 C-7.2437793 15.07405273 -7.25538086 14.0028418 -7.26733398 12.89916992 C-7.27671072 11.50203624 -7.28581104 10.10490068 -7.29467773 8.70776367 C-7.30305664 8.00071289 -7.31143555 7.29366211 -7.32006836 6.56518555 C-7.32871361 4.75832808 -7.28437785 2.95138764 -7.23217773 1.14526367 C-5.39735756 -0.6895565 -2.46043892 0.00793463 0 0 Z M1.76782227 8.14526367 C1.76782227 10.78526367 1.76782227 13.42526367 1.76782227 16.14526367 C18.92782227 16.14526367 36.08782227 16.14526367 53.76782227 16.14526367 C53.76782227 13.50526367 53.76782227 10.86526367 53.76782227 8.14526367 C36.60782227 8.14526367 19.44782227 8.14526367 1.76782227 8.14526367 Z M-15.35327148 28.75854492 C-16.00489258 29.5996582 -16.00489258 29.5996582 -16.66967773 30.45776367 C-17.34836914 31.28727539 -17.34836914 31.28727539 -18.04077148 32.13354492 C-19.64608938 34.68255597 -19.64608938 34.68255597 -21.23217773 40.14526367 C11.10782227 40.14526367 43.44782227 40.14526367 76.76782227 40.14526367 C73.43655222 32.37230022 71.58285761 28.4015284 63.76782227 25.14526367 C60.34695229 24.06620022 57.15868763 24.00631653 53.58154297 23.98413086 C52.32956619 23.97452332 51.07758942 23.96491577 49.78767395 23.95501709 C48.42298567 23.9501674 47.05829526 23.94588899 45.69360352 23.94213867 C44.65683 23.93789761 44.65683 23.93789761 43.59911156 23.93357086 C39.93830358 23.91859792 36.27753478 23.90935772 32.61669922 23.9050293 C28.85545565 23.89956075 25.09457703 23.87556198 21.33344746 23.84705734 C18.42415868 23.82832497 15.51495576 23.82321967 12.6056118 23.82169342 C11.22027793 23.81868803 9.8349448 23.81073188 8.44967079 23.79750824 C-4.15953153 23.60060826 -4.15953153 23.60060826 -15.35327148 28.75854492 Z M-44.23217773 48.14526367 C-44.23217773 50.78526367 -44.23217773 53.42526367 -44.23217773 56.14526367 C3.28782227 56.14526367 50.80782227 56.14526367 99.76782227 56.14526367 C99.76782227 53.50526367 99.76782227 50.86526367 99.76782227 48.14526367 C52.24782227 48.14526367 4.72782227 48.14526367 -44.23217773 48.14526367 Z M-90.23217773 64.14526367 C-90.23217773 85.26526367 -90.23217773 106.38526367 -90.23217773 128.14526367 C-12.35217773 128.14526367 65.52782227 128.14526367 145.76782227 128.14526367 C145.76782227 107.02526367 145.76782227 85.90526367 145.76782227 64.14526367 C67.88782227 64.14526367 -9.99217773 64.14526367 -90.23217773 64.14526367 Z M-113.23217773 136.14526367 C-113.23217773 141.42526367 -113.23217773 146.70526367 -113.23217773 152.14526367 C-20.17217773 152.14526367 72.88782227 152.14526367 168.76782227 152.14526367 C168.76782227 146.86526367 168.76782227 141.58526367 168.76782227 136.14526367 C75.70782227 136.14526367 -17.35217773 136.14526367 -113.23217773 136.14526367 Z M-129.23217773 160.14526367 C-129.23217773 168.06526367 -129.23217773 175.98526367 -129.23217773 184.14526367 C-25.61217773 184.14526367 78.00782227 184.14526367 184.76782227 184.14526367 C184.76782227 176.22526367 184.76782227 168.30526367 184.76782227 160.14526367 C81.14782227 160.14526367 -22.47217773 160.14526367 -129.23217773 160.14526367 Z M-149.23217773 192.14526367 C-147.91870164 196.2225244 -147.91870164 196.2225244 -146.23217773 200.14526367 C-31.39217773 200.14526367 83.44782227 200.14526367 201.76782227 200.14526367 C204.91689346 194.96515526 204.91689346 194.96515526 204.76782227 192.14526367 C87.94782227 192.14526367 -28.87217773 192.14526367 -149.23217773 192.14526367 Z M-141.23217773 208.14526367 C-140.57217773 210.45526367 -139.91217773 212.76526367 -139.23217773 215.14526367 C-138.90217773 215.14526367 -138.57217773 215.14526367 -138.23217773 215.14526367 C-138.23217773 212.83526367 -138.23217773 210.52526367 -138.23217773 208.14526367 C-139.22217773 208.14526367 -140.21217773 208.14526367 -141.23217773 208.14526367 Z M-129.23217773 208.14526367 C-129.23217773 216.06526367 -129.23217773 223.98526367 -129.23217773 232.14526367 C-124.61217773 232.14526367 -119.99217773 232.14526367 -115.23217773 232.14526367 C-115.23217773 224.22526367 -115.23217773 216.30526367 -115.23217773 208.14526367 C-119.85217773 208.14526367 -124.47217773 208.14526367 -129.23217773 208.14526367 Z M-106.23217773 208.14526367 C-106.23217773 216.06526367 -106.23217773 223.98526367 -106.23217773 232.14526367 C-101.61217773 232.14526367 -96.99217773 232.14526367 -92.23217773 232.14526367 C-92.23217773 224.22526367 -92.23217773 216.30526367 -92.23217773 208.14526367 C-96.85217773 208.14526367 -101.47217773 208.14526367 -106.23217773 208.14526367 Z M-83.23217773 208.14526367 C-83.23217773 216.06526367 -83.23217773 223.98526367 -83.23217773 232.14526367 C-78.61217773 232.14526367 -73.99217773 232.14526367 -69.23217773 232.14526367 C-69.23217773 224.22526367 -69.23217773 216.30526367 -69.23217773 208.14526367 C-73.85217773 208.14526367 -78.47217773 208.14526367 -83.23217773 208.14526367 Z M-60.23217773 208.14526367 C-60.23217773 216.06526367 -60.23217773 223.98526367 -60.23217773 232.14526367 C-55.61217773 232.14526367 -50.99217773 232.14526367 -46.23217773 232.14526367 C-46.23217773 224.22526367 -46.23217773 216.30526367 -46.23217773 208.14526367 C-50.85217773 208.14526367 -55.47217773 208.14526367 -60.23217773 208.14526367 Z M-37.23217773 208.14526367 C-37.23217773 216.06526367 -37.23217773 223.98526367 -37.23217773 232.14526367 C-32.61217773 232.14526367 -27.99217773 232.14526367 -23.23217773 232.14526367 C-23.23217773 224.22526367 -23.23217773 216.30526367 -23.23217773 208.14526367 C-27.85217773 208.14526367 -32.47217773 208.14526367 -37.23217773 208.14526367 Z M-14.23217773 208.14526367 C-14.23217773 216.06526367 -14.23217773 223.98526367 -14.23217773 232.14526367 C-9.61217773 232.14526367 -4.99217773 232.14526367 -0.23217773 232.14526367 C-0.23217773 224.22526367 -0.23217773 216.30526367 -0.23217773 208.14526367 C-4.85217773 208.14526367 -9.47217773 208.14526367 -14.23217773 208.14526367 Z M9.76782227 208.14526367 C9.76782227 216.06526367 9.76782227 223.98526367 9.76782227 232.14526367 C14.05782227 232.14526367 18.34782227 232.14526367 22.76782227 232.14526367 C22.76782227 224.22526367 22.76782227 216.30526367 22.76782227 208.14526367 C18.47782227 208.14526367 14.18782227 208.14526367 9.76782227 208.14526367 Z M32.76782227 208.14526367 C32.76782227 216.06526367 32.76782227 223.98526367 32.76782227 232.14526367 C37.05782227 232.14526367 41.34782227 232.14526367 45.76782227 232.14526367 C45.76782227 224.22526367 45.76782227 216.30526367 45.76782227 208.14526367 C41.47782227 208.14526367 37.18782227 208.14526367 32.76782227 208.14526367 Z M55.76782227 208.14526367 C55.76782227 216.06526367 55.76782227 223.98526367 55.76782227 232.14526367 C60.05782227 232.14526367 64.34782227 232.14526367 68.76782227 232.14526367 C68.76782227 224.22526367 68.76782227 216.30526367 68.76782227 208.14526367 C64.47782227 208.14526367 60.18782227 208.14526367 55.76782227 208.14526367 Z M78.76782227 208.14526367 C78.76782227 216.06526367 78.76782227 223.98526367 78.76782227 232.14526367 C83.38782227 232.14526367 88.00782227 232.14526367 92.76782227 232.14526367 C92.76782227 224.22526367 92.76782227 216.30526367 92.76782227 208.14526367 C88.14782227 208.14526367 83.52782227 208.14526367 78.76782227 208.14526367 Z M101.76782227 208.14526367 C101.76782227 216.06526367 101.76782227 223.98526367 101.76782227 232.14526367 C106.38782227 232.14526367 111.00782227 232.14526367 115.76782227 232.14526367 C115.76782227 224.22526367 115.76782227 216.30526367 115.76782227 208.14526367 C111.14782227 208.14526367 106.52782227 208.14526367 101.76782227 208.14526367 Z M124.76782227 208.14526367 C124.76782227 216.06526367 124.76782227 223.98526367 124.76782227 232.14526367 C129.38782227 232.14526367 134.00782227 232.14526367 138.76782227 232.14526367 C138.76782227 224.22526367 138.76782227 216.30526367 138.76782227 208.14526367 C134.14782227 208.14526367 129.52782227 208.14526367 124.76782227 208.14526367 Z M147.76782227 208.14526367 C147.76782227 216.06526367 147.76782227 223.98526367 147.76782227 232.14526367 C152.38782227 232.14526367 157.00782227 232.14526367 161.76782227 232.14526367 C161.76782227 224.22526367 161.76782227 216.30526367 161.76782227 208.14526367 C157.14782227 208.14526367 152.52782227 208.14526367 147.76782227 208.14526367 Z M170.76782227 208.14526367 C170.76782227 216.06526367 170.76782227 223.98526367 170.76782227 232.14526367 C175.38782227 232.14526367 180.00782227 232.14526367 184.76782227 232.14526367 C184.76782227 224.22526367 184.76782227 216.30526367 184.76782227 208.14526367 C180.14782227 208.14526367 175.52782227 208.14526367 170.76782227 208.14526367 Z M193.76782227 208.14526367 C193.76782227 210.12526367 193.76782227 212.10526367 193.76782227 214.14526367 C196.11069645 211.47278733 196.11069645 211.47278733 196.76782227 208.14526367 C195.77782227 208.14526367 194.78782227 208.14526367 193.76782227 208.14526367 Z M-129.23217773 240.14526367 C-129.23217773 266.54526367 -129.23217773 292.94526367 -129.23217773 320.14526367 C-127.25217773 320.14526367 -125.27217773 320.14526367 -123.23217773 320.14526367 C-123.20712158 319.27724121 -123.18206543 318.40921875 -123.15625 317.51489258 C-123.06118289 314.29813204 -122.9619457 311.08153519 -122.85986328 307.86499023 C-122.81651927 306.47213777 -122.77484378 305.07923236 -122.73486328 303.6862793 C-122.67714841 301.68549717 -122.61295905 299.68490509 -122.54858398 297.68432617 C-122.49359741 295.87762451 -122.49359741 295.87762451 -122.4375 294.03442383 C-122.23217773 291.14526367 -122.23217773 291.14526367 -121.23217773 289.14526367 C-112.51373771 289.12213756 -103.79530817 289.10434722 -95.07684422 289.0934515 C-91.02892031 289.08822326 -86.98101733 289.08112668 -82.93310547 289.06982422 C-79.02981802 289.05899324 -75.12655075 289.05298639 -71.22324944 289.05038643 C-69.73084126 289.04853256 -68.23843425 289.04491267 -66.74603462 289.03953362 C-64.66269634 289.03232036 -62.57944242 289.03127285 -60.49609375 289.03173828 C-59.30806656 289.02951767 -58.12003937 289.02729706 -56.89601135 289.02500916 C-54.23217773 289.14526367 -54.23217773 289.14526367 -53.23217773 290.14526367 C-53.07343818 292.36214361 -52.98083936 294.58381665 -52.91577148 296.80541992 C-52.89499039 297.46988632 -52.87420929 298.13435272 -52.85279846 298.81895447 C-52.78724115 300.94844911 -52.72838988 303.07807036 -52.66967773 305.20776367 C-52.62649834 306.64853215 -52.58288425 308.08928766 -52.53881836 309.5300293 C-52.43155381 313.06830407 -52.33030402 316.60672236 -52.23217773 320.14526367 C-50.25217773 320.14526367 -48.27217773 320.14526367 -46.23217773 320.14526367 C-46.23217773 293.74526367 -46.23217773 267.34526367 -46.23217773 240.14526367 C-73.62217773 240.14526367 -101.01217773 240.14526367 -129.23217773 240.14526367 Z M-37.23217773 240.14526367 C-37.23217773 245.42526367 -37.23217773 250.70526367 -37.23217773 256.14526367 C-34.51366577 256.1828479 -34.51366577 256.1828479 -31.74023438 256.22119141 C-25.76505968 256.30494767 -19.78996614 256.39321917 -13.81490421 256.48460293 C-10.19076194 256.53986465 -6.56661164 256.59328967 -2.94238281 256.64257812 C0.55249326 256.69017399 4.04726846 256.74251478 7.54202461 256.79820442 C9.5301605 256.8286278 11.51837036 256.85408349 13.50657654 256.87950134 C14.70774612 256.89944656 15.90891571 256.91939178 17.14648438 256.93994141 C18.74199379 256.96325783 18.74199379 256.96325783 20.36973572 256.98704529 C22.76782227 257.14526367 22.76782227 257.14526367 23.76782227 258.14526367 C23.92656182 260.36214361 24.01916064 262.58381665 24.08422852 264.80541992 C24.10500961 265.46988632 24.12579071 266.13435272 24.14720154 266.81895447 C24.21275885 268.94844911 24.27161012 271.07807036 24.33032227 273.20776367 C24.37350166 274.64853215 24.41711575 276.08928766 24.46118164 277.5300293 C24.56844619 281.06830407 24.66969598 284.60672236 24.76782227 288.14526367 C26.74782227 288.14526367 28.72782227 288.14526367 30.76782227 288.14526367 C30.80540649 286.7899353 30.80540649 286.7899353 30.84375 285.40722656 C30.93869544 282.06562087 31.03793848 278.72420115 31.14013672 275.3828125 C31.18353857 273.93462127 31.22520971 272.48637713 31.26513672 271.03808594 C31.32271289 268.96036808 31.38644254 266.88291794 31.45141602 264.80541992 C31.48807373 263.5538208 31.52473145 262.30222168 31.5625 261.01269531 C31.76782227 258.14526367 31.76782227 258.14526367 32.76782227 257.14526367 C34.63878338 257.0218234 36.51433154 256.96733974 38.38916016 256.93994141 C39.59032974 256.91999619 40.79149933 256.90005096 42.02906799 256.87950134 C43.33633347 256.86278885 44.64359894 256.84607635 45.99047852 256.82885742 C47.33427073 256.80829409 48.67805639 256.78729779 50.02183533 256.7658844 C53.56457214 256.71059948 57.10736793 256.66121869 60.65020752 256.61303711 C64.26303376 256.5628688 67.87577398 256.50715842 71.48852539 256.4519043 C78.58155127 256.34424428 85.6746563 256.24332878 92.76782227 256.14526367 C92.76782227 250.86526367 92.76782227 245.58526367 92.76782227 240.14526367 C49.86782227 240.14526367 6.96782227 240.14526367 -37.23217773 240.14526367 Z M101.76782227 240.14526367 C101.76782227 266.54526367 101.76782227 292.94526367 101.76782227 320.14526367 C103.74782227 320.14526367 105.72782227 320.14526367 107.76782227 320.14526367 C108.09782227 309.58526367 108.42782227 299.02526367 108.76782227 288.14526367 C142.42782227 288.64026367 142.42782227 288.64026367 176.76782227 289.14526367 C177.09782227 299.37526367 177.42782227 309.60526367 177.76782227 320.14526367 C180.07782227 320.14526367 182.38782227 320.14526367 184.76782227 320.14526367 C184.76782227 293.74526367 184.76782227 267.34526367 184.76782227 240.14526367 C157.37782227 240.14526367 129.98782227 240.14526367 101.76782227 240.14526367 Z M-37.23217773 264.14526367 C-37.23217773 282.62526367 -37.23217773 301.10526367 -37.23217773 320.14526367 C-34.92217773 320.14526367 -32.61217773 320.14526367 -30.23217773 320.14526367 C-30.03624023 319.01991211 -29.84030273 317.89456055 -29.63842773 316.73510742 C-26.25186134 298.81926863 -19.36520094 284.68155792 -4.17749023 274.00463867 C2.02782185 270.0872268 8.73725383 267.23543267 15.76782227 265.14526367 C15.76782227 264.81526367 15.76782227 264.48526367 15.76782227 264.14526367 C-1.72217773 264.14526367 -19.21217773 264.14526367 -37.23217773 264.14526367 Z M39.76782227 264.14526367 C42.25536103 266.63280243 44.37751957 267.13857334 47.70532227 268.27026367 C54.66019369 270.88314354 60.07552337 274.41543077 65.76782227 279.14526367 C66.73655273 279.92643555 66.73655273 279.92643555 67.72485352 280.72338867 C78.88394897 290.69856204 83.54979281 305.84651067 85.76782227 320.14526367 C88.07782227 320.14526367 90.38782227 320.14526367 92.76782227 320.14526367 C92.76782227 301.66526367 92.76782227 283.18526367 92.76782227 264.14526367 C75.27782227 264.14526367 57.78782227 264.14526367 39.76782227 264.14526367 Z M39.76782227 274.14526367 C39.76782227 276.78526367 39.76782227 279.42526367 39.76782227 282.14526367 C40.54125977 282.49717773 41.31469727 282.8490918 42.11157227 283.21166992 C54.70383289 289.18052613 62.39180452 296.17343454 67.51782227 309.33276367 C68.74445779 312.89653907 69.78273808 316.50802974 70.76782227 320.14526367 C72.74782227 320.14526367 74.72782227 320.14526367 76.76782227 320.14526367 C76.15889268 308.16964857 71.81774486 297.99496259 63.76782227 289.14526367 C62.94991211 288.2074707 62.94991211 288.2074707 62.11547852 287.25073242 C56.02803702 280.67629561 48.54008967 276.05227832 39.76782227 274.14526367 Z M-6.49389648 286.20385742 C-14.39726936 295.0307705 -20.85316111 306.04886469 -21.35717773 318.14526367 C-21.31592773 318.80526367 -21.27467773 319.46526367 -21.23217773 320.14526367 C-19.25217773 320.14526367 -17.27217773 320.14526367 -15.23217773 320.14526367 C-14.95245117 319.1062793 -14.67272461 318.06729492 -14.38452148 316.99682617 C-10.70107663 303.93619943 -5.19912609 293.00397167 6.94750977 285.86401367 C9.8511529 284.37496591 12.66891258 283.17823357 15.76782227 282.14526367 C15.76782227 279.50526367 15.76782227 276.86526367 15.76782227 274.14526367 C8.5449635 274.14526367 -1.48418275 281.40869246 -6.49389648 286.20385742 Z M3.82641602 299.00854492 C-1.2165319 304.4436011 -4.95402284 310.18155643 -5.48217773 317.70776367 C-5.39967773 318.51213867 -5.31717773 319.31651367 -5.23217773 320.14526367 C-3.25217773 320.80526367 -1.27217773 321.46526367 0.76782227 322.14526367 C0.27282227 324.62026367 0.27282227 324.62026367 -0.23217773 327.14526367 C-3.20217773 327.64026367 -3.20217773 327.64026367 -6.23217773 328.14526367 C-6.23217773 343.98526367 -6.23217773 359.82526367 -6.23217773 376.14526367 C-3.92217773 376.80526367 -1.61217773 377.46526367 0.76782227 378.14526367 C0.43782227 379.79526367 0.10782227 381.44526367 -0.23217773 383.14526367 C-3.20217773 383.64026367 -3.20217773 383.64026367 -6.23217773 384.14526367 C-6.23217773 423.74526367 -6.23217773 463.34526367 -6.23217773 504.14526367 C16.20782227 504.14526367 38.64782227 504.14526367 61.76782227 504.14526367 C61.76782227 464.54526367 61.76782227 424.94526367 61.76782227 384.14526367 C59.45782227 383.48526367 57.14782227 382.82526367 54.76782227 382.14526367 C55.09782227 380.49526367 55.42782227 378.84526367 55.76782227 377.14526367 C58.73782227 376.65026367 58.73782227 376.65026367 61.76782227 376.14526367 C61.76782227 360.30526367 61.76782227 344.46526367 61.76782227 328.14526367 C59.45782227 327.48526367 57.14782227 326.82526367 54.76782227 326.14526367 C55.09782227 324.49526367 55.42782227 322.84526367 55.76782227 321.14526367 C57.41782227 320.81526367 59.06782227 320.48526367 60.76782227 320.14526367 C60.24607086 310.7537384 56.59180376 303.05601626 49.68188477 296.61791992 C46.58553214 294.23562413 43.3404355 292.7121993 39.76782227 291.14526367 C39.10782227 292.46526367 38.44782227 293.78526367 37.76782227 295.14526367 C30.83782227 295.14526367 23.90782227 295.14526367 16.76782227 295.14526367 C16.43782227 293.82526367 16.10782227 292.50526367 15.76782227 291.14526367 C11.20022989 291.14526367 6.96105886 296.00004465 3.82641602 299.00854492 Z M-113.23217773 296.14526367 C-113.23217773 298.78526367 -113.23217773 301.42526367 -113.23217773 304.14526367 C-109.93217773 304.14526367 -106.63217773 304.14526367 -103.23217773 304.14526367 C-103.23217773 301.50526367 -103.23217773 298.86526367 -103.23217773 296.14526367 C-106.53217773 296.14526367 -109.83217773 296.14526367 -113.23217773 296.14526367 Z M-94.23217773 296.14526367 C-94.23217773 298.78526367 -94.23217773 301.42526367 -94.23217773 304.14526367 C-89.61217773 304.14526367 -84.99217773 304.14526367 -80.23217773 304.14526367 C-80.23217773 301.50526367 -80.23217773 298.86526367 -80.23217773 296.14526367 C-84.85217773 296.14526367 -89.47217773 296.14526367 -94.23217773 296.14526367 Z M-71.23217773 296.14526367 C-71.23217773 298.78526367 -71.23217773 301.42526367 -71.23217773 304.14526367 C-67.93217773 304.14526367 -64.63217773 304.14526367 -61.23217773 304.14526367 C-61.23217773 301.50526367 -61.23217773 298.86526367 -61.23217773 296.14526367 C-64.53217773 296.14526367 -67.83217773 296.14526367 -71.23217773 296.14526367 Z M116.76782227 296.14526367 C116.76782227 298.78526367 116.76782227 301.42526367 116.76782227 304.14526367 C120.06782227 304.14526367 123.36782227 304.14526367 126.76782227 304.14526367 C126.76782227 301.50526367 126.76782227 298.86526367 126.76782227 296.14526367 C123.46782227 296.14526367 120.16782227 296.14526367 116.76782227 296.14526367 Z M135.76782227 296.14526367 C135.76782227 298.78526367 135.76782227 301.42526367 135.76782227 304.14526367 C140.38782227 304.14526367 145.00782227 304.14526367 149.76782227 304.14526367 C149.76782227 301.50526367 149.76782227 298.86526367 149.76782227 296.14526367 C145.14782227 296.14526367 140.52782227 296.14526367 135.76782227 296.14526367 Z M158.76782227 296.14526367 C158.76782227 298.78526367 158.76782227 301.42526367 158.76782227 304.14526367 C162.06782227 304.14526367 165.36782227 304.14526367 168.76782227 304.14526367 C168.76782227 301.50526367 168.76782227 298.86526367 168.76782227 296.14526367 C165.46782227 296.14526367 162.16782227 296.14526367 158.76782227 296.14526367 Z M-113.23217773 312.14526367 C-113.23217773 314.78526367 -113.23217773 317.42526367 -113.23217773 320.14526367 C-96.07217773 320.14526367 -78.91217773 320.14526367 -61.23217773 320.14526367 C-61.23217773 317.50526367 -61.23217773 314.86526367 -61.23217773 312.14526367 C-78.39217773 312.14526367 -95.55217773 312.14526367 -113.23217773 312.14526367 Z M116.76782227 312.14526367 C116.76782227 314.78526367 116.76782227 317.42526367 116.76782227 320.14526367 C133.92782227 320.14526367 151.08782227 320.14526367 168.76782227 320.14526367 C168.76782227 317.50526367 168.76782227 314.86526367 168.76782227 312.14526367 C151.60782227 312.14526367 134.44782227 312.14526367 116.76782227 312.14526367 Z M-129.23217773 328.14526367 C-129.23217773 330.78526367 -129.23217773 333.42526367 -129.23217773 336.14526367 C-127.25217773 336.14526367 -125.27217773 336.14526367 -123.23217773 336.14526367 C-123.23217773 333.50526367 -123.23217773 330.86526367 -123.23217773 328.14526367 C-125.21217773 328.14526367 -127.19217773 328.14526367 -129.23217773 328.14526367 Z M-113.23217773 328.14526367 C-113.23217773 330.78526367 -113.23217773 333.42526367 -113.23217773 336.14526367 C-96.07217773 336.14526367 -78.91217773 336.14526367 -61.23217773 336.14526367 C-61.23217773 333.50526367 -61.23217773 330.86526367 -61.23217773 328.14526367 C-78.39217773 328.14526367 -95.55217773 328.14526367 -113.23217773 328.14526367 Z M-52.23217773 328.14526367 C-52.23217773 330.78526367 -52.23217773 333.42526367 -52.23217773 336.14526367 C-50.25217773 336.14526367 -48.27217773 336.14526367 -46.23217773 336.14526367 C-46.23217773 333.50526367 -46.23217773 330.86526367 -46.23217773 328.14526367 C-48.21217773 328.14526367 -50.19217773 328.14526367 -52.23217773 328.14526367 Z M-37.23217773 328.14526367 C-37.23217773 343.98526367 -37.23217773 359.82526367 -37.23217773 376.14526367 C-29.97217773 376.14526367 -22.71217773 376.14526367 -15.23217773 376.14526367 C-15.23217773 360.30526367 -15.23217773 344.46526367 -15.23217773 328.14526367 C-22.49217773 328.14526367 -29.75217773 328.14526367 -37.23217773 328.14526367 Z M70.76782227 328.14526367 C70.76782227 343.98526367 70.76782227 359.82526367 70.76782227 376.14526367 C78.02782227 376.14526367 85.28782227 376.14526367 92.76782227 376.14526367 C92.76782227 360.30526367 92.76782227 344.46526367 92.76782227 328.14526367 C85.50782227 328.14526367 78.24782227 328.14526367 70.76782227 328.14526367 Z M101.76782227 328.14526367 C101.76782227 330.78526367 101.76782227 333.42526367 101.76782227 336.14526367 C103.74782227 336.14526367 105.72782227 336.14526367 107.76782227 336.14526367 C107.76782227 333.50526367 107.76782227 330.86526367 107.76782227 328.14526367 C105.78782227 328.14526367 103.80782227 328.14526367 101.76782227 328.14526367 Z M116.76782227 328.14526367 C116.76782227 330.78526367 116.76782227 333.42526367 116.76782227 336.14526367 C133.92782227 336.14526367 151.08782227 336.14526367 168.76782227 336.14526367 C168.76782227 333.50526367 168.76782227 330.86526367 168.76782227 328.14526367 C151.60782227 328.14526367 134.44782227 328.14526367 116.76782227 328.14526367 Z M177.76782227 328.14526367 C177.76782227 330.78526367 177.76782227 333.42526367 177.76782227 336.14526367 C180.07782227 336.14526367 182.38782227 336.14526367 184.76782227 336.14526367 C184.76782227 333.50526367 184.76782227 330.86526367 184.76782227 328.14526367 C182.45782227 328.14526367 180.14782227 328.14526367 177.76782227 328.14526367 Z M-129.23217773 344.14526367 C-129.23217773 354.70526367 -129.23217773 365.26526367 -129.23217773 376.14526367 C-127.25217773 376.14526367 -125.27217773 376.14526367 -123.23217773 376.14526367 C-123.23217773 365.58526367 -123.23217773 355.02526367 -123.23217773 344.14526367 C-125.21217773 344.14526367 -127.19217773 344.14526367 -129.23217773 344.14526367 Z M-113.23217773 344.14526367 C-113.23217773 354.70526367 -113.23217773 365.26526367 -113.23217773 376.14526367 C-96.07217773 376.14526367 -78.91217773 376.14526367 -61.23217773 376.14526367 C-61.23217773 365.58526367 -61.23217773 355.02526367 -61.23217773 344.14526367 C-63.21217773 344.14526367 -65.19217773 344.14526367 -67.23217773 344.14526367 C-67.26976196 345.08378174 -67.26976196 345.08378174 -67.30810547 346.04125977 C-67.42393046 348.86780987 -67.54671758 351.69401536 -67.66967773 354.52026367 C-67.70899414 355.50510742 -67.74831055 356.48995117 -67.78881836 357.50463867 C-67.85166016 358.91616211 -67.85166016 358.91616211 -67.91577148 360.35620117 C-67.9524292 361.2255127 -67.98908691 362.09482422 -68.02685547 362.99047852 C-68.23217773 365.14526367 -68.23217773 365.14526367 -69.23217773 367.14526367 C-81.44217773 367.14526367 -93.65217773 367.14526367 -106.23217773 367.14526367 C-106.56217773 359.55526367 -106.89217773 351.96526367 -107.23217773 344.14526367 C-109.21217773 344.14526367 -111.19217773 344.14526367 -113.23217773 344.14526367 Z M-98.23217773 344.14526367 C-98.23217773 349.42526367 -98.23217773 354.70526367 -98.23217773 360.14526367 C-90.97217773 360.14526367 -83.71217773 360.14526367 -76.23217773 360.14526367 C-76.23217773 354.86526367 -76.23217773 349.58526367 -76.23217773 344.14526367 C-83.49217773 344.14526367 -90.75217773 344.14526367 -98.23217773 344.14526367 Z M-52.23217773 344.14526367 C-52.23217773 354.70526367 -52.23217773 365.26526367 -52.23217773 376.14526367 C-50.25217773 376.14526367 -48.27217773 376.14526367 -46.23217773 376.14526367 C-46.23217773 365.58526367 -46.23217773 355.02526367 -46.23217773 344.14526367 C-48.21217773 344.14526367 -50.19217773 344.14526367 -52.23217773 344.14526367 Z M101.76782227 344.14526367 C101.76782227 354.70526367 101.76782227 365.26526367 101.76782227 376.14526367 C103.74782227 376.14526367 105.72782227 376.14526367 107.76782227 376.14526367 C107.76782227 365.58526367 107.76782227 355.02526367 107.76782227 344.14526367 C105.78782227 344.14526367 103.80782227 344.14526367 101.76782227 344.14526367 Z M116.76782227 344.14526367 C116.76782227 354.70526367 116.76782227 365.26526367 116.76782227 376.14526367 C133.92782227 376.14526367 151.08782227 376.14526367 168.76782227 376.14526367 C168.76782227 365.58526367 168.76782227 355.02526367 168.76782227 344.14526367 C166.78782227 344.14526367 164.80782227 344.14526367 162.76782227 344.14526367 C162.73023804 345.13707642 162.73023804 345.13707642 162.69189453 346.14892578 C162.57629124 349.12708672 162.45340473 352.10490287 162.33032227 355.08276367 C162.29100586 356.12368164 162.25168945 357.16459961 162.21118164 358.23706055 C162.14833984 359.72109375 162.14833984 359.72109375 162.08422852 361.23510742 C162.0475708 362.15155029 162.01091309 363.06799316 161.97314453 364.01220703 C161.76782227 366.14526367 161.76782227 366.14526367 160.76782227 367.14526367 C158.11326033 367.24621931 155.48527051 367.28497366 152.83032227 367.27807617 C151.63741577 367.27951126 151.63741577 367.27951126 150.42041016 367.28097534 C148.73575766 367.2816571 147.05110255 367.2798031 145.36645508 367.27563477 C142.7788303 367.27028642 140.19137911 367.27557986 137.60375977 367.28198242 C135.97094688 367.28132164 134.3381341 367.28004048 132.70532227 367.27807617 C131.92616455 367.2801004 131.14700684 367.28212463 130.34423828 367.28421021 C124.88277331 367.26021472 124.88277331 367.26021472 123.76782227 366.14526367 C123.61067572 364.5126961 123.51696813 362.87391029 123.45141602 361.23510742 C123.38857422 359.75107422 123.38857422 359.75107422 123.32446289 358.23706055 C123.28514648 357.19614258 123.24583008 356.15522461 123.20532227 355.08276367 C123.16213867 354.03797852 123.11895508 352.99319336 123.07446289 351.91674805 C122.96801002 349.32639483 122.86599467 346.73594182 122.76782227 344.14526367 C120.78782227 344.14526367 118.80782227 344.14526367 116.76782227 344.14526367 Z M131.76782227 344.14526367 C131.76782227 349.42526367 131.76782227 354.70526367 131.76782227 360.14526367 C139.02782227 360.14526367 146.28782227 360.14526367 153.76782227 360.14526367 C153.76782227 354.86526367 153.76782227 349.58526367 153.76782227 344.14526367 C146.50782227 344.14526367 139.24782227 344.14526367 131.76782227 344.14526367 Z M177.76782227 344.14526367 C177.76782227 354.70526367 177.76782227 365.26526367 177.76782227 376.14526367 C180.07782227 376.14526367 182.38782227 376.14526367 184.76782227 376.14526367 C184.76782227 365.58526367 184.76782227 355.02526367 184.76782227 344.14526367 C182.45782227 344.14526367 180.14782227 344.14526367 177.76782227 344.14526367 Z M-140.23217773 384.14526367 C-136.15951327 392.69650454 -136.15951327 392.69650454 -130.23217773 400.14526367 C-127.29944458 400.67535877 -124.93250318 400.88012998 -121.99462891 400.87158203 C-121.16648178 400.88837509 -120.33833466 400.90516815 -119.48509216 400.92247009 C-116.74806185 400.96995391 -114.012563 400.97973116 -111.27514648 400.98510742 C-109.36948519 401.00117688 -107.46383009 401.01799775 -105.55818176 401.03553772 C-101.56256824 401.06547873 -97.56749513 401.07473925 -93.57177734 401.07177734 C-88.45937462 401.07126957 -83.35045016 401.13948014 -78.23887157 401.22563839 C-74.30182603 401.28133356 -70.36561604 401.29137079 -66.42821693 401.28872871 C-64.54431493 401.29461718 -62.6603897 401.31666974 -60.77687645 401.35539055 C-50.57444836 401.91366691 -50.57444836 401.91366691 -41.58682251 398.05227661 C-39.72315971 395.4665547 -38.46050071 393.08026356 -37.23217773 390.14526367 C-36.24217773 388.16526367 -35.25217773 386.18526367 -34.23217773 384.14526367 C-69.21217773 384.14526367 -104.19217773 384.14526367 -140.23217773 384.14526367 Z M-25.29858398 385.94604492 C-25.79229492 386.77491211 -26.28600586 387.6037793 -26.79467773 388.45776367 C-27.2909668 389.25827148 -27.78725586 390.0587793 -28.29858398 390.88354492 C-28.93666992 391.95991211 -29.57475586 393.0362793 -30.23217773 394.14526367 C-30.79187256 394.7807312 -31.35156738 395.41619873 -31.92822266 396.07092285 C-39.50975843 405.56775774 -38.11805134 416.30428821 -37.91577148 427.87573242 C-37.90269758 430.0795992 -37.89274189 432.28348649 -37.88575745 434.48738098 C-37.85917332 440.25657427 -37.79053364 446.0245119 -37.71282959 451.79321289 C-37.64091194 457.69229146 -37.60918514 463.59157515 -37.57397461 469.4909668 C-37.49915313 481.04303638 -37.37613933 492.59384862 -37.23217773 504.14526367 C-29.97217773 504.14526367 -22.71217773 504.14526367 -15.23217773 504.14526367 C-15.23217773 464.54526367 -15.23217773 424.94526367 -15.23217773 384.14526367 C-22.68380476 383.2692772 -22.68380476 383.2692772 -25.29858398 385.94604492 Z M70.76782227 384.14526367 C70.76782227 423.74526367 70.76782227 463.34526367 70.76782227 504.14526367 C78.02782227 504.14526367 85.28782227 504.14526367 92.76782227 504.14526367 C92.99473298 491.51366764 93.17776684 478.88344891 93.28594398 466.25026703 C93.33789274 460.38262048 93.40822666 454.51645344 93.5222168 448.6496582 C93.6317494 442.97606613 93.69084571 437.30388689 93.7165947 431.62931824 C93.73491728 429.47643315 93.77069492 427.3236159 93.82512283 425.17134094 C94.16285212 411.24868743 92.77656333 401.73343734 83.90198898 390.68373108 C82.76782227 389.14526367 82.76782227 389.14526367 81.50991821 386.21643066 C80.64758072 385.191203 80.64758072 385.191203 79.76782227 384.14526367 C76.79782227 384.14526367 73.82782227 384.14526367 70.76782227 384.14526367 Z M89.76782227 384.14526367 C94.46552929 392.34582665 94.46552929 392.34582665 99.76782227 400.14526367 C102.61575175 400.59993375 105.09336594 400.79393511 107.9519043 400.8215332 C109.20371742 400.85614151 109.20371742 400.85614151 110.4808197 400.89144897 C113.24583379 400.96014498 116.00995404 400.99708352 118.77563477 401.02807617 C119.72148312 401.04188198 120.66733147 401.05568779 121.64184189 401.06991196 C126.65129018 401.14162693 131.66028701 401.18867479 136.67016602 401.21606445 C141.83386203 401.24911243 146.99205374 401.36583686 152.15390205 401.50235176 C156.13302962 401.59215928 160.11085413 401.61906921 164.09090805 401.62929916 C165.99291743 401.64504447 167.89488898 401.68421482 169.79590225 401.74774551 C179.69697877 402.40549911 179.69697877 402.40549911 188.48336029 398.73036957 C191.82209384 394.89595509 195.76782227 389.37546303 195.76782227 384.14526367 C160.78782227 384.14526367 125.80782227 384.14526367 89.76782227 384.14526367 Z M-129.23217773 408.14526367 C-129.23217773 431.90526367 -129.23217773 455.66526367 -129.23217773 480.14526367 C-127.25217773 480.14526367 -125.27217773 480.14526367 -123.23217773 480.14526367 C-123.23217773 456.38526367 -123.23217773 432.62526367 -123.23217773 408.14526367 C-125.21217773 408.14526367 -127.19217773 408.14526367 -129.23217773 408.14526367 Z M-113.23217773 408.14526367 C-113.23217773 431.90526367 -113.23217773 455.66526367 -113.23217773 480.14526367 C-96.07217773 480.14526367 -78.91217773 480.14526367 -61.23217773 480.14526367 C-61.23217773 456.38526367 -61.23217773 432.62526367 -61.23217773 408.14526367 C-78.39217773 408.14526367 -95.55217773 408.14526367 -113.23217773 408.14526367 Z M-52.23217773 408.14526367 C-52.23217773 431.90526367 -52.23217773 455.66526367 -52.23217773 480.14526367 C-50.25217773 480.14526367 -48.27217773 480.14526367 -46.23217773 480.14526367 C-46.23217773 456.38526367 -46.23217773 432.62526367 -46.23217773 408.14526367 C-48.21217773 408.14526367 -50.19217773 408.14526367 -52.23217773 408.14526367 Z M101.76782227 408.14526367 C101.76782227 431.90526367 101.76782227 455.66526367 101.76782227 480.14526367 C103.74782227 480.14526367 105.72782227 480.14526367 107.76782227 480.14526367 C107.76782227 456.38526367 107.76782227 432.62526367 107.76782227 408.14526367 C105.78782227 408.14526367 103.80782227 408.14526367 101.76782227 408.14526367 Z M116.76782227 408.14526367 C116.76782227 431.90526367 116.76782227 455.66526367 116.76782227 480.14526367 C133.92782227 480.14526367 151.08782227 480.14526367 168.76782227 480.14526367 C168.76782227 456.38526367 168.76782227 432.62526367 168.76782227 408.14526367 C151.60782227 408.14526367 134.44782227 408.14526367 116.76782227 408.14526367 Z M177.76782227 408.14526367 C177.76782227 431.90526367 177.76782227 455.66526367 177.76782227 480.14526367 C180.07782227 480.14526367 182.38782227 480.14526367 184.76782227 480.14526367 C184.76782227 456.38526367 184.76782227 432.62526367 184.76782227 408.14526367 C182.45782227 408.14526367 180.14782227 408.14526367 177.76782227 408.14526367 Z M-129.23217773 488.14526367 C-129.23217773 493.42526367 -129.23217773 498.70526367 -129.23217773 504.14526367 C-127.25217773 504.14526367 -125.27217773 504.14526367 -123.23217773 504.14526367 C-123.23217773 498.86526367 -123.23217773 493.58526367 -123.23217773 488.14526367 C-125.21217773 488.14526367 -127.19217773 488.14526367 -129.23217773 488.14526367 Z M-113.23217773 488.14526367 C-113.23217773 493.42526367 -113.23217773 498.70526367 -113.23217773 504.14526367 C-111.25217773 504.14526367 -109.27217773 504.14526367 -107.23217773 504.14526367 C-107.23217773 498.86526367 -107.23217773 493.58526367 -107.23217773 488.14526367 C-109.21217773 488.14526367 -111.19217773 488.14526367 -113.23217773 488.14526367 Z M-98.23217773 488.14526367 C-98.23217773 493.42526367 -98.23217773 498.70526367 -98.23217773 504.14526367 C-90.97217773 504.14526367 -83.71217773 504.14526367 -76.23217773 504.14526367 C-76.23217773 498.86526367 -76.23217773 493.58526367 -76.23217773 488.14526367 C-83.49217773 488.14526367 -90.75217773 488.14526367 -98.23217773 488.14526367 Z M-67.23217773 488.14526367 C-67.23217773 493.42526367 -67.23217773 498.70526367 -67.23217773 504.14526367 C-65.25217773 504.14526367 -63.27217773 504.14526367 -61.23217773 504.14526367 C-61.23217773 498.86526367 -61.23217773 493.58526367 -61.23217773 488.14526367 C-63.21217773 488.14526367 -65.19217773 488.14526367 -67.23217773 488.14526367 Z M-52.23217773 488.14526367 C-52.23217773 493.42526367 -52.23217773 498.70526367 -52.23217773 504.14526367 C-50.25217773 504.14526367 -48.27217773 504.14526367 -46.23217773 504.14526367 C-46.23217773 498.86526367 -46.23217773 493.58526367 -46.23217773 488.14526367 C-48.21217773 488.14526367 -50.19217773 488.14526367 -52.23217773 488.14526367 Z M101.76782227 488.14526367 C101.76782227 493.42526367 101.76782227 498.70526367 101.76782227 504.14526367 C103.74782227 504.14526367 105.72782227 504.14526367 107.76782227 504.14526367 C107.76782227 498.86526367 107.76782227 493.58526367 107.76782227 488.14526367 C105.78782227 488.14526367 103.80782227 488.14526367 101.76782227 488.14526367 Z M116.76782227 488.14526367 C116.76782227 493.42526367 116.76782227 498.70526367 116.76782227 504.14526367 C118.74782227 504.14526367 120.72782227 504.14526367 122.76782227 504.14526367 C122.76782227 498.86526367 122.76782227 493.58526367 122.76782227 488.14526367 C120.78782227 488.14526367 118.80782227 488.14526367 116.76782227 488.14526367 Z M131.76782227 488.14526367 C131.76782227 493.42526367 131.76782227 498.70526367 131.76782227 504.14526367 C139.02782227 504.14526367 146.28782227 504.14526367 153.76782227 504.14526367 C153.76782227 498.86526367 153.76782227 493.58526367 153.76782227 488.14526367 C146.50782227 488.14526367 139.24782227 488.14526367 131.76782227 488.14526367 Z M162.76782227 488.14526367 C162.76782227 493.42526367 162.76782227 498.70526367 162.76782227 504.14526367 C164.74782227 504.14526367 166.72782227 504.14526367 168.76782227 504.14526367 C168.76782227 498.86526367 168.76782227 493.58526367 168.76782227 488.14526367 C166.78782227 488.14526367 164.80782227 488.14526367 162.76782227 488.14526367 Z M177.76782227 488.14526367 C177.76782227 493.42526367 177.76782227 498.70526367 177.76782227 504.14526367 C180.07782227 504.14526367 182.38782227 504.14526367 184.76782227 504.14526367 C184.76782227 498.86526367 184.76782227 493.58526367 184.76782227 488.14526367 C182.45782227 488.14526367 180.14782227 488.14526367 177.76782227 488.14526367 Z " fill="#E6E6E6" transform="translate(172.232177734375,-0.145263671875)"/>
<path d="M0 0 C3.12864156 -0.30192678 6.0598836 -0.40917249 9.19140625 -0.38818359 C10.14433563 -0.39344055 11.09726501 -0.39869751 12.07907104 -0.40411377 C15.240379 -0.41735668 18.40118661 -0.40856044 21.5625 -0.3984375 C23.75203549 -0.400457 25.94157033 -0.40336739 28.13110352 -0.40713501 C32.72451163 -0.41156419 37.31774498 -0.40510816 41.91113281 -0.39111328 C47.80973724 -0.37402119 53.70793221 -0.38385918 59.60652161 -0.40183067 C64.12914129 -0.41265244 68.65166332 -0.40922955 73.17428589 -0.4014473 C75.34968107 -0.39944084 77.52508502 -0.40192009 79.70046997 -0.40888596 C82.7367514 -0.41647397 85.77236247 -0.40493336 88.80859375 -0.38818359 C90.16765335 -0.39729263 90.16765335 -0.39729263 91.5541687 -0.40658569 C94.05249023 -0.38095093 94.05249023 -0.38095093 98 0 C100.30240295 3.45360443 100.25691777 4.80499384 100.265625 8.875 C100.26949219 10.59976563 100.26949219 10.59976563 100.2734375 12.359375 C100.26570313 13.56078125 100.25796875 14.7621875 100.25 16 C100.26160156 17.80210938 100.26160156 17.80210938 100.2734375 19.640625 C100.27085937 20.79046875 100.26828125 21.9403125 100.265625 23.125 C100.26336914 24.17945312 100.26111328 25.23390625 100.25878906 26.3203125 C100 29 100 29 98 32 C94.7421875 32.29296875 94.7421875 32.29296875 90.875 32.1875 C88.95300781 32.14689453 88.95300781 32.14689453 86.9921875 32.10546875 C86.00476563 32.07066406 85.01734375 32.03585938 84 32 C84.04125 32.94875 84.0825 33.8975 84.125 34.875 C84 38 84 38 82 40 C79.22264099 40.24723816 79.22264099 40.24723816 75.63842773 40.24291992 C74.66016525 40.24576744 74.66016525 40.24576744 73.66213989 40.24867249 C71.50250294 40.25238279 69.3432009 40.24167372 67.18359375 40.23046875 C65.68669169 40.22927709 64.18978887 40.22882376 62.69288635 40.2290802 C59.55473149 40.22751496 56.41669064 40.21922151 53.27856445 40.20581055 C49.24756269 40.18880597 45.21668616 40.18499659 41.18565273 40.18575573 C38.09482112 40.18548438 35.00401711 40.18000915 31.91319466 40.17275429 C30.42637402 40.16956303 28.93955024 40.16759915 27.45272636 40.16686058 C25.37915543 40.16470265 23.30571981 40.1559709 21.23217773 40.14526367 C20.05018295 40.14145187 18.86818817 40.13764008 17.65037537 40.13371277 C15 40 15 40 14 39 C13.95907063 36.66702567 13.95758277 34.33294775 14 32 C13.01257813 32.02320313 12.02515625 32.04640625 11.0078125 32.0703125 C9.72648438 32.08835938 8.44515625 32.10640625 7.125 32.125 C5.84882813 32.14820313 4.57265625 32.17140625 3.2578125 32.1953125 C0 32 0 32 -2 30 C-2.25878906 27.34204102 -2.25878906 27.34204102 -2.265625 24.00390625 C-2.26820313 22.80572266 -2.27078125 21.60753906 -2.2734375 20.37304688 C-2.26570312 19.11556641 -2.25796875 17.85808594 -2.25 16.5625 C-2.25773438 15.30888672 -2.26546875 14.05527344 -2.2734375 12.76367188 C-2.27085937 11.56419922 -2.26828125 10.36472656 -2.265625 9.12890625 C-2.26336914 8.02619385 -2.26111328 6.92348145 -2.25878906 5.78735352 C-2 3 -2 3 0 0 Z M7 8 C7 13.28 7 18.56 7 24 C13.93 24.495 13.93 24.495 21 25 C21.66 27.31 22.32 29.62 23 32 C40.16 32 57.32 32 75 32 C75.66 29.69 76.32 27.38 77 25 C81.29 24.67 85.58 24.34 90 24 C90 18.72 90 13.44 90 8 C62.61 8 35.22 8 7 8 Z " fill="#E6E6E6" transform="translate(151,80)"/>
<path d="M0 0 C5.38095226 3.1554967 8.65819578 8.1002949 10.41796875 14.01953125 C11.45396816 20.53299291 10.01475129 25.91320929 6.6875 31.5625 C3.16263335 35.90879575 -1.90355724 38.42325382 -7.3125 39.5625 C-13.61721078 40.0448889 -18.32730985 38.06403014 -23.359375 34.3515625 C-28.12249034 29.98854885 -29.52202951 25.4264443 -29.8125 19.0625 C-29.54534997 12.83187199 -27.93629789 8.29363508 -23.59375 3.7734375 C-16.94335739 -2.17246436 -8.4070234 -3.57055048 0 0 Z M-19.3125 12.5625 C-20.51893566 16.18180698 -20.63518559 18.75481005 -20.3125 22.5625 C-18.68111406 25.65048053 -17.23744088 27.8289262 -14.5 30 C-10.05036539 31.14419176 -6.4446598 30.19147767 -2.5 28 C0.41016986 24.7572393 1.50874207 21.91769326 1.6875 17.5625 C0.61971767 13.94390432 -0.52131623 11.5058345 -2.9375 8.625 C-9.52404549 5.67838754 -14.95952101 6.71318449 -19.3125 12.5625 Z " fill="#E6E6E6" transform="translate(286.3125,81.4375)"/>
<path d="M0 0 C5.45256971 2.37433671 8.71751643 6.33195297 11.71484375 11.3828125 C13.6082487 17.06302734 13.63616282 23.12382919 11.15234375 28.6328125 C8.06886819 33.9963228 3.99941792 37.40975313 -1.66015625 39.8203125 C-7.53952443 40.73262825 -12.21279098 40.45884831 -17.53515625 37.6953125 C-23.5864673 32.60671002 -26.75118661 28.01054936 -27.66015625 20.1328125 C-27.03091176 13.84036755 -25.22446159 7.6200846 -20.28515625 3.3828125 C-13.73872917 -0.98147222 -7.77821808 -2.10078369 0 0 Z M-16.28515625 12.3828125 C-18.13682319 16.85908992 -18.72081865 20.14461411 -17.09765625 24.7578125 C-16.20046875 26.0571875 -16.20046875 26.0571875 -15.28515625 27.3828125 C-14.87265625 27.9809375 -14.46015625 28.5790625 -14.03515625 29.1953125 C-11.18274307 31.13087859 -8.68494587 31.26557838 -5.28515625 31.3828125 C-2.03946662 29.90749903 0.40583587 28.08619638 2.71484375 25.3828125 C4.19635988 20.72535162 4.18549058 17.30729735 1.96484375 12.9453125 C-1.07261683 9.4859824 -2.52432178 8.45644164 -7.16015625 8.0078125 C-11.38645302 8.15542213 -13.50773281 9.03356659 -16.28515625 12.3828125 Z " fill="#E6E6E6" transform="translate(130.28515625,80.6171875)"/>
<path d="M0 0 C4.38754438 2.15388542 7.52067915 4.77597188 10 9 C11.22367828 13.92823855 11.30336272 17.91146317 9.9375 22.8125 C7.37577082 27.02695768 4.47111665 29.76444167 0 32 C-5.31135952 32.52940021 -9.67272741 32.66363629 -14.5 30.25 C-18.31709414 26.81461527 -20.67780344 24.02125297 -21.23828125 18.765625 C-21.42182356 12.54450678 -20.79743001 8.99661843 -17 4 C-11.96844758 -0.78611084 -6.6108623 -0.97537313 0 0 Z M-11 11 C-12.40457737 13.80915474 -12.24895157 15.88810534 -12 19 C-10.6413286 21.51354208 -9.67574498 22.66212751 -7.125 23.9375 C-4.02169323 24.02877373 -2.46004554 22.81266513 0 21 C2.31537595 18.18291805 2.31537595 18.18291805 1.8125 15 C0.98173446 11.93255801 0.55733651 10.79960718 -2 9 C-5.81318266 7.22051476 -7.75736127 8.63375011 -11 11 Z " fill="#E6E6E6" transform="translate(90,248)"/>
<path d="M0 0 C3.76633297 1.87504939 6.3532926 4.51723568 8.2109375 8.2890625 C9.78625763 13.15402173 9.8516228 17.87958547 7.95703125 22.65234375 C5.41274036 27.13161315 2.93148722 29.81335704 -2.125 31.33984375 C-7.75802041 32.07661298 -12.82980907 31.96829345 -17.65234375 28.73046875 C-21.46574048 25.12948934 -23.3081558 20.53200039 -23.625 15.33984375 C-23.2741087 9.39808447 -20.76498858 4.93983261 -16.5625 0.83984375 C-11.1573204 -1.51878007 -5.66941108 -1.76126925 0 0 Z M-12.125 9.33984375 C-14.04699114 11.90249861 -14.13528636 13.17183324 -13.9375 16.40234375 C-13.10159817 19.42445038 -12.65265737 20.5611219 -10.125 22.33984375 C-8.2727633 23.34462412 -8.2727633 23.34462412 -6.125 23.33984375 C-2.42740822 21.57120786 -2.42740822 21.57120786 -0.125 18.33984375 C0.27056513 14.70064457 0.36954972 12.99335588 -1.875 10.02734375 C-5.66149382 7.18747339 -8.10466068 6.52560623 -12.125 9.33984375 Z " fill="#E6E6E6" transform="translate(322.125,248.66015625)"/>
</svg>
