<?xml version="1.0" standalone="no"?>
<!DOCTYPE svg PUBLIC "-//W3C//DTD SVG 20010904//EN"
 "http://www.w3.org/TR/2001/REC-SVG-20010904/DTD/svg10.dtd">
<svg version="1.0" xmlns="http://www.w3.org/2000/svg"
 width="874.000000pt" height="512.000000pt" viewBox="0 0 874.000000 512.000000"
 preserveAspectRatio="xMidYMid meet">

<g transform="translate(0.000000,512.000000) scale(0.100000,-0.100000)"
fill="#000000" stroke="none">
<path d="M4280 4808 c-90 -46 -112 -109 -115 -321 l-2 -159 -89 -52 c-49 -29
-143 -88 -209 -131 -145 -95 -262 -165 -275 -165 -6 0 -10 23 -10 50 0 59 -24
90 -70 90 -53 0 -65 -34 -66 -185 0 -124 -2 -134 -34 -210 -27 -66 -34 -96
-38 -175 -7 -161 34 -285 129 -385 l49 -52 0 -174 0 -175 -36 -13 c-52 -19
-120 -88 -133 -136 -6 -22 -11 -88 -11 -146 l0 -105 -122 -86 c-122 -85 -177
-118 -198 -118 -5 0 -10 17 -10 38 0 34 5 42 45 70 55 38 59 70 16 110 -25 24
-29 36 -34 105 -7 100 -33 154 -104 215 -49 43 -197 152 -231 171 -9 5 -16 33
-19 75 -5 53 -10 70 -27 81 -30 21 -53 18 -81 -10 -20 -19 -25 -35 -25 -72 0
-59 -10 -71 -120 -154 -161 -120 -208 -188 -215 -307 -4 -60 -6 -67 -39 -94
-28 -23 -36 -37 -36 -61 0 -43 9 -53 52 -61 28 -5 39 -13 43 -29 3 -12 4 -92
3 -177 l-3 -155 -497 -3 -496 -2 -7 86 c-7 83 0 258 11 276 3 4 18 8 34 8 65
0 80 62 26 113 -30 29 -34 39 -39 100 -11 126 -58 191 -217 301 -133 92 -140
101 -140 162 0 57 -14 80 -56 90 -15 4 -34 0 -49 -10 -21 -14 -25 -24 -25 -67
0 -69 -18 -95 -109 -159 -42 -30 -103 -82 -136 -115 -52 -51 -65 -71 -84 -131
-15 -48 -20 -82 -16 -105 6 -31 2 -38 -29 -67 -20 -18 -36 -41 -36 -50 0 -19
26 -47 72 -75 l28 -17 0 -1045 0 -1045 -185 0 c-199 0 -273 -10 -301 -41 -16
-18 -16 -22 -1 -53 15 -33 17 -34 99 -42 104 -9 8507 -9 8577 1 73 10 67 30
-6 21 -74 -9 -8277 -8 -8481 1 -139 5 -154 8 -167 27 -13 18 -13 22 0 36 13
12 56 16 250 18 l235 3 0 1068 0 1067 -39 22 c-66 38 -69 47 -28 90 33 33 37
44 37 88 0 27 5 55 11 61 7 7 13 28 14 48 3 51 44 97 174 195 62 47 119 96
127 110 7 14 13 48 14 77 0 42 4 54 21 63 16 9 26 8 45 -5 20 -13 24 -23 24
-68 0 -62 14 -78 146 -170 159 -111 206 -177 206 -298 1 -66 2 -69 35 -91 27
-19 33 -29 31 -53 -3 -27 -7 -31 -43 -35 -40 -5 -40 -5 -48 -60 -10 -63 -4
-337 7 -348 13 -12 1008 -2 1023 10 18 15 18 347 0 370 -6 9 -28 21 -47 26
-30 7 -35 12 -35 38 0 22 8 34 38 53 37 24 37 25 37 90 0 118 46 182 228 321
46 35 87 71 93 81 5 10 9 38 9 63 0 53 26 88 58 79 23 -6 32 -30 32 -89 0 -50
7 -59 100 -122 127 -87 206 -157 229 -205 14 -28 24 -74 28 -128 6 -75 9 -85
35 -107 15 -13 28 -30 28 -37 0 -8 -19 -26 -42 -42 -42 -28 -43 -30 -46 -91
-2 -46 0 -62 10 -62 28 0 118 51 228 129 63 44 118 81 122 81 4 0 8 45 8 100
0 142 14 197 60 241 21 20 59 45 84 54 l46 18 0 184 0 185 -48 43 c-111 100
-166 293 -131 457 7 29 25 85 40 125 26 65 29 82 29 193 0 125 8 160 38 160
37 0 47 -18 52 -90 l5 -72 56 30 c31 16 144 86 252 155 107 69 222 139 255
156 l61 31 3 177 c3 167 5 181 28 228 33 65 87 95 175 95 87 0 142 -30 175
-95 23 -46 25 -61 29 -226 l3 -177 49 -26 c27 -14 140 -83 251 -154 196 -125
296 -182 318 -182 6 0 10 27 10 64 0 66 14 96 45 96 34 0 45 -41 45 -162 0
-108 3 -126 35 -219 40 -117 51 -201 37 -279 -23 -123 -88 -246 -149 -285
l-32 -20 -1 -198 c0 -180 2 -198 18 -203 91 -28 107 -39 134 -94 24 -47 29
-72 34 -178 l7 -122 66 -49 c147 -107 253 -170 289 -171 8 0 12 19 12 60 0 68
-21 100 -65 100 -14 0 -29 8 -35 21 -10 17 -6 25 25 55 20 19 41 34 46 34 5 0
9 31 9 69 0 117 36 171 195 293 99 76 135 118 135 159 0 15 3 41 6 58 6 27 10
31 40 31 38 0 42 -9 46 -94 l3 -50 81 -55 c218 -149 248 -186 265 -327 10 -76
16 -93 40 -119 16 -17 29 -36 29 -42 0 -7 -19 -25 -42 -40 l-43 -29 -3 -187
-2 -187 513 0 514 0 6 97 c4 54 7 138 7 186 l0 88 -31 17 c-87 48 -92 66 -31
107 34 24 36 27 37 88 3 120 58 199 215 310 89 63 115 98 123 167 8 62 12 70
42 70 32 0 45 -27 45 -93 l0 -53 100 -68 c128 -86 208 -160 231 -211 13 -29
19 -65 19 -126 l0 -87 31 -6 c27 -5 30 -9 27 -38 -2 -27 -10 -36 -41 -51 l-37
-17 2 -1068 3 -1067 233 -3 c133 -1 232 1 232 7 0 17 -46 21 -248 21 l-202 0
2 1048 3 1047 32 14 c60 26 66 112 10 126 -20 5 -22 12 -22 78 -1 104 -23 153
-99 224 -34 32 -105 88 -159 123 l-96 65 -1 52 c0 28 -4 63 -10 77 -8 23 -15
26 -54 26 -40 0 -45 -3 -55 -31 -6 -18 -11 -43 -11 -56 0 -54 -27 -91 -112
-150 -158 -110 -215 -192 -226 -319 -4 -57 -8 -67 -33 -85 -65 -46 -61 -84 13
-124 l51 -28 -7 -81 c-3 -44 -6 -120 -6 -169 l0 -87 -492 2 -493 3 -3 167 -2
166 42 29 c56 38 62 72 19 111 -22 19 -31 35 -31 57 0 52 -21 147 -40 185 -24
47 -65 84 -185 168 -140 99 -135 93 -135 155 0 68 -15 89 -64 90 -49 1 -66
-21 -66 -86 0 -46 -3 -53 -47 -96 -27 -25 -85 -74 -130 -109 -117 -91 -162
-170 -163 -289 0 -36 -4 -44 -29 -59 -63 -38 -65 -112 -3 -125 18 -4 39 -12
47 -19 19 -16 21 -90 2 -90 -18 0 -115 60 -225 138 l-89 62 -6 118 c-9 193
-40 245 -169 286 -16 5 -18 23 -18 182 l0 176 44 39 c24 21 59 68 79 107 79
149 86 290 23 469 -33 94 -35 109 -33 210 2 121 -11 170 -49 179 -54 14 -94
-33 -94 -111 l0 -35 -42 21 c-24 12 -133 79 -243 149 -110 70 -221 139 -247
154 l-48 28 0 146 c-1 165 -10 220 -46 275 -35 53 -90 77 -179 77 -54 0 -81
-5 -115 -22z"/>
<path d="M4342 4707 c-47 -27 -57 -55 -61 -180 -2 -65 0 -133 3 -152 l7 -35
104 0 c57 0 105 3 107 8 2 4 1 78 -2 165 l-5 159 -28 24 c-31 27 -87 32 -125
11z m97 -22 c16 -8 31 -22 35 -30 3 -9 6 -79 6 -156 l0 -139 -84 0 -85 0 -7
46 c-3 25 -4 89 -2 142 5 92 7 97 37 124 35 31 59 35 100 13z"/>
<path d="M4325 4240 c-103 -8 -148 -25 -256 -97 -41 -27 -129 -82 -195 -121
-286 -168 -388 -298 -388 -497 0 -82 21 -159 64 -232 l30 -53 305 0 304 0 5
33 c3 17 7 69 10 115 5 103 37 176 100 227 56 46 92 53 143 26 50 -25 89 -70
122 -141 21 -46 25 -70 25 -152 l1 -98 307 0 307 0 31 38 c39 47 70 147 70
226 0 134 -51 247 -156 345 -70 65 -547 363 -609 380 -43 12 -79 12 -220 1z
m499 -185 c274 -169 351 -230 403 -316 81 -135 80 -332 -1 -434 l-24 -30 -290
-3 -289 -4 -6 95 c-7 123 -39 199 -109 262 -79 71 -144 72 -221 4 -65 -57 -99
-131 -104 -227 -2 -42 -6 -92 -9 -109 l-5 -33 -283 0 c-322 0 -295 -8 -343 95
-25 54 -28 70 -28 170 0 104 2 114 33 177 47 95 153 192 323 292 74 44 176
106 227 139 126 81 148 87 322 84 l145 -2 259 -160z"/>
<path d="M4356 3539 c-43 -34 -51 -58 -56 -178 l-5 -114 88 6 c111 7 117 13
117 109 0 84 -22 142 -65 176 -34 27 -45 27 -79 1z m91 -47 c24 -37 39 -124
29 -177 -6 -30 -11 -35 -35 -35 -16 0 -49 -3 -75 -6 l-46 -7 0 86 c0 47 5 98
11 114 27 71 77 82 116 25z"/>
<path d="M3670 2955 l0 -195 135 0 135 0 0 78 c0 59 5 85 20 110 24 39 42 40
69 6 18 -22 21 -41 21 -111 l0 -84 153 3 152 3 3 103 3 102 29 0 c41 0 54 -29
54 -122 l0 -76 35 -6 c83 -13 182 -18 224 -12 l46 7 -6 48 c-7 64 13 148 39
162 16 9 25 6 44 -12 22 -21 24 -30 24 -116 l0 -93 130 0 130 0 0 200 0 200
-720 0 -720 0 0 -195z m1420 -5 l0 -181 -107 3 -108 3 -3 89 c-3 81 -5 92 -28
113 -65 60 -124 -8 -124 -145 l0 -49 -38 -7 c-21 -3 -76 -1 -122 4 -47 5 -86
10 -87 10 -2 0 -3 20 -3 45 0 24 -5 66 -11 93 -12 61 -42 79 -95 62 l-34 -12
0 -99 0 -99 -130 0 -130 0 0 79 c0 71 -3 83 -26 111 -35 41 -70 38 -101 -9
-19 -28 -23 -48 -23 -107 l0 -74 -110 0 -110 0 0 175 0 175 695 0 695 0 0
-180z"/>
<path d="M792 2720 c-179 -134 -224 -197 -205 -293 8 -41 9 -42 58 -49 28 -3
156 -7 286 -7 l237 -1 6 23 c13 49 6 129 -14 162 -19 31 -162 146 -247 198
l-41 26 -80 -59z m245 -82 c48 -37 95 -81 105 -96 18 -28 25 -116 10 -139 -6
-10 -70 -11 -275 -6 l-267 6 0 54 c0 30 6 66 14 82 16 30 84 91 185 164 l63
47 39 -22 c21 -12 78 -52 126 -90z"/>
<path d="M2586 2740 c-119 -84 -193 -149 -212 -187 -18 -38 -25 -156 -9 -171
4 -4 125 -7 269 -7 229 0 265 2 288 17 56 37 43 132 -29 209 -40 43 -198 160
-235 174 -8 3 -40 -13 -72 -35z m148 -40 c89 -58 162 -123 182 -161 8 -16 14
-48 14 -73 0 -37 -4 -48 -22 -58 -28 -15 -421 -24 -483 -11 l-40 9 -3 54 c-2
43 3 63 20 92 22 36 222 198 244 198 6 0 46 -22 88 -50z"/>
<path d="M6066 2740 c-106 -75 -197 -153 -213 -184 -17 -31 -22 -153 -8 -175
4 -7 102 -11 289 -11 l284 0 6 23 c11 41 6 128 -9 156 -8 16 -35 47 -60 69
-42 37 -218 162 -228 162 -2 0 -30 -18 -61 -40z m145 -41 c161 -111 199 -154
199 -226 0 -78 19 -73 -281 -73 l-269 0 0 63 c0 69 12 94 70 144 60 52 184
143 196 143 6 0 44 -23 85 -51z"/>
<path d="M7834 2736 c-192 -137 -224 -174 -224 -262 0 -102 -27 -94 300 -94
l288 0 6 23 c11 40 6 118 -9 146 -8 16 -35 47 -60 69 -52 46 -219 162 -232
162 -4 -1 -36 -20 -69 -44z m157 -37 c184 -127 219 -178 193 -277 l-6 -22
-272 2 -271 3 0 67 c0 60 3 70 30 98 40 43 223 180 239 180 7 0 46 -23 87 -51z"/>
<path d="M3571 2650 c-18 -4 -45 -19 -59 -33 -21 -21 -26 -37 -29 -99 -5 -68
-3 -74 19 -88 20 -13 143 -15 917 -18 l894 -3 -5 84 c-4 87 -16 114 -60 145
-21 15 -96 17 -833 19 -445 1 -825 -2 -844 -7z m1662 -31 c34 -15 47 -43 54
-113 l6 -63 -78 -6 c-97 -9 -1462 -7 -1605 2 l-105 6 2 70 c1 62 4 72 28 92
l26 23 824 0 c565 0 831 -3 848 -11z"/>
<path d="M3533 2320 c-39 -9 -66 -26 -182 -115 l-92 -70 468 -3 c258 -1 483 0
502 3 22 4 53 25 91 61 34 32 66 54 79 54 14 0 38 -18 64 -46 23 -26 56 -53
74 -60 35 -15 328 -17 766 -5 l228 6 -102 75 c-166 122 -51 110 -1019 109
-465 -1 -859 -4 -877 -9z m1758 -31 c13 -7 57 -37 98 -68 l74 -56 -439 -6
c-241 -3 -452 -2 -469 3 -16 4 -51 31 -76 58 -63 68 -96 69 -159 4 -74 -76
-56 -74 -545 -74 -239 0 -435 4 -435 8 0 18 174 136 208 141 19 3 414 5 877 5
661 -2 847 -5 866 -15z"/>
<path d="M622 2268 c-9 -9 -12 -104 -12 -365 l0 -353 273 2 272 3 3 363 2 362
-263 0 c-191 0 -266 -3 -275 -12z m508 -353 l0 -345 -250 0 -250 0 0 338 c0
186 3 342 7 345 3 4 116 7 250 7 l243 0 0 -345z"/>
<path d="M841 2044 c-18 -23 -21 -41 -21 -130 0 -92 2 -106 21 -125 30 -30 80
-23 98 16 20 41 18 182 -3 222 -25 50 -64 57 -95 17z m55 -2 c24 -15 34 -54
34 -126 0 -41 -4 -86 -10 -100 -11 -30 -40 -34 -64 -10 -23 22 -23 190 0 222
16 24 23 26 40 14z"/>
<path d="M2390 2261 c-6 -13 -10 -146 -10 -366 l0 -345 273 2 272 3 0 110 0
110 -44 21 c-24 11 -47 29 -51 40 -3 10 -4 79 -2 152 3 113 7 134 21 138 9 3
31 12 49 20 31 13 32 16 32 74 l0 60 -265 0 c-251 0 -265 -1 -275 -19z m520
-45 c0 -40 -3 -45 -32 -56 -18 -6 -40 -15 -48 -19 -19 -10 -28 -76 -29 -207
-1 -113 12 -145 66 -159 15 -3 31 -12 35 -18 10 -16 10 -159 0 -175 -7 -9 -64
-12 -253 -10 l-244 3 -3 329 c-2 234 1 333 9 342 9 11 61 14 255 14 l244 0 0
-44z"/>
<path d="M2632 2060 c-32 -13 -52 -68 -52 -140 0 -110 44 -167 108 -141 29 12
30 16 37 96 4 46 4 92 2 102 -3 10 -8 30 -11 44 -3 14 -17 31 -31 37 -14 7
-27 12 -28 11 -1 0 -12 -4 -25 -9z m56 -32 c8 -8 12 -48 12 -115 0 -98 -1
-104 -22 -112 -32 -12 -54 3 -68 45 -14 41 -8 140 9 173 13 23 50 28 69 9z"/>
<path d="M5864 2266 c-3 -7 -4 -37 -2 -66 3 -52 3 -53 48 -69 44 -16 45 -18
53 -71 4 -30 7 -97 5 -148 -3 -103 -14 -122 -70 -122 l-28 0 0 -114 0 -113
175 -5 c186 -6 328 3 351 23 12 9 14 70 14 355 l0 344 -270 0 c-220 0 -272 -3
-276 -14z m526 -336 c0 -305 -1 -331 -17 -338 -10 -4 -121 -7 -248 -7 l-230 0
0 89 0 90 32 8 c54 14 63 38 62 168 0 63 -3 133 -7 154 -6 35 -12 41 -50 54
-41 13 -42 15 -42 57 l0 44 93 4 c50 1 163 4 250 5 l157 2 0 -330z"/>
<path d="M6080 2041 c-13 -25 -13 -201 0 -235 20 -52 76 -57 108 -8 21 32 24
203 4 240 -17 30 -96 32 -112 3z m94 -17 c10 -26 7 -194 -4 -215 -15 -28 -54
-24 -68 6 -13 27 -16 164 -6 203 5 17 14 22 39 22 21 0 35 -6 39 -16z"/>
<path d="M7640 1920 l0 -360 265 0 265 0 0 360 0 360 -265 0 -265 0 0 -360z
m458 334 l52 -7 0 -333 0 -334 -240 0 -240 0 0 340 0 340 188 0 c103 0 211 -3
240 -6z"/>
<path d="M7854 2035 c-13 -20 -16 -43 -12 -118 5 -113 25 -160 66 -155 45 5
64 53 66 167 1 115 -7 131 -65 131 -30 0 -42 -5 -55 -25z m94 -97 c2 -73 -1
-105 -13 -128 -33 -65 -64 -20 -72 106 -7 100 4 127 50 122 l32 -3 3 -97z"/>
<path d="M4352 2096 c-34 -39 -49 -79 -55 -153 l-4 -53 103 0 104 0 0 50 c0
28 -7 67 -16 88 -16 41 -71 102 -90 102 -7 0 -25 -15 -42 -34z m76 -19 c27
-29 52 -88 52 -126 0 -34 -17 -41 -104 -41 l-59 0 7 58 c7 59 45 132 69 132 8
0 23 -10 35 -23z"/>
<path d="M3560 2040 l-645 -5 0 -75 0 -75 632 -3 c723 -3 646 -14 656 101 4
37 5 66 4 65 -1 -2 -292 -5 -647 -8z m604 -26 c19 -7 22 -84 4 -102 -14 -14
-722 -17 -1046 -5 l-182 6 0 54 0 53 604 0 c332 0 611 -3 620 -6z"/>
<path d="M4594 1978 c3 -29 6 -63 6 -75 l0 -23 635 0 635 0 0 75 0 75 -641 0
-642 0 7 -52z m1254 -20 l3 -48 -615 0 c-596 0 -616 1 -616 19 0 10 -3 33 -6
50 l-7 31 619 -2 619 -3 3 -47z"/>
<path d="M3297 1788 c-8 -5 -13 -50 -15 -123 l-4 -115 261 0 261 0 0 115 c0
84 -3 117 -12 120 -22 8 -479 10 -491 3z m473 -118 l0 -100 -229 0 -228 0 -7
38 c-8 49 -8 147 1 155 3 4 109 7 235 7 l228 0 0 -100z"/>
<path d="M1352 1781 c-52 -4 -96 -11 -100 -18 -4 -6 -6 -56 -4 -112 l3 -101
525 0 524 0 0 120 0 120 -427 -2 c-236 -1 -470 -4 -521 -7z m918 -111 l0 -100
-497 2 -498 3 0 90 0 90 235 5 c129 3 353 7 498 8 l262 2 0 -100z"/>
<path d="M3022 1213 l3 -578 80 0 80 0 3 571 2 572 -22 6 c-13 3 -51 6 -86 6
l-62 0 2 -577z m101 551 l37 -7 0 -548 0 -549 -60 0 -60 0 0 548 c0 302 3 552
7 555 8 9 27 9 76 1z"/>
<path d="M3910 1775 c0 -8 -7 -15 -15 -15 -13 0 -15 -69 -15 -560 l0 -560 85
0 85 0 0 575 0 575 -70 0 c-56 0 -70 -3 -70 -15z m110 -560 l0 -555 -55 0 -55
0 0 549 c0 430 3 550 13 554 6 3 31 6 55 6 l42 1 0 -555z"/>
<path d="M4147 1783 c-4 -3 -7 -57 -7 -120 l0 -113 260 0 260 0 0 120 0 120
-253 0 c-140 0 -257 -3 -260 -7z m488 -113 l0 -95 -237 -3 -238 -2 0 100 0
100 238 -2 237 -3 0 -95z"/>
<path d="M5226 1783 c-235 -4 -226 1 -226 -138 l0 -95 249 0 c207 0 250 2 254
14 3 8 7 61 8 118 l2 103 -49 0 c-27 1 -134 -1 -238 -2z m264 -80 c0 -32 -3
-75 -6 -96 l-7 -37 -226 2 -226 3 -3 79 c-2 44 -1 85 2 93 4 10 53 13 236 13
l230 0 0 -57z"/>
<path d="M5612 1213 l3 -578 78 -3 77 -3 0 581 0 580 -80 0 -80 0 2 -577z
m138 2 l0 -555 -60 0 -60 0 0 555 0 555 60 0 60 0 0 -555z"/>
<path d="M6518 1771 c-14 -16 -15 -36 -11 -120 l6 -101 513 0 514 0 0 120 0
120 -503 0 c-482 0 -503 -1 -519 -19z m1002 -101 l0 -100 -495 0 -495 0 0 100
0 100 495 0 495 0 0 -100z"/>
<path d="M4750 1220 c0 -491 2 -560 15 -560 8 0 15 -4 15 -10 0 -6 28 -10 65
-10 l65 0 0 570 0 570 -80 0 -80 0 0 -560z m138 -12 l2 -548 -55 0 -55 0 0
551 0 550 53 -3 52 -3 3 -547z"/>
<path d="M3280 1352 l0 -142 255 0 255 0 0 125 0 125 -237 0 c-206 0 -239 2
-255 17 -17 16 -18 11 -18 -125z m490 -17 l0 -105 -235 0 -235 0 0 105 0 105
235 0 235 0 0 -105z"/>
<path d="M1259 1454 c-11 -21 -14 -75 -14 -243 0 -119 3 -224 7 -233 7 -17 40
-18 497 -18 294 0 500 4 515 10 l26 10 0 240 0 240 -498 0 c-325 0 -502 4
-508 10 -7 7 -15 2 -25 -16z m1011 -238 l0 -223 -31 -7 c-17 -3 -240 -6 -495
-6 -356 0 -465 3 -470 12 -9 14 -7 425 2 439 3 5 222 9 500 9 l494 0 0 -224z"/>
<path d="M1723 1253 c-19 -7 -16 -88 3 -107 24 -25 69 -20 93 10 26 33 27 66
3 87 -18 16 -72 21 -99 10z m86 -31 c21 -40 -31 -90 -64 -62 -15 13 -20 61 -8
73 14 14 62 7 72 -11z"/>
<path d="M2389 1438 c-17 -39 -19 -442 -2 -459 6 -6 112 -8 274 -7 l264 3 3
243 2 242 -249 0 c-137 0 -256 2 -264 6 -9 3 -19 -6 -28 -28z m521 -210 c0
-117 -4 -219 -8 -226 -7 -9 -64 -12 -253 -10 l-244 3 -3 190 c-2 105 0 205 3
223 l6 32 249 0 250 0 0 -212z"/>
<path d="M2605 1245 c-32 -31 -32 -59 1 -91 27 -28 64 -27 93 1 23 22 18 75
-8 97 -31 25 -57 23 -86 -7z m80 -45 c0 -32 -3 -35 -32 -38 -24 -2 -34 2 -43
17 -17 34 4 63 43 59 29 -3 32 -6 32 -38z"/>
<path d="M610 1434 c-11 -28 -13 -292 -3 -397 l6 -67 271 2 271 3 3 243 2 242
-270 0 -270 0 -10 -26z m530 -203 c0 -115 -3 -216 -6 -225 -5 -14 -37 -16
-254 -16 l-247 0 -8 111 c-6 101 1 313 12 332 2 4 116 7 254 7 l249 0 0 -209z"/>
<path d="M835 1235 c-30 -30 -31 -48 -4 -74 63 -59 136 -10 113 77 -9 33 -76
31 -109 -3z m90 -15 c9 -28 -12 -60 -38 -60 -27 0 -47 17 -47 42 0 36 74 53
85 18z"/>
<path d="M4147 1453 c-4 -3 -7 -62 -7 -130 l0 -123 258 2 257 3 3 128 3 127
-254 0 c-140 0 -257 -3 -260 -7z m483 -118 l0 -105 -235 0 -235 0 0 105 0 105
235 0 235 0 0 -105z"/>
<path d="M5007 1454 c-4 -4 -7 -61 -7 -126 l0 -118 208 0 c114 0 231 3 260 7
l53 6 -3 116 -3 116 -251 3 c-138 1 -253 -1 -257 -4z m483 -112 l0 -99 -152
-6 c-83 -4 -189 -7 -235 -7 l-83 0 0 105 0 105 235 0 235 0 0 -98z"/>
<path d="M5870 1216 l0 -244 253 2 c260 3 302 8 293 33 -3 8 -6 113 -6 234 l0
219 -270 0 -270 0 0 -244z m508 7 l-3 -218 -65 -7 c-36 -4 -145 -5 -242 -1
l-178 6 0 218 0 219 245 0 245 0 -2 -217z"/>
<path d="M6096 1249 c-32 -25 -35 -70 -6 -99 41 -41 110 -10 110 50 0 34 -30
70 -59 70 -10 0 -30 -9 -45 -21z m68 -15 c32 -31 14 -76 -29 -76 -47 0 -61 49
-23 76 28 20 33 20 52 0z"/>
<path d="M6500 1292 c0 -93 3 -203 6 -245 l7 -77 513 0 514 0 0 245 0 245
-520 0 -520 0 0 -168z m1020 -77 l0 -225 -493 0 -494 0 -7 215 c-4 118 -4 220
-1 225 4 6 187 10 501 10 l494 0 0 -225z"/>
<path d="M6976 1239 c-52 -41 -18 -99 58 -99 47 0 56 9 56 60 0 16 -3 35 -6
44 -9 24 -75 21 -108 -5z m89 -39 c0 -26 -5 -36 -18 -38 -29 -6 -64 6 -71 23
-9 23 30 57 62 53 24 -3 27 -7 27 -38z"/>
<path d="M7640 1216 l0 -244 253 2 c138 1 260 5 270 10 15 7 17 29 17 242 l0
234 -270 0 -270 0 0 -244z m518 7 l-3 -218 -65 -7 c-36 -4 -147 -5 -247 -2
l-183 6 0 219 0 219 250 0 250 0 -2 -217z"/>
<path d="M7878 1257 c-42 -17 -51 -74 -16 -107 29 -27 64 -25 94 6 30 29 27
67 -8 97 -23 19 -31 20 -70 4z m72 -57 c0 -40 -32 -58 -66 -35 -35 22 -31 50
11 73 29 15 55 -2 55 -38z"/>
<path d="M3297 1100 c-15 -18 -17 -46 -17 -245 l0 -225 255 0 255 0 -2 243 -3
242 -235 3 c-226 2 -236 2 -253 -18z m473 -225 l0 -215 -235 0 -235 0 0 215 0
215 235 0 235 0 0 -215z"/>
<path d="M4157 1100 c-15 -18 -17 -47 -17 -245 l0 -225 254 0 c140 0 256 3
259 8 2 4 1 114 -1 245 l-4 237 -237 0 c-225 0 -237 -1 -254 -20z m473 -225
l0 -215 -235 0 -235 0 0 215 0 215 235 0 235 0 0 -215z"/>
<path d="M5007 1114 c-3 -3 -6 -111 -7 -240 l-1 -234 249 0 c179 0 251 3 260
12 9 9 12 76 12 240 l0 228 -253 0 c-140 0 -256 -3 -260 -6z m491 -214 c1
-107 0 -205 -3 -217 l-5 -23 -236 0 -235 0 1 220 1 220 237 -2 237 -3 3 -195z"/>
<path d="M654 883 c-22 -3 -34 -11 -39 -26 -11 -37 -16 -276 -8 -377 l8 -95
40 1 c22 0 73 1 113 2 l72 2 0 98 c0 113 10 136 55 130 36 -4 42 -24 44 -150
l1 -88 110 0 110 0 0 239 c0 210 -2 240 -17 252 -12 11 -66 14 -237 15 -122 1
-235 -1 -252 -3z m474 -26 c9 -6 12 -63 12 -228 l0 -219 -90 0 -90 0 0 78 c0
102 -14 151 -43 154 -82 5 -97 -16 -97 -138 l0 -94 -94 0 -93 0 -7 149 c-6
134 -3 213 10 278 3 18 12 22 52 25 91 7 427 3 440 -5z"/>
<path d="M5917 882 c-10 -2 -17 -8 -17 -13 0 -5 -6 -8 -12 -6 -10 1 -15 -49
-21 -208 -4 -115 -5 -225 -2 -242 l6 -33 269 0 269 0 3 213 c3 211 -3 274 -25
282 -15 5 -447 11 -470 7z m467 -38 c3 -9 6 -112 6 -230 l0 -214 -250 0 -250
0 0 223 c0 123 3 227 7 230 3 4 113 7 244 7 207 0 238 -2 243 -16z"/>
<path d="M1283 873 l-23 -4 0 -245 0 -244 199 0 c110 0 206 -3 214 -6 32 -12
47 24 47 111 0 102 11 135 44 135 40 0 51 -25 52 -119 1 -47 2 -94 3 -103 1
-17 20 -18 241 -18 l240 0 0 250 0 250 -497 -1 c-274 -1 -508 -4 -520 -6z
m995 -245 l2 -228 -219 0 -219 0 -4 99 c-4 114 -18 141 -73 141 -49 0 -59 -21
-65 -134 l-5 -101 -207 -3 -208 -2 0 224 0 225 38 4 c20 2 244 3 497 3 l460
-1 3 -227z"/>
<path d="M2405 859 c-18 -18 -20 -36 -22 -217 -2 -108 -1 -212 2 -229 l6 -33
268 0 269 0 7 27 c6 27 -2 382 -11 441 l-5 32 -247 -1 c-233 0 -248 -1 -267
-20z m499 -30 c3 -17 6 -121 6 -230 l0 -199 -250 0 -250 0 -2 153 c-4 208 -2
262 12 286 10 20 18 21 244 21 l234 0 6 -31z"/>
<path d="M6510 635 l0 -245 238 2 237 3 2 90 c4 128 6 135 48 135 19 0 36 -3
36 -7 1 -5 4 -57 8 -118 l6 -110 233 -3 232 -2 0 250 0 250 -520 0 -520 0 0
-245z m1020 0 l0 -225 -215 0 -215 0 0 89 c0 49 -4 101 -10 115 -8 23 -15 26
-55 26 -43 0 -47 -2 -61 -35 -8 -20 -14 -67 -14 -115 l0 -80 -215 0 -215 0 0
225 0 225 500 0 500 0 0 -225z"/>
<path d="M7640 625 l0 -245 86 0 86 0 -4 -25 c-3 -14 -4 -25 -2 -25 2 0 19 21
39 47 24 31 32 49 24 54 -17 10 -8 167 11 179 39 25 59 5 71 -71 6 -35 8 -85
5 -111 l-5 -48 119 0 120 0 0 245 0 245 -275 0 -275 0 0 -245z m528 3 l-3
-223 -92 -3 -93 -3 0 53 c0 75 -17 170 -32 180 -22 14 -75 9 -89 -8 -9 -11
-16 -54 -19 -118 l-5 -101 -85 0 -85 0 -3 223 -2 222 255 0 255 0 -2 -222z"/>
<path d="M3020 460 l0 -80 1375 0 1375 0 0 80 0 80 -1375 0 -1375 0 0 -80z
m2728 -2 l3 -58 -1351 0 -1350 0 0 60 0 60 1348 -2 1347 -3 3 -57z"/>
<path d="M650 313 c-8 -13 -20 -23 -27 -23 -19 0 -25 -41 -16 -106 l8 -59 992
-3 992 -2 6 32 c4 18 5 56 3 83 l-3 50 -967 3 -967 2 -3 23 -3 22 -15 -22z
m1940 -81 c0 -20 -3 -47 -6 -59 l-6 -23 -974 0 -974 0 0 60 0 60 980 0 980 0
0 -38z"/>
<path d="M6187 283 c-4 -3 -7 -42 -7 -86 l0 -80 152 6 c83 4 533 7 1000 7
l848 0 0 80 0 80 -993 0 c-547 0 -997 -3 -1000 -7z m1971 -70 l-3 -58 -977 -3
-978 -2 0 60 0 60 980 0 981 0 -3 -57z"/>
<path d="M2697 273 c-4 -3 -7 -39 -7 -80 l0 -73 1700 0 1700 0 0 80 0 80
-1693 0 c-932 0 -1697 -3 -1700 -7z m3373 -68 l0 -55 -1680 0 -1680 0 0 48 c0
27 3 52 7 55 3 4 759 7 1680 7 l1673 0 0 -55z"/>
</g>
</svg>
