<?xml version="1.0" standalone="no"?>
<!DOCTYPE svg PUBLIC "-//W3C//DTD SVG 20010904//EN"
 "http://www.w3.org/TR/2001/REC-SVG-20010904/DTD/svg10.dtd">
<svg version="1.0" xmlns="http://www.w3.org/2000/svg"
 width="356.000000pt" height="512.000000pt" viewBox="0 0 356.000000 512.000000"
 preserveAspectRatio="xMidYMid meet">

<g transform="translate(0.000000,512.000000) scale(0.100000,-0.100000)"
fill="#000000" stroke="none">
<path d="M1588 5109 c-946 -91 -1658 -883 -1580 -1755 33 -364 178 -681 434
-950 132 -138 249 -226 466 -351 11 -7 11 -19 -3 -71 -9 -35 -19 -89 -23 -120
l-7 -57 -60 -6 c-105 -11 -168 -50 -216 -133 -39 -68 -41 -155 -4 -227 l24
-50 -40 -40 c-122 -122 -126 -310 -10 -442 41 -47 155 -104 225 -112 l54 -7
-10 -37 c-15 -53 -4 -140 25 -197 45 -87 90 -124 257 -214 63 -34 165 -99 225
-144 187 -142 264 -179 390 -192 146 -15 269 32 460 175 66 50 156 110 200
135 171 94 199 112 236 148 76 74 116 200 91 289 l-10 37 61 12 c168 33 277
150 285 307 5 93 -16 157 -73 221 l-44 49 23 34 c67 100 60 207 -18 296 -49
56 -124 93 -189 93 -29 0 -49 5 -51 12 -4 12 -34 165 -43 218 -4 23 4 31 85
79 352 208 622 540 740 911 53 167 66 256 66 455 1 210 -14 309 -74 486 -83
249 -212 451 -411 645 -384 373 -924 557 -1481 503z m357 -29 c1098 -104 1821
-1084 1513 -2050 -120 -376 -403 -718 -755 -912 -40 -22 -75 -44 -78 -48 -3
-5 4 -44 15 -87 12 -43 24 -108 27 -145 l6 -68 62 0 c202 0 315 -212 190 -357
l-32 -38 42 -37 c95 -84 123 -220 70 -333 -47 -98 -151 -168 -272 -181 -34 -3
-63 -7 -63 -8 0 0 7 -23 15 -50 22 -73 19 -123 -14 -191 -35 -75 -94 -129
-204 -185 -99 -52 -214 -126 -322 -209 -159 -123 -288 -165 -434 -142 -101 15
-176 54 -338 174 -76 56 -189 129 -251 161 -62 33 -134 78 -160 101 -97 87
-124 204 -77 327 5 12 -7 17 -62 22 -289 29 -411 334 -206 516 l50 45 -30 43
c-25 34 -32 56 -35 106 -5 75 16 124 77 179 46 41 93 57 174 57 l57 0 0 49 c0
27 11 93 25 147 14 55 22 100 18 102 -5 1 -43 21 -85 45 -266 145 -510 388
-653 652 -321 589 -208 1314 279 1800 228 228 495 379 811 460 225 57 427 75
640 55z"/>
<path d="M1607 4979 c-415 -40 -828 -247 -1090 -546 -81 -93 -175 -230 -223
-326 -41 -81 -96 -241 -119 -347 -22 -102 -31 -355 -16 -461 27 -191 96 -387
192 -546 52 -87 53 -87 68 -62 8 13 34 43 58 66 70 69 195 93 293 54 l45 -17
76 71 c41 39 100 87 131 105 l55 33 -25 56 c-56 121 -23 252 90 363 69 68 220
146 338 174 41 10 77 20 79 21 2 2 -8 25 -22 51 -60 110 -46 172 101 465 99
198 115 217 165 198 39 -15 210 -351 247 -484 16 -60 9 -114 -24 -177 -31 -59
-31 -60 -7 -60 37 0 186 -52 262 -91 150 -78 243 -194 256 -320 5 -50 -4 -91
-42 -181 -5 -12 10 -27 63 -61 38 -25 95 -71 127 -102 l57 -57 55 17 c120 38
253 -3 321 -98 19 -26 38 -45 42 -42 16 10 104 169 142 257 44 101 81 235 98
356 16 107 8 382 -14 479 -104 458 -411 837 -851 1048 -289 139 -606 195 -928
164z m443 -45 c363 -56 681 -221 931 -482 185 -192 302 -403 367 -661 24 -97
27 -123 27 -301 0 -209 -11 -289 -61 -440 -29 -86 -103 -246 -134 -291 l-22
-30 -43 40 c-66 61 -119 84 -205 89 -50 3 -89 -1 -117 -11 l-42 -14 -38 39
c-21 22 -67 60 -103 86 -36 25 -68 48 -72 52 -5 3 2 33 13 65 75 213 -99 440
-411 536 -41 13 -78 26 -83 29 -4 4 0 21 9 40 47 93 24 192 -102 446 -105 211
-126 239 -182 239 -25 0 -48 -7 -61 -19 -27 -25 -201 -373 -229 -459 -26 -78
-27 -126 -6 -182 28 -72 28 -75 7 -75 -11 0 -52 -11 -91 -24 -233 -79 -389
-232 -407 -397 -6 -49 0 -81 30 -175 5 -17 -4 -27 -50 -58 -32 -21 -82 -62
-112 -91 l-55 -53 -40 14 c-102 36 -230 8 -314 -68 l-53 -49 -40 68 c-193 326
-234 763 -106 1132 76 217 175 372 350 547 375 375 904 543 1445 458z"/>
<path d="M1655 4674 c-223 -32 -347 -68 -503 -149 -360 -184 -601 -508 -657
-882 -23 -149 -21 -179 14 -214 39 -38 83 -39 120 -1 25 24 28 36 34 117 23
362 249 681 602 851 285 138 605 157 905 55 415 -140 702 -492 735 -901 9
-108 12 -118 45 -135 42 -22 77 -19 105 10 22 21 25 33 25 104 0 264 -131 553
-346 767 -238 236 -562 370 -914 379 -74 2 -148 1 -165 -1z m394 -54 c113 -23
247 -68 336 -112 165 -83 340 -228 446 -368 60 -79 132 -217 165 -312 51 -151
71 -349 38 -382 -37 -37 -94 -5 -94 54 0 69 -21 192 -47 275 -121 386 -472
680 -903 756 -106 19 -325 16 -432 -5 -242 -47 -437 -147 -610 -314 -190 -184
-299 -410 -315 -656 -7 -95 -22 -126 -63 -126 -27 0 -60 35 -60 63 0 59 25
211 46 286 175 601 837 975 1493 841z"/>
<path d="M592 3147 c-39 -42 -26 -105 27 -127 59 -24 121 14 121 74 0 69 -100
104 -148 53z m106 -19 c21 -21 14 -56 -14 -75 -24 -15 -29 -15 -53 -2 -29 16
-39 52 -21 75 15 17 71 19 88 2z"/>
<path d="M2885 3145 c-36 -35 -33 -76 7 -110 26 -22 39 -26 66 -21 64 10 95
62 68 115 -17 33 -34 41 -82 41 -24 0 -43 -8 -59 -25z m109 -26 c33 -47 -29
-98 -79 -65 -14 9 -25 25 -25 36 0 48 76 69 104 29z"/>
<path d="M1716 4045 c-115 -231 -123 -309 -40 -374 69 -54 161 -47 226 19 37
37 43 56 38 120 -3 48 -141 350 -159 350 -5 0 -34 -52 -65 -115z m112 -32 c93
-202 103 -254 54 -303 -55 -55 -146 -57 -198 -5 -32 32 -39 70 -25 124 15 55
111 271 121 271 4 0 25 -39 48 -87z"/>
<path d="M1560 3511 c-149 -33 -248 -80 -328 -155 -90 -84 -114 -172 -72 -264
l19 -42 53 21 c159 62 386 94 617 86 199 -7 362 -39 522 -102 22 -8 49 60 49
123 -1 101 -77 195 -215 263 -127 62 -214 81 -400 85 -129 3 -176 0 -245 -15z
m475 -40 c163 -44 291 -125 337 -215 15 -30 19 -53 16 -93 -3 -30 -9 -58 -14
-63 -6 -6 -37 0 -83 15 -164 56 -258 69 -501 69 -245 1 -359 -14 -520 -69 -40
-14 -74 -24 -75 -22 -14 17 -25 53 -25 82 0 133 155 252 400 306 117 26 349
21 465 -10z"/>
<path d="M1545 3044 c-244 -37 -478 -143 -590 -265 -62 -67 -88 -116 -105
-198 -12 -63 -20 -78 -41 -90 -24 -13 -29 -13 -53 2 -31 21 -35 66 -11 143 20
67 19 70 -16 83 -110 38 -225 -36 -217 -141 2 -30 8 -43 18 -43 11 0 14 10 12
42 -3 36 1 47 30 78 27 30 43 38 78 41 65 7 76 -3 61 -59 -18 -75 -14 -130 12
-155 32 -30 69 -36 105 -18 32 17 46 47 57 128 8 63 70 154 143 213 74 60 234
138 344 170 151 42 294 58 463 52 316 -13 580 -105 734 -255 66 -65 96 -118
111 -194 6 -29 13 -63 16 -75 2 -13 18 -30 36 -39 26 -13 38 -14 69 -5 62 19
65 31 47 211 -3 23 1 25 37 28 76 5 144 -64 131 -133 -5 -25 -29 -55 -96 -118
-95 -90 -282 -223 -300 -212 -6 4 -10 71 -10 180 l0 173 -31 26 c-50 42 -110
29 -134 -29 -30 -71 -11 -406 31 -550 27 -92 56 -237 49 -244 -3 -2 -23 15
-45 38 -72 74 -188 136 -301 161 -76 17 -288 8 -351 -14 -44 -17 -49 -16 -110
2 -214 66 -464 13 -622 -132 -21 -20 -40 -36 -42 -36 -6 0 8 64 44 200 35 131
36 142 40 343 2 115 1 220 -2 233 -8 30 -64 59 -97 51 -13 -3 -33 -13 -44 -21
-18 -13 -20 -29 -25 -199 -3 -102 -8 -188 -12 -192 -15 -15 -225 131 -320 223
-37 36 -51 43 -60 34 -9 -9 1 -24 46 -64 124 -111 346 -261 363 -244 4 3 9 97
12 208 l6 202 26 15 c24 13 29 13 54 -3 l27 -18 -5 -216 c-4 -213 -5 -220 -41
-347 -22 -77 -39 -164 -43 -215 l-6 -85 59 64 c102 112 213 169 373 191 83 12
197 1 275 -25 44 -15 52 -15 128 4 101 26 253 28 341 5 133 -34 249 -114 340
-234 l27 -35 0 55 c0 76 -16 165 -51 289 -33 118 -56 362 -44 481 9 91 41 121
92 85 20 -14 22 -24 25 -209 2 -107 6 -197 10 -201 17 -17 225 124 352 239
108 97 130 157 83 227 -47 70 -118 95 -196 68 -36 -13 -35 -9 -16 -73 8 -27
15 -69 15 -92 0 -36 -5 -47 -26 -61 -23 -15 -29 -15 -52 -2 -21 11 -28 26 -38
80 -16 85 -44 140 -107 206 -168 178 -485 285 -838 282 -74 -1 -174 -7 -224
-15z"/>
<path d="M557 2513 c-4 -3 -7 -11 -7 -17 0 -6 5 -5 12 2 6 6 9 14 7 17 -3 3
-9 2 -12 -2z"/>
<path d="M1595 2489 c-98 -10 -271 -46 -296 -62 -51 -32 -44 -114 12 -137 25
-11 46 -9 129 9 222 47 430 48 658 5 85 -17 92 -17 117 0 49 32 53 88 9 128
-55 49 -404 80 -629 57z m346 -30 c122 -12 249 -36 267 -51 6 -6 12 -23 12
-39 0 -45 -27 -53 -118 -34 -214 44 -458 42 -667 -7 -89 -20 -95 -20 -119 -4
-52 34 -20 77 74 99 60 14 174 32 260 40 78 8 193 6 291 -4z"/>
<path d="M1446 1869 c-63 -9 -148 -44 -209 -86 -79 -55 -135 -159 -153 -285
l-6 -47 76 -38 76 -37 49 48 c31 30 58 48 73 48 12 0 91 -40 173 -89 139 -82
150 -91 150 -118 0 -23 -7 -33 -28 -43 -27 -13 -34 -10 -155 61 l-127 75 -45
-43 c-25 -23 -53 -45 -62 -48 -10 -3 -43 5 -74 19 -31 14 -58 23 -60 21 -3 -2
7 -28 21 -58 47 -102 29 -223 -47 -314 -22 -28 -53 -76 -69 -109 -78 -164 -35
-249 200 -390 62 -38 140 -91 172 -120 157 -134 236 -170 379 -170 141 0 223
36 367 159 58 50 124 94 207 137 141 73 211 134 222 193 14 78 -32 200 -105
278 -70 75 -94 128 -95 207 -1 53 5 77 32 134 17 37 32 70 32 72 0 1 -34 -13
-75 -31 -87 -40 -100 -38 -159 23 l-38 40 -117 -70 c-122 -75 -163 -86 -187
-53 -16 21 -17 35 -6 51 9 14 281 179 311 189 16 5 33 -5 76 -46 l55 -51 90
42 c49 24 90 49 90 56 0 36 -26 125 -50 174 -29 57 -114 146 -166 173 -37 19
-126 44 -181 50 l-43 5 0 -133 c0 -112 -3 -136 -17 -153 -27 -31 -233 -133
-254 -127 -21 7 -207 111 -226 127 -8 7 -13 54 -15 146 -2 80 -7 136 -13 137
-5 2 -36 -1 -69 -6z m44 -133 c0 -152 1 -154 138 -232 65 -36 128 -68 142 -70
34 -7 268 114 286 147 9 16 13 64 14 143 l0 119 44 -6 c86 -12 158 -47 216
-106 61 -61 87 -108 106 -189 14 -60 15 -58 -79 -103 l-47 -23 -38 36 c-48 46
-78 61 -107 54 -38 -10 -324 -185 -335 -206 -16 -30 -12 -57 14 -87 40 -46 82
-38 211 40 l110 67 38 -39 c46 -48 84 -58 127 -36 18 9 34 15 36 13 2 -2 -4
-26 -12 -53 -31 -101 6 -227 94 -315 52 -52 88 -128 99 -207 11 -79 -41 -129
-242 -231 -69 -36 -126 -75 -184 -127 -97 -87 -177 -129 -274 -145 -142 -22
-273 23 -401 139 -41 37 -123 97 -182 132 -147 87 -202 132 -226 186 -33 75
-7 157 90 285 27 35 54 85 61 111 14 47 11 166 -4 201 -7 17 -6 18 11 11 44
-20 83 -10 128 34 l43 42 103 -61 c57 -34 114 -66 128 -71 30 -12 78 2 98 28
21 28 17 77 -8 100 -26 24 -286 178 -316 187 -28 9 -72 -10 -115 -52 l-37 -36
-54 26 -54 27 5 43 c14 111 80 212 171 265 57 33 137 62 175 63 l27 0 0 -104z"/>
<path d="M1367 1169 c-26 -15 -48 -65 -41 -93 18 -71 123 -98 170 -43 53 62
13 147 -70 147 -22 0 -49 -5 -59 -11z m105 -36 c56 -50 -23 -131 -87 -89 -29
19 -34 66 -9 90 20 21 73 20 96 -1z"/>
<path d="M2065 1155 c-35 -34 -34 -93 1 -126 38 -36 107 -34 140 4 55 64 14
147 -73 147 -33 0 -50 -6 -68 -25z m117 -22 c42 -38 3 -110 -55 -99 -41 8 -57
23 -57 54 0 55 70 83 112 45z"/>
<path d="M1386 749 c-30 -36 -31 -47 -10 -118 19 -64 70 -123 138 -159 49 -26
57 -27 243 -30 229 -4 274 5 347 69 61 54 89 109 90 177 1 45 -3 56 -24 72
-25 19 -74 26 -105 14 -19 -8 -45 -55 -45 -83 0 -12 -13 -35 -29 -53 l-29 -33
-182 0 -182 0 -29 33 c-18 21 -29 43 -29 63 0 44 -39 79 -89 79 -32 0 -44 -6
-65 -31z m106 -16 c10 -9 18 -27 18 -41 0 -31 24 -72 58 -97 24 -18 45 -20
199 -23 147 -3 178 -1 209 14 39 18 74 66 74 99 0 57 68 86 105 45 33 -37 -5
-144 -72 -199 -64 -53 -119 -63 -326 -59 -181 3 -182 3 -237 33 -92 50 -151
166 -114 222 17 27 59 30 86 6z"/>
<path d="M1642 1754 l3 -105 67 -37 66 -37 71 35 71 34 0 108 c0 59 -3 108 -7
108 -5 0 -35 -9 -69 -21 l-61 -22 -62 22 c-33 11 -66 21 -71 21 -7 0 -10 -38
-8 -106z m89 49 c47 -17 51 -17 98 0 27 9 51 17 55 17 3 0 6 -35 6 -78 l0 -78
-56 -27 -56 -28 -54 31 -54 31 0 75 c0 41 3 74 6 74 4 0 28 -8 55 -17z"/>
<path d="M769 1647 c-71 -48 -77 -127 -15 -184 29 -27 44 -33 81 -33 82 0 135
45 135 115 0 105 -113 162 -201 102z m140 -33 c66 -55 22 -154 -68 -154 -95 0
-136 113 -58 161 45 27 89 24 126 -7z"/>
<path d="M2663 1650 c-34 -21 -63 -66 -63 -100 0 -62 61 -120 127 -120 81 0
133 44 133 113 0 104 -107 162 -197 107z m136 -36 c24 -20 31 -34 31 -62 -1
-58 -38 -92 -102 -92 -42 0 -72 20 -88 60 -36 87 83 158 159 94z"/>
<path d="M815 1323 c-119 -26 -185 -97 -185 -198 0 -199 277 -273 395 -106 26
37 30 52 30 106 0 54 -4 69 -30 106 -44 62 -145 107 -210 92z m108 -47 c42
-17 93 -76 102 -116 11 -48 -3 -97 -37 -136 -52 -59 -113 -80 -187 -63 -58 13
-97 42 -121 89 -58 114 25 240 157 240 30 0 68 -6 86 -14z"/>
<path d="M2648 1316 c-123 -33 -188 -154 -143 -264 64 -152 283 -171 380 -33
26 37 30 52 30 106 0 54 -4 69 -30 106 -52 74 -149 109 -237 85z m135 -40 c44
-18 95 -78 103 -122 26 -142 -146 -249 -278 -171 -75 44 -109 138 -74 205 15
29 59 73 91 90 28 16 119 15 158 -2z"/>
</g>
</svg>
