<svg xmlns="http://www.w3.org/2000/svg" xmlns:xlink="http://www.w3.org/1999/xlink" width="256" zoomAndPan="magnify" viewBox="0 0 192 191.999996" height="256" preserveAspectRatio="xMidYMid meet" version="1.2"><defs><filter x="0%" y="0%" width="100%" filterUnits="objectBoundingBox" id="beb9cacce7" height="100%"><feColorMatrix values="0 0 0 0 1 0 0 0 0 1 0 0 0 0 1 0 0 0 1 0" type="matrix" in="SourceGraphic"/></filter><clipPath id="9ea76b6171"><path d="M 96 0 C 42.980469 0 0 42.980469 0 96 C 0 149.019531 42.980469 192 96 192 C 149.019531 192 192 149.019531 192 96 C 192 42.980469 149.019531 0 96 0 Z M 96 0 "/></clipPath><clipPath id="9daaea46c0"><rect x="0" width="192" y="0" height="192"/></clipPath><clipPath id="e2fe8709a8"><path d="M 42.347656 59.71875 L 149.597656 59.71875 L 149.597656 132.46875 L 42.347656 132.46875 Z M 42.347656 59.71875 "/></clipPath></defs><g id="1faefd14fd"><g mask="url(#b1f0adeb6d)" transform="matrix(1,0,0,1,0,0)"><g clip-path="url(#9daaea46c0)"><g clip-rule="nonzero" clip-path="url(#9ea76b6171)"><rect x="0" width="192" height="192" y="0"/></g></g><mask id="b1f0adeb6d"><g filter="url(#beb9cacce7)"><rect x="0" width="192" y="0" height="191.999996" style="fill:#000000;fill-opacity:0.59;stroke:none;"/></g></mask></g><path style=" stroke:none;fill-rule:evenodd;fill:#f2d1a5;fill-opacity:1;" d="M 48.335938 102.734375 L 44.054688 102.734375 L 44.054688 82.480469 L 46.933594 82.480469 L 46.933594 90.976562 L 51.214844 90.976562 L 51.214844 94.96875 L 55.496094 94.96875 L 55.496094 99.378906 L 66.445312 99.378906 L 66.445312 95.085938 L 70.121094 95.085938 L 70.121094 90.765625 L 73.863281 90.765625 L 73.863281 86.472656 L 78.378906 86.472656 L 78.378906 65.351562 L 82.566406 65.351562 L 82.566406 61.359375 L 106.691406 61.359375 L 106.691406 65.351562 L 110.878906 65.351562 L 110.878906 76.730469 L 93.914062 76.730469 L 93.914062 82.152344 L 106.691406 82.152344 L 106.691406 85.039062 L 89.46875 85.039062 L 89.46875 95.085938 L 97.679688 95.085938 L 97.679688 102.265625 L 95.132812 102.265625 L 95.132812 97.945312 L 89.46875 97.945312 L 89.46875 106.511719 L 85.492188 106.511719 L 85.492188 110.199219 L 81.234375 110.199219 L 81.234375 127.960938 L 85.515625 127.960938 L 85.515625 130.824219 L 78.355469 130.824219 L 78.355469 123.058594 L 74.074219 123.058594 L 74.074219 118.550781 L 68.363281 118.550781 L 68.363281 123.058594 L 64.082031 123.058594 L 64.082031 127.960938 L 68.363281 127.960938 L 68.363281 130.824219 L 61.207031 130.824219 L 61.207031 115.125 L 56.925781 115.125 L 56.925781 110.714844 L 52.617188 110.714844 L 52.617188 106.722656 L 48.335938 106.722656 Z M 90.828125 69.339844 L 90.828125 63.917969 L 85.421875 63.917969 L 85.421875 69.339844 Z M 90.828125 69.339844 "/><path style=" stroke:none;fill-rule:evenodd;fill:#6cf5c2;fill-opacity:1;" d="M 129.289062 101.492188 L 121.640625 101.492188 L 121.640625 98.863281 L 119.441406 98.863281 L 119.441406 96.5625 L 117.382812 96.5625 L 117.382812 82.082031 L 119.441406 82.082031 L 119.441406 79.996094 L 121.992188 79.996094 L 121.992188 82.082031 L 124.050781 82.082031 L 124.050781 93.160156 L 129.289062 93.160156 L 129.289062 73.046875 L 131.351562 73.046875 L 131.351562 70.9375 L 133.898438 70.9375 L 133.898438 73.046875 L 135.960938 73.046875 L 135.960938 103.648438 L 141.175781 103.648438 L 141.175781 82.082031 L 143.234375 82.082031 L 143.234375 79.996094 L 145.808594 79.996094 L 145.808594 82.082031 L 147.867188 82.082031 L 147.867188 107.074219 L 145.808594 107.074219 L 145.808594 109.375 L 143.609375 109.375 L 143.609375 112.003906 L 135.984375 112.003906 L 135.984375 130.824219 L 129.289062 130.824219 Z M 129.289062 101.492188 "/><g clip-rule="nonzero" clip-path="url(#e2fe8709a8)"><path style=" stroke:none;fill-rule:evenodd;fill:#000000;fill-opacity:1;" d="M 142.089844 130.589844 L 146.183594 130.589844 L 146.183594 132.46875 L 142.089844 132.46875 Z M 112.1875 126.554688 L 119.628906 126.554688 L 119.628906 128.433594 L 112.1875 128.433594 Z M 50.09375 126.554688 L 55.542969 126.554688 L 55.542969 128.433594 L 50.09375 128.433594 Z M 100.160156 130.589844 L 104.257812 130.589844 L 104.257812 132.46875 L 100.160156 132.46875 Z M 43.332031 130.589844 L 46.933594 130.589844 L 46.933594 132.46875 L 43.332031 132.46875 Z M 135.773438 130.589844 L 135.773438 111.769531 L 143.421875 111.769531 L 143.421875 109.140625 L 145.621094 109.140625 L 145.621094 106.839844 L 147.679688 106.839844 L 147.679688 82.292969 L 145.621094 82.292969 L 145.621094 80.207031 L 143.515625 80.207031 L 143.515625 82.292969 L 141.457031 82.292969 L 141.457031 103.859375 L 135.796875 103.859375 L 135.796875 73.28125 L 133.738281 73.28125 L 133.738281 71.171875 L 131.628906 71.171875 L 131.628906 73.28125 L 129.570312 73.28125 L 129.570312 93.394531 L 123.886719 93.394531 L 123.886719 82.316406 L 121.828125 82.316406 L 121.828125 80.230469 L 119.722656 80.230469 L 119.722656 82.316406 L 117.664062 82.316406 L 117.664062 96.328125 L 119.722656 96.328125 L 119.722656 98.628906 L 121.921875 98.628906 L 121.921875 101.257812 L 129.570312 101.257812 L 129.570312 130.589844 Z M 85.304688 128.171875 L 81.023438 128.171875 L 81.023438 109.960938 L 85.28125 109.960938 L 85.28125 106.277344 L 89.257812 106.277344 L 89.257812 97.734375 L 95.367188 97.734375 L 95.367188 102.054688 L 97.472656 102.054688 L 97.472656 95.320312 L 89.257812 95.320312 L 89.257812 84.828125 L 106.480469 84.828125 L 106.480469 82.386719 L 93.703125 82.386719 L 93.703125 76.519531 L 110.667969 76.519531 L 110.667969 65.585938 L 106.480469 65.585938 L 106.480469 61.59375 L 82.800781 61.59375 L 82.800781 65.585938 L 78.613281 65.585938 L 78.613281 86.683594 L 74.097656 86.683594 L 74.097656 90.976562 L 70.355469 90.976562 L 70.355469 95.296875 L 66.679688 95.296875 L 66.679688 99.613281 L 55.285156 99.613281 L 55.285156 95.203125 L 50.980469 95.203125 L 50.980469 91.210938 L 46.699219 91.210938 L 46.699219 82.714844 L 44.265625 82.714844 L 44.265625 102.523438 L 48.546875 102.523438 L 48.546875 106.511719 L 52.828125 106.511719 L 52.828125 110.503906 L 57.132812 110.503906 L 57.132812 114.914062 L 61.417969 114.914062 L 61.417969 130.589844 L 68.132812 130.589844 L 68.132812 128.171875 L 63.847656 128.171875 L 63.847656 122.824219 L 68.132812 122.824219 L 68.132812 118.316406 L 74.308594 118.316406 L 74.308594 122.824219 L 78.589844 122.824219 L 78.589844 130.589844 L 85.304688 130.589844 Z M 70.027344 122.824219 L 70.027344 120.195312 L 72.4375 120.195312 L 72.4375 122.824219 Z M 145.292969 113.648438 L 145.292969 111.019531 L 147.492188 111.019531 L 147.492188 108.71875 L 149.554688 108.71875 L 149.554688 80.417969 L 147.492188 80.417969 L 147.492188 78.328125 L 141.644531 78.328125 L 141.644531 80.417969 L 139.585938 80.417969 L 139.585938 102.007812 L 137.667969 102.007812 L 137.667969 71.40625 L 135.609375 71.40625 L 135.609375 69.316406 L 129.757812 69.316406 L 129.757812 71.40625 L 127.699219 71.40625 L 127.699219 91.515625 L 125.757812 91.515625 L 125.757812 80.441406 L 123.699219 80.441406 L 123.699219 78.351562 L 117.851562 78.351562 L 117.851562 80.441406 L 115.789062 80.441406 L 115.789062 98.207031 L 117.851562 98.207031 L 117.851562 100.503906 L 120.050781 100.503906 L 120.050781 103.132812 L 127.699219 103.132812 L 127.699219 122.800781 L 82.894531 122.800781 L 82.894531 111.816406 L 87.128906 111.816406 L 87.128906 108.132812 L 91.105469 108.132812 L 91.105469 99.613281 L 93.46875 99.613281 L 93.46875 103.929688 L 99.320312 103.929688 L 99.320312 93.441406 L 91.105469 93.441406 L 91.105469 86.707031 L 108.328125 86.707031 L 108.328125 80.511719 L 95.550781 80.511719 L 95.550781 78.398438 L 112.515625 78.398438 L 112.515625 63.707031 L 108.328125 63.707031 L 108.328125 59.71875 L 80.929688 59.71875 L 80.929688 63.707031 L 76.742188 63.707031 L 76.742188 84.804688 L 72.226562 84.804688 L 72.226562 89.101562 L 68.480469 89.101562 L 68.480469 93.417969 L 64.808594 93.417969 L 64.808594 97.734375 L 57.15625 97.734375 L 57.15625 93.324219 L 52.851562 93.324219 L 52.851562 89.335938 L 48.570312 89.335938 L 48.570312 80.839844 L 42.394531 80.839844 L 42.394531 104.402344 L 46.675781 104.402344 L 46.675781 108.390625 L 50.957031 108.390625 L 50.957031 112.378906 L 55.238281 112.378906 L 55.238281 116.792969 L 59.519531 116.792969 L 59.519531 122.847656 L 43.332031 122.847656 L 43.332031 124.722656 L 59.566406 124.722656 L 59.566406 132.46875 L 70.027344 132.46875 L 70.027344 126.296875 L 65.746094 126.296875 L 65.746094 124.699219 L 76.742188 124.699219 L 76.742188 132.46875 L 87.199219 132.46875 L 87.199219 126.296875 L 82.917969 126.296875 L 82.917969 124.699219 L 127.675781 124.699219 L 127.675781 132.46875 L 137.667969 132.46875 L 137.667969 124.699219 L 148.617188 124.699219 L 148.617188 122.824219 L 137.644531 122.824219 L 137.644531 113.648438 Z M 89.164062 67.699219 L 87.058594 67.699219 L 87.058594 65.585938 L 89.164062 65.585938 Z M 91.035156 63.707031 L 91.035156 69.574219 L 85.1875 69.574219 L 85.1875 63.707031 Z M 91.035156 63.707031 "/></g></g></svg>